# Blender v2.59 (sub 0) OBJ File: 'pistol.blend'
# www.blender.org
mtllib pistol_000019.mtl
o Cube.003
v -0.137289 0.147587 0.637986
v -0.125292 0.168013 0.713552
v -0.169212 0.179469 0.717428
v -0.181209 0.159044 0.641862
v -0.093147 0.227807 0.609294
v -0.081150 0.248233 0.684861
v -0.174575 0.250121 0.699182
v -0.186572 0.229696 0.623616
v -0.215645 0.113658 0.674612
v -0.207989 0.126692 0.722834
v -0.176654 0.105900 0.723480
v -0.184310 0.092866 0.675258
vn -0.020012 0.965958 -0.257922
vn 0.874881 -0.484272 -0.007997
vn 0.151491 0.257925 0.954214
vn -0.985738 -0.032161 0.165189
vn -0.151491 -0.257925 -0.954214
vn -0.807001 0.589721 -0.031283
vn -0.222213 -0.430938 -0.874593
vn 0.773513 -0.631959 0.048016
vn 0.074517 0.074265 0.994451
vn -0.531934 -0.792380 0.298631
usemtl Material.001
s off
f 5//1 8//1 7//1 6//1
f 1//2 5//2 6//2 2//2
f 2//3 6//3 7//3 3//3
f 3//4 7//4 8//4 4//4
f 5//5 1//5 4//5 8//5
f 3//6 4//6 9//6 10//6
f 4//7 1//7 12//7 9//7
f 1//8 2//8 11//8 12//8
f 2//9 3//9 10//9 11//9
f 12//10 11//10 10//10 9//10
o Cube.002
v 0.201968 -0.244097 0.626298
v 0.217058 -0.219037 0.721376
v 0.045439 -0.252300 0.757381
v 0.030349 -0.277360 0.662303
v 0.086875 0.233297 0.518739
v 0.101965 0.258357 0.613817
v -0.069654 0.225094 0.649822
v -0.084744 0.200034 0.554744
vn 0.228943 -0.949635 0.213958
vn -0.228943 0.949635 -0.213958
vn 0.961548 0.186365 -0.201728
vn 0.151694 0.251916 0.955786
vn -0.961548 -0.186365 0.201728
vn -0.151694 -0.251915 -0.955786
usemtl Material.002
s off
f 13//11 14//11 15//11 16//11
f 17//12 20//12 19//12 18//12
f 13//13 17//13 18//13 14//13
f 14//14 18//14 19//14 15//14
f 15//15 19//15 20//15 16//15
f 17//16 13//16 16//16 20//16
o Cube.001
v 0.181138 0.241525 0.530340
v 0.203022 0.278306 0.667250
v -0.765683 0.306591 0.814494
v -0.787568 0.269809 0.677585
v 0.179922 0.348555 0.501780
v 0.201806 0.385337 0.638690
v -0.766899 0.413621 0.785935
v -0.788784 0.376840 0.649025
v -0.694580 0.400248 0.695334
v -0.688605 0.389365 0.697303
v -0.735646 0.390023 0.704645
v -0.722364 0.401059 0.699557
v -0.692399 0.403913 0.708978
v -0.686424 0.393031 0.710947
v -0.733465 0.393689 0.718289
v -0.720183 0.404725 0.713201
v 0.150041 0.397444 0.582225
v 0.158704 0.368646 0.588577
v 0.105412 0.370202 0.596677
v 0.111955 0.398556 0.588014
v 0.151501 0.399897 0.591355
v 0.160164 0.371099 0.597707
v 0.106871 0.372655 0.605808
v 0.113414 0.401009 0.597145
v 0.108165 0.392186 0.564304
v 0.101622 0.363832 0.572968
v 0.154914 0.362276 0.564867
v 0.146252 0.391074 0.558515
v 0.106705 0.389733 0.555174
v 0.100163 0.361379 0.563837
v 0.153455 0.359823 0.555736
v 0.144792 0.388621 0.549384
vt 0.981492 0.700396
vt 0.981492 0.559075
vt 0.015757 0.559075
vt 0.015757 0.700396
vt 0.256982 0.028856
vt 0.256982 0.201167
vt 0.033870 0.201167
vt 0.033870 0.028856
vt 0.970962 0.782064
vt 0.970962 0.890592
vt 0.010662 0.890592
vt 0.010662 0.782064
vt 0.016806 0.783088
vt 0.016806 0.891616
vt 0.029279 0.489607
vt 0.029280 0.383592
vt 0.967338 0.383592
vt 0.967338 0.489607
vt 0.925445 0.487516
vt 0.912457 0.498835
vt 0.885552 0.498835
vt 0.879885 0.488225
vt 0.094387 0.900039
vt 0.066845 0.900039
vt 0.053548 0.888452
vt 0.100189 0.889177
vt 0.884250 0.887914
vt 0.891057 0.916869
vt 0.928814 0.916869
vt 0.937080 0.887914
vt 0.125150 0.242886
vt 0.110271 0.242886
vt 0.110271 0.196916
vt 0.125150 0.196916
vt 0.107333 0.515275
vt 0.070451 0.515275
vt 0.113983 0.486992
vt 0.062377 0.486992
vt 0.178668 0.242886
vt 0.163788 0.242886
vt 0.163788 0.196916
vt 0.178668 0.196916
vn 0.010977 -0.966135 0.257802
vn -0.010977 0.966135 -0.257802
vn 0.988233 -0.028854 -0.150213
vn 0.152565 0.256418 0.954449
vn -0.988233 0.028854 0.150212
vn -0.152565 -0.256418 -0.954450
vn -0.152565 -0.256416 -0.954450
vn 0.152564 0.256419 0.954449
vn 0.866498 0.429751 -0.253960
vn 0.026340 -0.966467 0.255436
vn -0.657534 0.747326 -0.095669
vn -0.010977 0.966135 -0.257803
vn 0.152565 0.256418 0.954450
vn 0.947251 0.237481 -0.215215
vn -0.964514 0.249209 0.087222
vn -0.010977 0.966136 -0.257801
vn -0.010977 0.966136 -0.257802
vn 0.010977 -0.966135 0.257803
vn -0.152565 -0.256418 -0.954449
usemtl _pistol-2_Cube.001-k.t
s off
f 21/1/17 22/2/17 23/3/17 24/4/17
f 25/1/18 28/4/18 27/3/18 26/2/18
f 21/5/19 25/6/19 26/7/19 22/8/19
f 22/9/20 26/10/20 27/11/20 23/12/20
f 23/13/21 27/14/21 28/14/21 24/13/21
f 25/15/22 21/16/22 24/17/22 28/18/22
f 31/19/23 32/20/23 29/21/23 30/22/23
f 33/23/24 36/24/24 35/25/24 34/26/24
f 29/21/25 33/21/25 34/22/25 30/22/25
f 30/22/26 34/22/26 35/19/26 31/19/26
f 31/19/27 35/19/27 36/20/27 32/20/27
f 32/20/28 36/20/28 33/21/28 29/21/28
f 39/27/22 40/28/22 37/29/22 38/30/22
f 41/29/29 44/28/29 43/27/29 42/30/29
f 37/31/30 41/32/30 42/33/30 38/34/30
f 38/30/17 42/30/17 43/27/17 39/27/17
f 39/27/31 43/27/31 44/28/31 40/28/31
f 40/28/32 44/28/32 41/29/32 37/29/32
f 49/35/33 45/35/33 48/36/33 52/36/33
f 50/37/31 46/37/31 45/35/31 49/35/31
f 51/38/34 47/38/34 46/37/34 50/37/34
f 52/39/30 48/40/30 47/41/30 51/42/30
f 48/29/29 45/28/29 46/27/29 47/30/29
f 50/37/35 49/35/35 52/36/35 51/38/35
o Cube
v 0.268594 -0.189186 0.637635
v 0.287308 -0.157732 0.754713
v 0.085888 -0.177147 0.792125
v 0.067173 -0.208601 0.675047
v 0.129052 0.098681 0.582604
v 0.147766 0.130135 0.699682
v -0.031503 0.134780 0.727089
v -0.050218 0.103326 0.610011
v -0.091285 0.104014 0.616098
v -0.072485 0.135611 0.733709
v 0.026272 -0.222525 0.685034
v 0.045072 -0.190928 0.802644
v 0.180853 0.129005 0.691293
v 0.163130 0.099217 0.580416
v 0.323588 -0.136163 0.739716
v 0.305864 -0.165950 0.628839
v 0.131654 0.203229 0.557504
v 0.149377 0.233017 0.668381
v -0.122942 0.240178 0.713682
v -0.141741 0.208581 0.596071
v -0.100674 0.207893 0.589984
v -0.081960 0.239346 0.707062
v 0.097309 0.234701 0.679655
v 0.078595 0.203248 0.562576
v 0.334733 -0.232324 0.655835
v 0.348443 -0.209281 0.741607
v 0.069805 -0.264251 0.803773
v 0.055263 -0.288693 0.712792
v 0.096154 -0.274785 0.702745
v 0.110631 -0.250453 0.793315
v 0.312051 -0.231039 0.755902
v 0.297574 -0.255370 0.665333
v 0.075957 0.282919 0.541594
v 0.094672 0.314373 0.658672
v -0.084598 0.319018 0.686080
v -0.103312 0.287564 0.569001
v -0.144379 0.288253 0.575089
v -0.125580 0.319849 0.692699
v 0.146740 0.312689 0.647398
v 0.129017 0.282901 0.536521
v 0.154827 0.282380 0.532536
v 0.172550 0.312167 0.643412
v 0.175188 0.232495 0.664395
v 0.157464 0.202708 0.553518
v 0.203127 0.223120 0.540735
v 0.220850 0.252908 0.651612
v 0.218455 0.311240 0.636324
v 0.200732 0.281452 0.525447
v 0.220571 0.281074 0.522377
v 0.238294 0.310862 0.633254
v 0.240557 0.264170 0.645436
v 0.222834 0.234382 0.534560
v -0.131614 0.110528 0.658018
v -0.123655 0.123905 0.707810
v -0.103867 0.099747 0.711137
v -0.111826 0.086370 0.661346
v -0.178722 0.065816 0.677560
v -0.170763 0.079193 0.727352
v -0.173511 0.109513 0.719645
v -0.181470 0.096136 0.669854
v -0.341157 0.106258 0.692660
v -0.333198 0.119635 0.742451
v -0.330450 0.089315 0.750158
v -0.338409 0.075938 0.700366
v -0.379253 0.073120 0.707652
v -0.371294 0.086497 0.757443
v -0.374043 0.116817 0.749737
v -0.382002 0.103440 0.699946
v -0.378344 0.215201 0.632113
v -0.359544 0.246798 0.749723
v -0.326923 0.246772 0.744516
v -0.345723 0.215176 0.626905
v -0.329657 0.323973 0.724212
v -0.348456 0.292377 0.606602
v -0.380888 0.293007 0.611616
v -0.362089 0.324604 0.729227
v -0.717556 0.332647 0.783886
v -0.736356 0.301050 0.666276
v -0.715012 0.254841 0.804382
v -0.733812 0.223244 0.686772
v -0.761729 0.383115 0.687777
v -0.762926 0.358525 0.684631
v -0.762148 0.334803 0.694306
v -0.759693 0.321010 0.713107
v -0.756498 0.322414 0.733852
v -0.753785 0.338480 0.748618
v -0.752589 0.363070 0.751764
v -0.753367 0.386792 0.742089
v -0.755822 0.400585 0.723288
v -0.759016 0.399180 0.702543
v -0.446653 0.373915 0.639885
v -0.447850 0.349325 0.636739
v -0.447072 0.325603 0.646414
v -0.444617 0.311810 0.665215
v -0.441422 0.313215 0.685960
v -0.438709 0.329280 0.700726
v -0.437512 0.353870 0.703872
v -0.438290 0.377592 0.694197
v -0.440746 0.391385 0.675396
v -0.443940 0.389981 0.654651
v -0.760291 0.375032 0.698794
v -0.761054 0.359348 0.696787
v -0.760558 0.344217 0.702958
v -0.758992 0.335419 0.714950
v -0.756954 0.336315 0.728182
v -0.755223 0.346562 0.737601
v -0.754460 0.362247 0.739608
v -0.754957 0.377378 0.733436
v -0.756523 0.386175 0.721444
v -0.758560 0.385280 0.708212
v -0.585537 0.354223 0.670108
v -0.584774 0.369907 0.672115
v -0.585041 0.339092 0.676279
v -0.583475 0.330294 0.688271
v -0.581437 0.331190 0.701504
v -0.579706 0.341437 0.710922
v -0.578943 0.357122 0.712929
v -0.579440 0.372253 0.706758
v -0.581006 0.381051 0.694766
v -0.583043 0.380155 0.681533
v 0.882925 -0.108808 0.017695
v 0.893117 -0.332449 0.135372
v -0.012908 -0.227859 0.565907
v -0.156612 0.129163 0.492962
v 0.938659 -0.015135 0.366369
v 0.948851 -0.238776 0.484046
v 0.042826 -0.134186 0.914581
v -0.100878 0.222836 0.841636
vt 0.927200 0.246707
vt 0.827427 0.459240
vt 0.696213 0.458799
vt 0.779567 0.227763
vt 0.193673 0.133961
vt 0.387467 0.042986
vt 0.404740 0.177602
vt 0.194075 0.253606
vt 0.415015 0.204984
vt 0.194375 0.280989
vt 0.666182 0.458471
vt 0.749536 0.216495
vt 0.333858 0.810420
vt 0.482548 0.810420
vt 0.482548 0.959111
vt 0.333858 0.959111
vt 0.954311 0.264288
vt 0.852013 0.459752
vt -0.727496 0.474897
vt -0.701703 0.474897
vt -0.701703 0.500689
vt -0.727496 0.500689
vt -1.408821 0.790398
vt -1.364616 0.790398
vt -1.364616 0.834602
vt -1.408821 0.834602
vt 0.193206 0.111543
vt 0.123273 0.166853
vt 0.122807 0.131768
vt 0.829833 0.536959
vt 0.791355 0.536447
vt 0.660140 0.536006
vt 0.630110 0.535678
vt 0.123975 0.313881
vt 0.123676 0.286498
vt 0.371435 0.018265
vt 0.418527 0.000861
vt 0.434558 0.025582
vt 0.946287 0.195062
vt 0.973398 0.212643
vt 0.768623 0.164850
vt 0.798654 0.176118
vt 0.451832 0.160198
vt 0.462106 0.187580
vt 0.069323 0.287655
vt 0.068921 0.168010
vt 0.790086 0.596056
vt 0.658872 0.595615
vt 0.069622 0.315037
vt 0.628841 0.595287
vt 0.828564 0.596568
vt 0.068454 0.132924
vt 0.068295 0.115698
vt 0.122648 0.114541
vt 0.848726 0.537133
vt 0.847457 0.596742
vt 0.296481 0.778563
vt 0.465802 0.778563
vt 0.465802 0.947884
vt 0.296481 0.947884
vt 0.882328 0.553418
vt 0.881059 0.597051
vt 0.108976 0.116494
vt 0.054623 0.117651
vt 0.054341 0.087011
vt 0.094127 0.085854
vt 0.107799 0.083901
vt 0.068013 0.085058
vt 0.067876 0.071816
vt 0.099715 0.070660
vt 0.896850 0.562283
vt 0.895581 0.597202
vt 0.213162 0.298524
vt 0.197060 0.311551
vt 0.632665 0.455526
vt 0.646952 0.437867
vt 0.000000 0.000000
vt 1.000000 0.000000
vt 1.000000 1.000000
vt 0.000000 1.000000
vt 0.309848 0.788364
vt 0.475308 0.788364
vt 0.475308 0.953824
vt 0.309848 0.953824
vt 0.596042 0.443658
vt 0.597803 0.421011
vt 0.228531 0.343339
vt 0.207881 0.344944
vt 0.224803 0.449870
vt 0.204153 0.451475
vt 0.479211 0.447746
vt 0.480971 0.425100
vt 0.314329 0.792844
vt 0.470828 0.792844
vt 0.470828 0.949343
vt 0.314329 0.949343
vt 0.206892 0.478764
vt 0.227542 0.477159
vt 0.124172 0.471787
vt 0.123539 0.450009
vt 0.449283 0.444743
vt 0.480819 0.536156
vt 0.456935 0.535462
vt 0.306798 0.789219
vt 0.474452 0.789219
vt 0.474452 0.956874
vt 0.306798 0.956874
vt 0.479459 0.593913
vt 0.070875 0.451248
vt 0.302167 0.788495
vt 0.479083 0.788495
vt 0.479083 0.965412
vt 0.302167 0.965412
vt 0.071091 0.472895
vt 0.455719 0.593675
vt 0.125767 0.709036
vt 0.072686 0.710145
vt 0.195528 0.591926
vt 0.196743 0.533713
vt 0.336313 0.795297
vt 0.444937 0.795297
vt 0.444937 0.903921
vt 0.336313 0.903921
vt 0.038819 0.761475
vt 0.258057 0.761475
vt 0.258057 0.980713
vt 0.038819 0.980713
vt 0.543634 0.830499
vt 0.640937 0.830499
vt 0.640937 0.927802
vt 0.543634 0.927802
vt 0.538555 0.806133
vt 0.633320 0.806133
vt 0.633320 0.900898
vt 0.538555 0.900898
vn -0.146370 -0.254452 -0.955945
vn 0.158752 0.258372 0.952912
vn -0.930775 -0.287380 0.225986
vn 0.227859 0.290173 0.929451
vn -0.076135 -0.220756 -0.972353
vn 0.870479 0.422428 -0.252629
vn -0.079425 -0.230836 -0.969746
vn 0.946784 0.239030 -0.215555
vn 0.224752 0.280399 0.933200
vn 0.159130 0.259234 0.952615
vn -0.145990 -0.253587 -0.956233
vn 0.152564 0.256417 0.954450
vn -0.152565 -0.256417 -0.954450
vn 0.923148 0.307855 -0.230268
vn 0.007848 -0.378477 -0.925577
vn 0.306651 0.123726 0.943746
vn -0.923148 -0.307855 0.230268
vn 0.219430 0.089399 0.971524
vn -0.080717 -0.415061 -0.906206
vn 0.175108 0.075028 0.981686
vn -0.124811 -0.429050 -0.894616
vn 0.136665 -0.961951 0.236587
vn 0.357448 -0.914692 0.188600
vn 0.546902 -0.826310 0.134572
vn 0.152564 0.256418 0.954450
vn -0.145925 -0.256467 -0.955474
vn 0.159196 0.256356 0.953383
vn 0.212489 0.255435 0.943187
vn -0.092074 -0.256447 -0.962163
vn -0.014301 0.966227 -0.257296
vn -0.021774 0.966393 -0.256146
vn -0.024123 0.966434 -0.255781
vn -0.020066 0.966360 -0.256410
vn -0.152563 -0.256418 -0.954450
vn 0.020065 -0.966360 0.256410
vn 0.440873 -0.881995 0.166481
vn -0.021256 0.966383 -0.256226
vn -0.152564 -0.256417 -0.954450
vn 0.524288 -0.839656 0.141773
vn 0.987183 0.006238 -0.159472
vn -0.671363 -0.470282 -0.572806
vn -0.987381 -0.001943 0.158350
vn -0.436496 -0.075537 0.896529
vn 0.729937 -0.680312 0.066092
vn 0.330965 -0.923247 0.195132
vn 0.152565 0.256419 0.954449
vn -0.315101 0.927974 -0.198938
vn 0.023591 0.964535 -0.262899
vn -0.023591 -0.964535 0.262898
vn 0.109601 -0.964188 0.241515
vn 0.152565 0.256417 0.954450
vn -0.984410 -0.046099 0.169739
vn -0.985658 0.109955 0.128013
vn -0.124759 -0.514189 -0.848555
vn 0.168404 -0.021465 0.985484
vn 0.988269 -0.046417 -0.145500
vn -0.039680 0.966566 -0.253330
vn -0.020065 0.966360 -0.256410
vn 0.007810 -0.966038 0.258283
vn -0.020849 0.966375 -0.256289
vn -0.017622 0.966307 -0.256787
vn 0.017622 -0.966307 0.256787
vn -0.987788 0.008680 0.155562
vn -0.145167 0.132514 -0.980493
vn -0.149917 -0.377593 -0.913755
vn -0.111503 -0.808149 -0.578327
vn -0.018426 -0.997351 0.070360
vn 0.090374 -0.682161 0.725596
vn 0.145167 -0.132516 0.980493
vn 0.149917 0.377595 0.913754
vn 0.111503 0.808150 0.578326
vn 0.018426 0.997351 -0.070360
vn -0.090374 0.682162 -0.725595
vn -0.988233 0.028856 0.150211
vn -0.988233 0.028853 0.150210
vn -0.988233 0.028852 0.150210
vn -0.988233 0.028853 0.150213
vn -0.988232 0.028853 0.150217
vn -0.988232 0.028853 0.150218
vn -0.988232 0.028858 0.150217
vn -0.988232 0.028858 0.150216
vn -0.988233 0.028857 0.150212
vn -0.988233 0.028857 0.150211
vn 0.149917 0.377593 0.913755
vn 0.111503 0.808149 0.578327
vn 0.018427 0.997352 -0.070357
vn -0.090374 0.682160 -0.725596
vn -0.145167 0.132517 -0.980492
vn -0.149917 -0.377592 -0.913755
vn -0.111503 -0.808149 -0.578328
vn -0.018427 -0.997352 0.070357
vn 0.090374 -0.682160 0.725596
vn -0.444436 -0.383552 -0.809546
vn 0.444436 0.383551 0.809546
vn 0.988273 -0.033368 -0.149007
vn -0.917679 -0.321741 0.233125
vn 0.094668 0.957523 -0.272376
usemtl Material_pistol_Cube-k.tga
s off
f 54/43/29 58/44/29 59/45/29 55/46/29
f 57/47/22 53/48/22 56/49/22 60/50/22
f 60/50/36 56/49/36 63/51/36 61/52/36
f 55/46/37 59/45/37 62/53/37 64/54/37
f 64/55/38 62/56/38 61/57/38 63/58/38
f 58/44/39 54/43/39 67/59/39 65/60/39
f 53/61/40 57/62/40 66/63/40 68/64/40
f 68/65/41 66/66/41 65/67/41 67/68/41
f 66/69/42 57/47/42 76/70/42 69/71/42
f 65/55/43 66/56/43 69/57/43 70/58/43
f 58/44/44 65/60/44 70/72/44 75/73/44
f 62/53/45 59/45/45 74/74/45 71/75/45
f 60/50/46 61/52/46 72/76/46 73/77/46
f 59/45/47 58/44/47 75/73/47 74/74/47
f 57/47/48 60/50/48 73/77/48 76/70/48
f 68/55/49 67/56/49 78/57/49 77/58/49
f 53/48/50 68/78/50 77/79/50 84/80/50
f 67/59/51 54/43/51 83/81/51 78/82/51
f 64/55/52 63/56/52 80/57/52 79/58/52
f 55/46/53 64/54/53 79/83/53 82/84/53
f 63/51/54 56/49/54 81/85/54 80/86/54
f 54/43/55 55/46/55 82/84/55 83/81/55
f 56/49/56 53/48/56 84/80/56 81/85/56
f 84/55/57 83/56/57 82/57/57 81/58/57
f 81/55/58 82/56/58 79/57/58 80/58/58
f 83/55/59 84/56/59 77/57/59 78/58/59
f 76/70/22 73/77/22 88/87/22 85/88/22
f 74/74/60 75/73/60 86/89/60 87/90/60
f 73/77/61 72/76/61 89/91/61 88/87/61
f 71/75/62 74/74/62 87/90/62 90/92/62
f 75/73/63 70/72/63 91/93/63 86/89/63
f 69/71/64 76/70/64 85/88/64 92/94/64
f 85/65/65 88/66/65 87/67/65 86/68/65
f 87/65/66 88/66/66 89/67/66 90/68/66
f 85/65/67 86/66/67 91/67/67 92/68/67
f 92/65/68 91/66/68 94/67/68 93/68/68
f 69/71/69 92/94/69 93/95/69 96/96/69
f 91/93/47 70/72/47 95/97/47 94/98/47
f 70/99/70 69/100/70 96/101/70 95/102/70
f 95/55/71 96/56/71 97/57/71 98/58/71
f 94/98/60 95/97/60 98/103/60 99/104/60
f 96/105/22 93/106/22 100/107/22 97/108/22
f 93/65/68 94/66/68 99/67/68 100/68/68
f 100/65/72 99/66/72 102/67/72 101/68/72
f 97/109/73 100/110/73 101/111/73 104/112/73
f 99/104/47 98/103/47 103/113/47 102/114/47
f 98/55/74 97/56/74 104/57/74 103/58/74
f 103/55/75 104/56/75 101/57/75 102/58/75
f 72/76/76 61/52/76 108/115/76 105/116/76
f 71/55/77 72/56/77 105/57/77 106/58/77
f 62/53/78 71/75/78 106/117/78 107/118/78
f 61/119/79 62/120/79 107/121/79 108/122/79
f 108/123/80 107/124/80 110/125/80 109/126/80
f 107/118/81 106/117/81 111/127/81 110/128/81
f 106/55/82 105/56/82 112/57/82 111/58/82
f 105/116/22 108/115/22 109/129/22 112/130/22
f 112/130/48 109/129/48 116/131/48 113/132/48
f 111/55/83 112/56/83 113/57/83 114/58/83
f 110/128/20 111/127/20 114/133/20 115/134/20
f 109/123/84 110/124/84 115/125/84 116/126/84
f 116/135/85 115/136/85 118/137/85 117/138/85
f 115/131/86 114/132/86 119/139/86 118/140/86
f 113/132/48 116/131/48 117/140/48 120/139/48
f 117/55/87 118/56/87 119/57/87 120/58/87
f 120/55/88 119/56/88 122/57/88 121/58/88
f 113/132/89 120/139/89 121/141/89 124/142/89
f 119/143/90 114/133/90 123/144/90 122/145/90
f 114/146/91 113/147/91 124/148/91 123/149/91
f 123/65/92 124/66/92 121/67/92 122/68/92
f 90/65/93 89/66/93 126/67/93 125/68/93
f 71/75/86 90/92/86 125/150/86 123/144/86
f 89/91/48 72/76/48 124/142/48 126/151/48
f 72/152/94 71/153/94 123/154/94 124/155/94
f 126/151/48 124/142/48 121/141/48 127/156/48
f 123/144/86 125/150/86 128/157/86 122/145/86
f 125/65/95 126/66/95 127/67/95 128/68/95
f 127/156/48 121/141/48 132/158/48 130/159/48
f 122/145/86 128/157/86 129/160/86 131/161/86
f 128/162/96 127/163/96 130/164/96 129/165/96
f 121/99/97 122/100/97 131/101/97 132/102/97
f 132/55/98 131/56/98 129/57/98 130/58/98
f 133/166/99 143/167/99 144/168/99 134/169/99
f 134/166/100 144/167/100 145/168/100 135/169/100
f 135/166/101 145/167/101 146/168/101 136/169/101
f 136/166/102 146/167/102 147/168/102 137/169/102
f 137/166/103 147/167/103 148/168/103 138/169/103
f 138/166/104 148/167/104 149/168/104 139/169/104
f 139/166/105 149/167/105 150/168/105 140/169/105
f 140/166/106 150/167/106 151/168/106 141/169/106
f 141/166/107 151/167/107 152/168/107 142/169/107
f 142/166/108 152/167/108 143/168/108 133/169/108
f 133/166/109 134/167/109 154/168/109 153/169/109
f 134/166/110 135/167/110 155/168/110 154/169/110
f 135/166/111 136/167/111 156/168/111 155/169/111
f 136/166/112 137/167/112 157/168/112 156/169/112
f 137/166/113 138/167/113 158/168/113 157/169/113
f 138/166/114 139/167/114 159/168/114 158/169/114
f 139/166/115 140/167/115 160/168/115 159/169/115
f 140/166/116 141/167/116 161/168/116 160/169/116
f 141/166/117 142/167/117 162/168/117 161/169/117
f 142/166/118 133/167/118 153/168/118 162/169/118
f 153/166/104 154/167/104 163/168/104 164/169/104
f 154/166/119 155/167/119 165/168/119 163/169/119
f 155/166/120 156/167/120 166/168/120 165/169/120
f 156/166/121 157/167/121 167/168/121 166/169/121
f 157/166/122 158/167/122 168/168/122 167/169/122
f 158/166/123 159/167/123 169/168/123 168/169/123
f 159/166/124 160/167/124 170/168/124 169/169/124
f 160/166/125 161/167/125 171/168/125 170/169/125
f 161/166/126 162/167/126 172/168/126 171/169/126
f 162/166/127 153/167/127 164/168/127 172/169/127
f 175/170/128 176/171/128 173/172/128 174/173/128
f 177/170/129 180/171/129 179/172/129 178/173/129
f 173/170/130 177/171/130 178/172/130 174/173/130
f 174/170/34 178/171/34 179/172/34 175/173/34
f 175/174/131 179/175/131 180/176/131 176/177/131
f 176/170/132 180/171/132 177/172/132 173/173/132
