# Blender v2.59 (sub 0) OBJ File: 'pistol.blend'
# www.blender.org
mtllib pistol_000022.mtl
o Cube.003
v -0.111216 0.170169 0.739553
v -0.082420 0.224728 0.789206
v -0.124853 0.236575 0.800798
v -0.153649 0.182016 0.751145
v -0.089229 0.226421 0.664993
v -0.060433 0.280980 0.714647
v -0.145631 0.289476 0.754721
v -0.174427 0.234917 0.705067
v -0.170602 0.158199 0.809997
v -0.152226 0.193015 0.841683
v -0.119111 0.175188 0.842067
v -0.137486 0.140371 0.810381
vn -0.235702 0.719222 -0.653578
vn 0.902922 -0.426231 -0.055299
vn 0.363621 0.688944 0.627006
vn -0.887208 0.050940 0.458549
vn -0.363621 -0.688944 -0.627006
vn -0.865077 0.499426 -0.047075
vn -0.382963 -0.801622 -0.459065
vn 0.844202 -0.528266 0.090869
vn 0.329271 0.547829 0.769067
vn -0.304223 -0.548351 0.778948
usemtl Material.001
s off
f 5//1 8//1 7//1 6//1
f 1//2 5//2 6//2 2//2
f 2//3 6//3 7//3 3//3
f 3//4 7//4 8//4 4//4
f 5//5 1//5 4//5 8//5
f 3//6 4//6 9//6 10//6
f 4//7 1//7 12//7 9//7
f 1//8 2//8 11//8 12//8
f 2//9 3//9 10//9 11//9
f 12//10 11//10 10//10 9//10
o Cube.002
v 0.301420 -0.157555 0.844174
v 0.337591 -0.089022 0.906547
v 0.191783 -0.104661 1.008289
v 0.155612 -0.173194 0.945917
v 0.076372 0.204146 0.577255
v 0.112544 0.272680 0.639627
v -0.033264 0.257041 0.741370
v -0.069436 0.188507 0.678998
vn 0.447666 -0.719499 0.530958
vn -0.447666 0.719499 -0.530958
vn 0.816930 0.087622 -0.570042
vn -0.816930 -0.087622 0.570042
usemtl Material.002
s off
f 13//11 14//11 15//11 16//11
f 17//12 20//12 19//12 18//12
f 13//13 17//13 18//13 14//13
f 14//3 18//3 19//3 15//3
f 15//14 19//14 20//14 16//14
f 17//5 13//5 16//5 20//5
o Cube.001
v 0.160540 0.211576 0.485218
v 0.212699 0.310401 0.575158
v -0.669130 0.393681 0.995054
v -0.721289 0.294856 0.905114
v 0.133748 0.291319 0.413135
v 0.185907 0.390144 0.503075
v -0.695923 0.473424 0.922971
v -0.748082 0.374599 0.833031
v -0.650050 0.418767 0.830636
v -0.642040 0.410283 0.835313
v -0.684691 0.413795 0.856189
v -0.675342 0.421156 0.842679
v -0.644851 0.428616 0.839599
v -0.636842 0.420132 0.844276
v -0.679493 0.423644 0.865152
v -0.670144 0.431005 0.851642
v 0.119377 0.372675 0.467256
v 0.134115 0.350683 0.482872
v 0.085602 0.355265 0.505972
v 0.084706 0.375949 0.483765
v 0.122855 0.379265 0.473254
v 0.137594 0.357274 0.488871
v 0.089081 0.361856 0.511971
v 0.088184 0.382540 0.489763
v 0.075673 0.358835 0.468190
v 0.076570 0.338151 0.490397
v 0.125083 0.333569 0.467297
v 0.110344 0.355561 0.451680
v 0.072194 0.352244 0.462191
v 0.073091 0.331560 0.484399
v 0.121604 0.326978 0.461299
v 0.106865 0.348970 0.445682
vt 0.981492 0.700396
vt 0.981492 0.559075
vt 0.015757 0.559075
vt 0.015757 0.700396
vt 0.256982 0.028856
vt 0.256982 0.201167
vt 0.033870 0.201167
vt 0.033870 0.028856
vt 0.970962 0.782064
vt 0.970962 0.890592
vt 0.010662 0.890592
vt 0.010662 0.782064
vt 0.016806 0.783088
vt 0.016806 0.891616
vt 0.029279 0.489607
vt 0.029280 0.383592
vt 0.967338 0.383592
vt 0.967338 0.489607
vt 0.925445 0.487516
vt 0.912457 0.498835
vt 0.885552 0.498835
vt 0.879885 0.488225
vt 0.094387 0.900039
vt 0.066845 0.900039
vt 0.053548 0.888452
vt 0.100189 0.889177
vt 0.884250 0.887914
vt 0.891057 0.916869
vt 0.928814 0.916869
vt 0.937080 0.887914
vt 0.125150 0.242886
vt 0.110271 0.242886
vt 0.110271 0.196916
vt 0.125150 0.196916
vt 0.107333 0.515275
vt 0.070451 0.515275
vt 0.113983 0.486992
vt 0.062377 0.486992
vt 0.178668 0.242886
vt 0.163788 0.242886
vt 0.163788 0.196916
vt 0.178668 0.196916
vn 0.241846 -0.719818 0.650670
vn -0.241846 0.719819 -0.650670
vn 0.899605 -0.084959 -0.428360
vn 0.363622 0.688944 0.627006
vn -0.899606 0.084958 0.428360
vn -0.363622 -0.688944 -0.627006
vn -0.363621 -0.688945 -0.627005
vn 0.363621 0.688945 0.627004
vn 0.679548 0.264213 -0.684402
vn 0.255803 -0.721053 0.643931
vn -0.773359 0.598488 -0.209112
vn -0.241845 0.719819 -0.650670
vn 0.798651 0.115913 -0.590526
vn 0.241847 -0.719817 0.650672
vn -0.931078 0.247449 0.268070
vn -0.241846 0.719818 -0.650671
vn -0.931078 0.247450 0.268070
vn 0.241846 -0.719818 0.650671
vn 0.798650 0.115912 -0.590528
vn 0.363622 0.688943 0.627006
vn -0.363621 -0.688944 -0.627005
usemtl _pistol-2_Cube.001-k.t
s off
f 21/1/15 22/2/15 23/3/15 24/4/15
f 25/1/16 28/4/16 27/3/16 26/2/16
f 21/5/17 25/6/17 26/7/17 22/8/17
f 22/9/18 26/10/18 27/11/18 23/12/18
f 23/13/19 27/14/19 28/14/19 24/13/19
f 25/15/20 21/16/20 24/17/20 28/18/20
f 31/19/21 32/20/21 29/21/21 30/22/21
f 33/23/22 36/24/22 35/25/22 34/26/22
f 29/21/23 33/21/23 34/22/23 30/22/23
f 30/22/24 34/22/24 35/19/24 31/19/24
f 31/19/25 35/19/25 36/20/25 32/20/25
f 32/20/26 36/20/26 33/21/26 29/21/26
f 39/27/20 40/28/20 37/29/20 38/30/20
f 41/29/3 44/28/3 43/27/3 42/30/3
f 37/31/27 41/32/27 42/33/27 38/34/27
f 38/30/28 42/30/28 43/27/28 39/27/28
f 39/27/29 43/27/29 44/28/29 40/28/29
f 40/28/16 44/28/16 41/29/16 37/29/16
f 49/35/30 45/35/30 48/36/30 52/36/30
f 50/37/31 46/37/31 45/35/31 49/35/31
f 51/38/32 47/38/32 46/37/32 50/37/32
f 52/39/33 48/40/33 47/41/33 51/42/33
f 48/29/34 45/28/34 46/27/34 47/30/34
f 50/37/35 49/35/35 52/36/35 51/38/35
o Cube
v 0.317851 -0.133257 0.789454
v 0.362455 -0.048747 0.866366
v 0.185171 -0.050259 0.970840
v 0.140567 -0.134769 0.893928
v 0.122696 0.089972 0.657351
v 0.167300 0.174482 0.734263
v 0.004250 0.189455 0.812369
v -0.040354 0.104945 0.735457
v -0.077696 0.107954 0.753362
v -0.032889 0.192848 0.830624
v 0.106884 -0.142647 0.921674
v 0.151690 -0.057753 0.998936
v 0.196526 0.169865 0.717205
v 0.154285 0.089832 0.644367
v 0.389115 -0.036673 0.832457
v 0.346874 -0.116706 0.759619
v 0.100883 0.169272 0.588049
v 0.143124 0.249306 0.660887
v -0.103569 0.273920 0.782533
v -0.148376 0.189026 0.705271
v -0.111034 0.186017 0.687366
v -0.066431 0.270527 0.764278
v 0.096620 0.255554 0.686172
v 0.052016 0.171044 0.609260
v 0.392664 -0.161284 0.803021
v 0.425340 -0.099372 0.859366
v 0.187625 -0.121003 1.025345
v 0.152964 -0.186675 0.965577
v 0.186625 -0.178840 0.937791
v 0.221129 -0.113465 0.997288
v 0.398413 -0.111953 0.892814
v 0.363908 -0.177328 0.833317
v 0.030507 0.230515 0.556388
v 0.075111 0.315025 0.633300
v -0.087939 0.329998 0.711406
v -0.132543 0.245488 0.634494
v -0.169885 0.248497 0.652399
v -0.125078 0.333391 0.729661
v 0.121615 0.308776 0.608015
v 0.079374 0.228743 0.535177
v 0.102814 0.226697 0.523832
v 0.145055 0.306730 0.596670
v 0.166564 0.247259 0.649542
v 0.124323 0.167226 0.576703
v 0.160670 0.179486 0.542153
v 0.202911 0.259519 0.614992
v 0.186745 0.303091 0.576492
v 0.144503 0.223058 0.503653
v 0.162515 0.221502 0.494917
v 0.204756 0.301535 0.567755
v 0.218009 0.266636 0.598416
v 0.175768 0.186603 0.525578
v -0.105480 0.133437 0.798137
v -0.086511 0.169378 0.830846
v -0.062837 0.150125 0.838271
v -0.081806 0.114185 0.805562
v -0.137299 0.103184 0.849832
v -0.118330 0.139124 0.882542
v -0.128091 0.161868 0.863212
v -0.147061 0.125928 0.830502
v -0.293737 0.143720 0.896016
v -0.274768 0.179660 0.928725
v -0.265006 0.156916 0.948055
v -0.283975 0.120975 0.915346
v -0.320194 0.121502 0.935772
v -0.301225 0.157442 0.968481
v -0.310986 0.180186 0.949151
v -0.329955 0.144246 0.916442
v -0.363690 0.209153 0.808024
v -0.318884 0.294047 0.885286
v -0.289410 0.291932 0.870517
v -0.334217 0.207038 0.793255
v -0.310412 0.349570 0.819365
v -0.355219 0.264676 0.742103
v -0.384667 0.267228 0.756376
v -0.339860 0.352122 0.833638
v -0.662887 0.380943 0.989305
v -0.707694 0.296049 0.912043
v -0.641911 0.322868 1.040953
v -0.686718 0.237973 0.963691
v -0.739483 0.377906 0.900653
v -0.737388 0.354860 0.909624
v -0.730051 0.338814 0.928215
v -0.720274 0.335897 0.949326
v -0.711792 0.347224 0.964892
v -0.707845 0.368468 0.968968
v -0.709940 0.391514 0.959997
v -0.717278 0.407560 0.941405
v -0.727054 0.410477 0.920295
v -0.735536 0.399150 0.904729
v -0.452664 0.350819 0.764080
v -0.450569 0.327772 0.773051
v -0.443231 0.311727 0.791642
v -0.433455 0.308810 0.812753
v -0.424973 0.320137 0.828319
v -0.421026 0.341381 0.832395
v -0.423121 0.364427 0.823424
v -0.430458 0.380473 0.804832
v -0.440235 0.383389 0.783722
v -0.448717 0.372062 0.768155
v -0.733754 0.376197 0.913023
v -0.732418 0.361497 0.918745
v -0.727738 0.351262 0.930604
v -0.721502 0.349402 0.944069
v -0.716092 0.356627 0.953998
v -0.713574 0.370177 0.956597
v -0.714911 0.384877 0.950875
v -0.719590 0.395112 0.939017
v -0.725827 0.396972 0.925552
v -0.731237 0.389747 0.915623
v -0.572642 0.346408 0.842665
v -0.573978 0.361108 0.836943
v -0.567962 0.336173 0.854524
v -0.561726 0.334313 0.867989
v -0.556316 0.341538 0.877918
v -0.553798 0.355088 0.880518
v -0.555134 0.369788 0.874796
v -0.559814 0.380022 0.862937
v -0.566050 0.381883 0.849472
v -0.571460 0.374658 0.839543
v 0.716308 -0.355341 0.041056
v 0.795445 -0.493747 0.237392
v 0.037988 -0.205578 0.837724
v -0.177528 0.069392 0.660576
v 0.849144 -0.103660 0.270110
v 0.928281 -0.242066 0.466446
v 0.170824 0.046103 1.066778
v -0.044692 0.321073 0.889630
vt 0.927200 0.246707
vt 0.827427 0.459240
vt 0.696213 0.458799
vt 0.779567 0.227763
vt 0.193673 0.133961
vt 0.387467 0.042986
vt 0.404740 0.177602
vt 0.194075 0.253606
vt 0.415015 0.204984
vt 0.194375 0.280989
vt 0.666182 0.458471
vt 0.749536 0.216495
vt 0.333858 0.810420
vt 0.482548 0.810420
vt 0.482548 0.959111
vt 0.333858 0.959111
vt 0.954311 0.264288
vt 0.852013 0.459752
vt -0.727496 0.474897
vt -0.701703 0.474897
vt -0.701703 0.500689
vt -0.727496 0.500689
vt -1.408821 0.790398
vt -1.364616 0.790398
vt -1.364616 0.834602
vt -1.408821 0.834602
vt 0.193206 0.111543
vt 0.123273 0.166853
vt 0.122807 0.131768
vt 0.829833 0.536959
vt 0.791355 0.536447
vt 0.660140 0.536006
vt 0.630110 0.535678
vt 0.123975 0.313881
vt 0.123676 0.286498
vt 0.371435 0.018265
vt 0.418527 0.000861
vt 0.434558 0.025582
vt 0.946287 0.195062
vt 0.973398 0.212643
vt 0.768623 0.164850
vt 0.798654 0.176118
vt 0.451832 0.160198
vt 0.462106 0.187580
vt 0.069323 0.287655
vt 0.068921 0.168010
vt 0.790086 0.596056
vt 0.658872 0.595615
vt 0.069622 0.315037
vt 0.628841 0.595287
vt 0.828564 0.596568
vt 0.068454 0.132924
vt 0.068295 0.115698
vt 0.122648 0.114541
vt 0.848726 0.537133
vt 0.847457 0.596742
vt 0.296481 0.778563
vt 0.465802 0.778563
vt 0.465802 0.947884
vt 0.296481 0.947884
vt 0.882328 0.553418
vt 0.881059 0.597051
vt 0.108976 0.116494
vt 0.054623 0.117651
vt 0.054341 0.087011
vt 0.094127 0.085854
vt 0.107799 0.083901
vt 0.068013 0.085058
vt 0.067876 0.071816
vt 0.099715 0.070660
vt 0.896850 0.562283
vt 0.895581 0.597202
vt 0.213162 0.298524
vt 0.197060 0.311551
vt 0.632665 0.455526
vt 0.646952 0.437867
vt 0.000000 0.000000
vt 1.000000 0.000000
vt 1.000000 1.000000
vt 0.000000 1.000000
vt 0.309848 0.788364
vt 0.475308 0.788364
vt 0.475308 0.953824
vt 0.309848 0.953824
vt 0.596042 0.443658
vt 0.597803 0.421011
vt 0.228531 0.343339
vt 0.207881 0.344944
vt 0.224803 0.449870
vt 0.204153 0.451475
vt 0.479211 0.447746
vt 0.480971 0.425100
vt 0.314329 0.792844
vt 0.470828 0.792844
vt 0.470828 0.949343
vt 0.314329 0.949343
vt 0.206892 0.478764
vt 0.227542 0.477159
vt 0.124172 0.471787
vt 0.123539 0.450009
vt 0.449283 0.444743
vt 0.480819 0.536156
vt 0.456935 0.535462
vt 0.306798 0.789219
vt 0.474452 0.789219
vt 0.474452 0.956874
vt 0.306798 0.956874
vt 0.479459 0.593913
vt 0.070875 0.451248
vt 0.302167 0.788495
vt 0.479083 0.788495
vt 0.479083 0.965412
vt 0.302167 0.965412
vt 0.071091 0.472895
vt 0.455719 0.593675
vt 0.125767 0.709036
vt 0.072686 0.710145
vt 0.195528 0.591926
vt 0.196743 0.533713
vt 0.336313 0.795297
vt 0.444937 0.795297
vt 0.444937 0.903921
vt 0.336313 0.903921
vt 0.038819 0.761475
vt 0.258057 0.761475
vt 0.258057 0.980713
vt 0.038819 0.980713
vt 0.543634 0.830499
vt 0.640937 0.830499
vt 0.640937 0.927802
vt 0.543634 0.927802
vt 0.538555 0.806133
vt 0.633320 0.806133
vt 0.633320 0.900898
vt 0.538555 0.900898
vn -0.358491 -0.687867 -0.631128
vn 0.368735 0.689990 0.622856
vn -0.771789 -0.154112 0.616921
vn 0.422464 0.707344 0.566735
vn -0.302075 -0.665422 -0.682616
vn 0.684903 0.258504 -0.681237
vn -0.302798 -0.673017 -0.674805
vn 0.797857 0.117096 -0.591365
vn 0.422175 0.700572 0.575297
vn 0.368869 0.690605 0.622094
vn -0.358354 -0.687245 -0.631884
vn 0.759983 0.169841 -0.627359
vn -0.183460 -0.779570 -0.598843
vn 0.528705 0.569750 0.629170
vn -0.759984 -0.169842 0.627359
vn 0.459423 0.552041 0.695832
vn -0.255944 -0.803348 -0.537704
vn 0.422622 0.543811 0.725024
vn -0.292202 -0.810547 -0.507573
vn 0.354377 -0.724778 0.590859
vn 0.542467 -0.703784 0.458712
vn 0.692385 -0.650171 0.312860
vn -0.357606 -0.689396 -0.629961
vn 0.369620 0.688460 0.624022
vn 0.417452 0.683419 0.598892
vn -0.308438 -0.691907 -0.652787
vn -0.244870 0.720100 -0.649226
vn -0.251660 0.720704 -0.645952
vn -0.253793 0.720885 -0.644914
vn -0.250111 0.720570 -0.646702
vn 0.363622 0.688944 0.627005
vn 0.250111 -0.720569 0.646703
vn 0.609976 -0.684807 0.398710
vn -0.250110 0.720569 -0.646703
vn -0.251191 0.720663 -0.646179
vn -0.363620 -0.688944 -0.627006
vn 0.363620 0.688944 0.627006
vn 0.675161 -0.658651 0.332168
vn 0.890233 -0.058771 -0.451698
vn -0.714744 -0.697849 -0.046338
vn -0.891443 0.061981 0.448874
vn -0.154964 0.362751 0.918911
vn 0.822674 -0.553258 0.130816
vn 0.520598 -0.708451 0.476523
vn -0.507403 0.710950 -0.486921
vn -0.363622 -0.688943 -0.627006
vn -0.210236 0.716407 -0.665254
vn 0.210236 -0.716407 0.665253
vn 0.330467 -0.724704 0.604645
vn -0.878160 0.028924 0.477493
vn -0.916749 0.145158 0.372156
vn -0.265355 -0.862676 -0.430554
vn 0.433369 0.461175 0.774280
vn 0.903854 -0.098034 -0.416458
vn -0.267877 0.721983 -0.637952
vn 0.238962 -0.719542 0.652040
vn -0.250821 0.720631 -0.646359
vn -0.247890 0.720373 -0.647775
vn 0.247890 -0.720374 0.647775
vn -0.894361 0.069914 0.441849
vn -0.428467 -0.361329 -0.828165
vn -0.329792 -0.775156 -0.538860
vn -0.129775 -0.988590 -0.076471
vn 0.167780 -0.838371 0.518636
vn 0.398105 -0.243652 0.884390
vn 0.428467 0.361329 0.828165
vn 0.329792 0.775156 0.538860
vn 0.129775 0.988590 0.076470
vn -0.167780 0.838372 -0.518635
vn -0.398105 0.243652 -0.884390
vn -0.899608 0.084958 0.428354
vn -0.899606 0.084955 0.428358
vn -0.899606 0.084956 0.428360
vn -0.899605 0.084956 0.428362
vn -0.899604 0.084957 0.428363
vn -0.899603 0.084962 0.428364
vn -0.899603 0.084962 0.428363
vn -0.899605 0.084964 0.428360
vn -0.899606 0.084963 0.428357
vn -0.899608 0.084960 0.428355
vn 0.428467 0.361327 0.828166
vn -0.167779 0.838373 -0.518634
vn -0.398104 0.243653 -0.884390
vn -0.428467 -0.361328 -0.828165
vn -0.329792 -0.775156 -0.538861
vn 0.167779 -0.838373 0.518633
vn 0.398105 -0.243653 0.884390
vn -0.579172 -0.733753 -0.355199
vn 0.579172 0.733753 0.355199
vn 0.900725 -0.088321 -0.425316
vn -0.751710 -0.180529 0.634304
vn -0.144348 0.706621 -0.692712
usemtl Material_pistol_Cube-k.tga
s off
f 54/43/3 58/44/3 59/45/3 55/46/3
f 57/47/5 53/48/5 56/49/5 60/50/5
f 60/50/36 56/49/36 63/51/36 61/52/36
f 55/46/37 59/45/37 62/53/37 64/54/37
f 64/55/38 62/56/38 61/57/38 63/58/38
f 58/44/39 54/43/39 67/59/39 65/60/39
f 53/61/40 57/62/40 66/63/40 68/64/40
f 68/65/41 66/66/41 65/67/41 67/68/41
f 66/69/42 57/47/42 76/70/42 69/71/42
f 65/55/43 66/56/43 69/57/43 70/58/43
f 58/44/44 65/60/44 70/72/44 75/73/44
f 62/53/45 59/45/45 74/74/45 71/75/45
f 60/50/46 61/52/46 72/76/46 73/77/46
f 59/45/3 58/44/3 75/73/3 74/74/3
f 57/47/20 60/50/20 73/77/20 76/70/20
f 68/55/47 67/56/47 78/57/47 77/58/47
f 53/48/48 68/78/48 77/79/48 84/80/48
f 67/59/49 54/43/49 83/81/49 78/82/49
f 64/55/50 63/56/50 80/57/50 79/58/50
f 55/46/51 64/54/51 79/83/51 82/84/51
f 63/51/52 56/49/52 81/85/52 80/86/52
f 54/43/53 55/46/53 82/84/53 83/81/53
f 56/49/54 53/48/54 84/80/54 81/85/54
f 84/55/55 83/56/55 82/57/55 81/58/55
f 81/55/56 82/56/56 79/57/56 80/58/56
f 83/55/57 84/56/57 77/57/57 78/58/57
f 76/70/5 73/77/5 88/87/5 85/88/5
f 74/74/3 75/73/3 86/89/3 87/90/3
f 73/77/58 72/76/58 89/91/58 88/87/58
f 71/75/59 74/74/59 87/90/59 90/92/59
f 75/73/60 70/72/60 91/93/60 86/89/60
f 69/71/61 76/70/61 85/88/61 92/94/61
f 85/65/62 88/66/62 87/67/62 86/68/62
f 87/65/63 88/66/63 89/67/63 90/68/63
f 85/65/64 86/66/64 91/67/64 92/68/64
f 92/65/65 91/66/65 94/67/65 93/68/65
f 69/71/20 92/94/20 93/95/20 96/96/20
f 91/93/66 70/72/66 95/97/66 94/98/66
f 70/99/67 69/100/67 96/101/67 95/102/67
f 95/55/68 96/56/68 97/57/68 98/58/68
f 94/98/3 95/97/3 98/103/3 99/104/3
f 96/105/5 93/106/5 100/107/5 97/108/5
f 93/65/69 94/66/69 99/67/69 100/68/69
f 100/65/70 99/66/70 102/67/70 101/68/70
f 97/109/71 100/110/71 101/111/71 104/112/71
f 99/104/72 98/103/72 103/113/72 102/114/72
f 98/55/73 97/56/73 104/57/73 103/58/73
f 103/55/74 104/56/74 101/57/74 102/58/74
f 72/76/75 61/52/75 108/115/75 105/116/75
f 71/55/76 72/56/76 105/57/76 106/58/76
f 62/53/77 71/75/77 106/117/77 107/118/77
f 61/119/78 62/120/78 107/121/78 108/122/78
f 108/123/79 107/124/79 110/125/79 109/126/79
f 107/118/34 106/117/34 111/127/34 110/128/34
f 106/55/80 105/56/80 112/57/80 111/58/80
f 105/116/20 108/115/20 109/129/20 112/130/20
f 112/130/81 109/129/81 116/131/81 113/132/81
f 111/55/82 112/56/82 113/57/82 114/58/82
f 110/128/34 111/127/34 114/133/34 115/134/34
f 109/123/83 110/124/83 115/125/83 116/126/83
f 116/135/84 115/136/84 118/137/84 117/138/84
f 115/131/34 114/132/34 119/139/34 118/140/34
f 113/132/81 116/131/81 117/140/81 120/139/81
f 117/55/85 118/56/85 119/57/85 120/58/85
f 120/55/86 119/56/86 122/57/86 121/58/86
f 113/132/87 120/139/87 121/141/87 124/142/87
f 119/143/88 114/133/88 123/144/88 122/145/88
f 114/146/89 113/147/89 124/148/89 123/149/89
f 123/65/90 124/66/90 121/67/90 122/68/90
f 90/65/69 89/66/69 126/67/69 125/68/69
f 71/75/3 90/92/3 125/150/3 123/144/3
f 89/91/5 72/76/5 124/142/5 126/151/5
f 72/152/91 71/153/91 123/154/91 124/155/91
f 126/151/81 124/142/81 121/141/81 127/156/81
f 123/144/18 125/150/18 128/157/18 122/145/18
f 125/65/92 126/66/92 127/67/92 128/68/92
f 127/156/81 121/141/81 132/158/81 130/159/81
f 122/145/34 128/157/34 129/160/34 131/161/34
f 128/162/93 127/163/93 130/164/93 129/165/93
f 121/99/94 122/100/94 131/101/94 132/102/94
f 132/55/95 131/56/95 129/57/95 130/58/95
f 133/166/96 143/167/96 144/168/96 134/169/96
f 134/166/97 144/167/97 145/168/97 135/169/97
f 135/166/98 145/167/98 146/168/98 136/169/98
f 136/166/99 146/167/99 147/168/99 137/169/99
f 137/166/100 147/167/100 148/168/100 138/169/100
f 138/166/101 148/167/101 149/168/101 139/169/101
f 139/166/102 149/167/102 150/168/102 140/169/102
f 140/166/103 150/167/103 151/168/103 141/169/103
f 141/166/104 151/167/104 152/168/104 142/169/104
f 142/166/105 152/167/105 143/168/105 133/169/105
f 133/166/106 134/167/106 154/168/106 153/169/106
f 134/166/107 135/167/107 155/168/107 154/169/107
f 135/166/108 136/167/108 156/168/108 155/169/108
f 136/166/109 137/167/109 157/168/109 156/169/109
f 137/166/110 138/167/110 158/168/110 157/169/110
f 138/166/111 139/167/111 159/168/111 158/169/111
f 139/166/112 140/167/112 160/168/112 159/169/112
f 140/166/113 141/167/113 161/168/113 160/169/113
f 141/166/114 142/167/114 162/168/114 161/169/114
f 142/166/115 133/167/115 153/168/115 162/169/115
f 153/166/116 154/167/116 163/168/116 164/169/116
f 154/166/102 155/167/102 165/168/102 163/169/102
f 155/166/103 156/167/103 166/168/103 165/169/103
f 156/166/117 157/167/117 167/168/117 166/169/117
f 157/166/118 158/167/118 168/168/118 167/169/118
f 158/166/119 159/167/119 169/168/119 168/169/119
f 159/166/120 160/167/120 170/168/120 169/169/120
f 160/166/98 161/167/98 171/168/98 170/169/98
f 161/166/121 162/167/121 172/168/121 171/169/121
f 162/166/122 153/167/122 164/168/122 172/169/122
f 175/170/123 176/171/123 173/172/123 174/173/123
f 177/170/124 180/171/124 179/172/124 178/173/124
f 173/170/125 177/171/125 178/172/125 174/173/125
f 174/170/15 178/171/15 179/172/15 175/173/15
f 175/174/126 179/175/126 180/176/126 176/177/126
f 176/170/127 180/171/127 177/172/127 173/173/127
