# Blender v2.59 (sub 0) OBJ File: 'pistol.blend'
# www.blender.org
mtllib pistol_000023.mtl
o Cube.003
v -0.112722 0.169333 0.738728
v -0.083501 0.223587 0.788466
v -0.125841 0.236042 0.799755
v -0.155062 0.181787 0.750016
v -0.089468 0.225126 0.664208
v -0.060247 0.279381 0.713946
v -0.145582 0.289133 0.753441
v -0.174802 0.234878 0.703702
v -0.172729 0.158324 0.808801
v -0.154082 0.192947 0.840542
v -0.121220 0.174665 0.841178
v -0.139867 0.140042 0.809437
vn -0.221428 0.721102 -0.656492
vn 0.897285 -0.438777 -0.048522
vn 0.368984 0.685106 0.628077
vn -0.889415 0.064111 0.452583
vn -0.368984 -0.685105 -0.628077
vn -0.857758 0.511237 -0.053739
vn -0.390987 -0.797170 -0.460053
vn 0.836199 -0.539699 0.097450
vn 0.331752 0.544763 0.770178
vn -0.316894 -0.542536 0.777967
usemtl Material.001
s off
f 5//1 8//1 7//1 6//1
f 1//2 5//2 6//2 2//2
f 2//3 6//3 7//3 3//3
f 3//4 7//4 8//4 4//4
f 5//5 1//5 4//5 8//5
f 3//6 4//6 9//6 10//6
f 4//7 1//7 12//7 9//7
f 1//8 2//8 11//8 12//8
f 2//9 3//9 10//9 11//9
f 12//10 11//10 10//10 9//10
o Cube.002
v 0.378820 -0.259808 0.966214
v 0.414992 -0.191275 1.028586
v 0.269184 -0.206914 1.130329
v 0.233012 -0.275447 1.067957
v 0.153773 0.101893 0.699295
v 0.189945 0.170427 0.761667
v 0.044137 0.154788 0.863410
v 0.007965 0.086254 0.801037
vn 0.447666 -0.719499 0.530958
vn -0.447666 0.719499 -0.530958
vn 0.816930 0.087622 -0.570042
vn 0.363621 0.688944 0.627006
vn -0.816930 -0.087622 0.570042
vn -0.363621 -0.688944 -0.627006
usemtl Material.002
s off
f 13//11 14//11 15//11 16//11
f 17//12 20//12 19//12 18//12
f 13//13 17//13 18//13 14//13
f 14//14 18//14 19//14 15//14
f 15//15 19//15 20//15 16//15
f 17//16 13//16 16//16 20//16
o Cube.001
v 0.160316 0.211739 0.485862
v 0.212290 0.309886 0.576647
v -0.671199 0.392450 0.993183
v -0.723173 0.294303 0.902398
v 0.134012 0.291989 0.414163
v 0.185986 0.390136 0.504949
v -0.697503 0.472700 0.921484
v -0.749477 0.374553 0.830699
v -0.651341 0.418523 0.829011
v -0.643370 0.409992 0.833670
v -0.686105 0.413466 0.854380
v -0.676681 0.420891 0.840957
v -0.646161 0.428304 0.838058
v -0.638191 0.419773 0.842717
v -0.680925 0.423247 0.863427
v -0.671501 0.430672 0.850005
v 0.119577 0.373036 0.468729
v 0.134200 0.350915 0.484272
v 0.085595 0.355457 0.507187
v 0.084841 0.376282 0.485106
v 0.123043 0.379581 0.474783
v 0.137666 0.357461 0.490326
v 0.089062 0.362003 0.513242
v 0.088307 0.382828 0.491160
v 0.075840 0.359285 0.469384
v 0.076595 0.338461 0.491465
v 0.125199 0.333919 0.468550
v 0.110576 0.356039 0.453007
v 0.072374 0.352740 0.463329
v 0.073128 0.331915 0.485411
v 0.121733 0.327373 0.462495
v 0.107110 0.349493 0.446952
vt 0.981492 0.700396
vt 0.981492 0.559075
vt 0.015757 0.559075
vt 0.015757 0.700396
vt 0.256982 0.028856
vt 0.256982 0.201167
vt 0.033870 0.201167
vt 0.033870 0.028856
vt 0.970962 0.782064
vt 0.970962 0.890592
vt 0.010662 0.890592
vt 0.010662 0.782064
vt 0.016806 0.783088
vt 0.016806 0.891616
vt 0.029279 0.489607
vt 0.029280 0.383592
vt 0.967338 0.383592
vt 0.967338 0.489607
vt 0.925445 0.487516
vt 0.912457 0.498835
vt 0.885552 0.498835
vt 0.879885 0.488225
vt 0.094387 0.900039
vt 0.066845 0.900039
vt 0.053548 0.888452
vt 0.100189 0.889177
vt 0.884250 0.887914
vt 0.891057 0.916869
vt 0.928814 0.916869
vt 0.937080 0.887914
vt 0.125150 0.242886
vt 0.110271 0.242886
vt 0.110271 0.196916
vt 0.125150 0.196916
vt 0.107333 0.515275
vt 0.070451 0.515275
vt 0.113983 0.486992
vt 0.062377 0.486992
vt 0.178668 0.242886
vt 0.163788 0.242886
vt 0.163788 0.196916
vt 0.178668 0.196916
vn 0.237439 -0.724396 0.647204
vn -0.237439 0.724396 -0.647204
vn 0.901298 -0.084227 -0.424932
vn 0.362332 0.684219 0.632898
vn -0.901298 0.084227 0.424932
vn -0.362332 -0.684219 -0.632898
vn 0.362331 0.684220 0.632898
vn 0.683116 0.267012 -0.679747
vn 0.251424 -0.725618 0.640519
vn -0.771149 0.601459 -0.208750
vn 0.801488 0.117872 -0.586280
vn -0.931718 0.247785 0.265526
vn -0.237439 0.724397 -0.647204
vn -0.237440 0.724395 -0.647205
vn -0.931718 0.247785 0.265527
vn 0.237439 -0.724396 0.647205
vn 0.801488 0.117872 -0.586279
usemtl _pistol-2_Cube.001-k.t
s off
f 21/1/17 22/2/17 23/3/17 24/4/17
f 25/1/18 28/4/18 27/3/18 26/2/18
f 21/5/19 25/6/19 26/7/19 22/8/19
f 22/9/20 26/10/20 27/11/20 23/12/20
f 23/13/21 27/14/21 28/14/21 24/13/21
f 25/15/22 21/16/22 24/17/22 28/18/22
f 31/19/22 32/20/22 29/21/22 30/22/22
f 33/23/23 36/24/23 35/25/23 34/26/23
f 29/21/24 33/21/24 34/22/24 30/22/24
f 30/22/25 34/22/25 35/19/25 31/19/25
f 31/19/26 35/19/26 36/20/26 32/20/26
f 32/20/18 36/20/18 33/21/18 29/21/18
f 39/27/22 40/28/22 37/29/22 38/30/22
f 41/29/23 44/28/23 43/27/23 42/30/23
f 37/31/27 41/32/27 42/33/27 38/34/27
f 38/30/17 42/30/17 43/27/17 39/27/17
f 39/27/28 43/27/28 44/28/28 40/28/28
f 40/28/29 44/28/29 41/29/29 37/29/29
f 49/35/30 45/35/30 48/36/30 52/36/30
f 50/37/31 46/37/31 45/35/31 49/35/31
f 51/38/32 47/38/32 46/37/32 50/37/32
f 52/39/33 48/40/33 47/41/33 51/42/33
f 48/29/20 45/28/20 46/27/20 47/30/20
f 50/37/22 49/35/22 52/36/22 51/38/22
o Cube
v 0.317155 -0.134072 0.787380
v 0.361600 -0.050142 0.865015
v 0.183855 -0.051923 0.968699
v 0.139410 -0.135853 0.891064
v 0.123061 0.090401 0.655823
v 0.167507 0.174331 0.733457
v 0.004146 0.189169 0.810939
v -0.040299 0.105239 0.733305
v -0.077713 0.108216 0.751064
v -0.033065 0.192528 0.829052
v 0.105588 -0.143832 0.918612
v 0.150235 -0.059520 0.996600
v 0.196797 0.169758 0.716499
v 0.154706 0.090273 0.642977
v 0.388435 -0.037914 0.831299
v 0.346344 -0.117398 0.757777
v 0.101723 0.170180 0.586923
v 0.143814 0.249665 0.660446
v -0.103359 0.274052 0.781160
v -0.148007 0.189741 0.703172
v -0.110593 0.186763 0.685413
v -0.066148 0.270693 0.763047
v 0.097212 0.255855 0.685565
v 0.052767 0.171925 0.607930
v 0.391846 -0.162346 0.801099
v 0.424407 -0.100858 0.857974
v 0.185918 -0.123011 1.022769
v 0.151380 -0.188233 0.962440
v 0.185179 -0.180297 0.934851
v 0.219561 -0.115371 0.994908
v 0.397306 -0.113590 0.891224
v 0.362924 -0.178516 0.831168
v 0.031618 0.231772 0.555338
v 0.076064 0.315702 0.632973
v -0.087296 0.330540 0.710455
v -0.131742 0.246610 0.632820
v -0.169156 0.249587 0.650580
v -0.124508 0.333899 0.728568
v 0.122666 0.309511 0.607854
v 0.080574 0.230027 0.534331
v 0.104059 0.228001 0.523076
v 0.146151 0.307485 0.596599
v 0.167299 0.247639 0.649191
v 0.125208 0.168154 0.575668
v 0.161733 0.180551 0.541356
v 0.203824 0.260036 0.614878
v 0.187921 0.303882 0.576581
v 0.145829 0.224397 0.503059
v 0.163876 0.222857 0.494392
v 0.205967 0.302342 0.567914
v 0.219010 0.267223 0.598414
v 0.176919 0.187739 0.524891
v -0.105639 0.133479 0.795875
v -0.086737 0.169173 0.828892
v -0.063137 0.149823 0.836300
v -0.082039 0.114129 0.803284
v -0.137750 0.102972 0.847240
v -0.118848 0.138666 0.880257
v -0.128476 0.161552 0.861027
v -0.147378 0.125858 0.828010
v -0.294303 0.143557 0.892990
v -0.275401 0.179251 0.926006
v -0.265773 0.156365 0.945236
v -0.284675 0.120671 0.912219
v -0.320982 0.121148 0.932489
v -0.302080 0.156842 0.965506
v -0.311707 0.179728 0.946276
v -0.330609 0.144034 0.913259
v -0.363728 0.209691 0.805104
v -0.319080 0.294003 0.883091
v -0.289547 0.291916 0.868439
v -0.334194 0.207605 0.790451
v -0.310200 0.349918 0.817558
v -0.354848 0.265607 0.739570
v -0.384352 0.268133 0.753729
v -0.339704 0.352445 0.831717
v -0.663352 0.380992 0.986142
v -0.707999 0.296680 0.908154
v -0.642727 0.322549 1.037517
v -0.687375 0.238237 0.959529
v -0.739563 0.378675 0.897137
v -0.737556 0.355569 0.905973
v -0.730335 0.339391 0.924496
v -0.720658 0.336322 0.945630
v -0.712221 0.347533 0.961304
v -0.708246 0.368742 0.965530
v -0.710252 0.391848 0.956695
v -0.717473 0.408026 0.938172
v -0.727151 0.411096 0.917037
v -0.735588 0.399885 0.901364
v -0.452204 0.351821 0.761657
v -0.450197 0.328715 0.770493
v -0.442976 0.312537 0.789015
v -0.433299 0.309468 0.810150
v -0.424862 0.320679 0.825824
v -0.420887 0.341888 0.830050
v -0.422893 0.364994 0.821214
v -0.430114 0.381172 0.802692
v -0.439792 0.384241 0.781557
v -0.448229 0.373030 0.765883
v -0.733892 0.376877 0.909522
v -0.732612 0.362138 0.915158
v -0.728006 0.351820 0.926972
v -0.721834 0.349862 0.940453
v -0.716452 0.357013 0.950450
v -0.713917 0.370541 0.953146
v -0.715197 0.385279 0.947510
v -0.719802 0.395598 0.935696
v -0.725975 0.397556 0.922215
v -0.731357 0.390405 0.912218
v -0.572535 0.347179 0.839687
v -0.573815 0.361917 0.834051
v -0.567930 0.336860 0.851501
v -0.561757 0.334902 0.864982
v -0.556375 0.342053 0.874979
v -0.553840 0.355581 0.877675
v -0.555120 0.370320 0.872039
v -0.559726 0.380638 0.860225
v -0.565898 0.382596 0.846744
v -0.571280 0.375445 0.836747
v 0.718426 -0.352335 0.039362
v 0.796402 -0.492137 0.235172
v 0.036927 -0.206087 0.833967
v -0.177218 0.070451 0.657602
v 0.850791 -0.102380 0.270568
v 0.928766 -0.242182 0.466379
v 0.169292 0.043868 1.065174
v -0.044853 0.320406 0.888808
vt 0.927200 0.246707
vt 0.827427 0.459240
vt 0.696213 0.458799
vt 0.779567 0.227763
vt 0.193673 0.133961
vt 0.387467 0.042986
vt 0.404740 0.177602
vt 0.194075 0.253606
vt 0.415015 0.204984
vt 0.194375 0.280989
vt 0.666182 0.458471
vt 0.749536 0.216495
vt 0.333858 0.810420
vt 0.482548 0.810420
vt 0.482548 0.959111
vt 0.333858 0.959111
vt 0.954311 0.264288
vt 0.852013 0.459752
vt -0.727496 0.474897
vt -0.701703 0.474897
vt -0.701703 0.500689
vt -0.727496 0.500689
vt -1.408821 0.790398
vt -1.364616 0.790398
vt -1.364616 0.834602
vt -1.408821 0.834602
vt 0.193206 0.111543
vt 0.123273 0.166853
vt 0.122807 0.131768
vt 0.829833 0.536959
vt 0.791355 0.536447
vt 0.660140 0.536006
vt 0.630110 0.535678
vt 0.123975 0.313881
vt 0.123676 0.286498
vt 0.371435 0.018265
vt 0.418527 0.000861
vt 0.434558 0.025582
vt 0.946287 0.195062
vt 0.973398 0.212643
vt 0.768623 0.164850
vt 0.798654 0.176118
vt 0.451832 0.160198
vt 0.462106 0.187580
vt 0.069323 0.287655
vt 0.068921 0.168010
vt 0.790086 0.596056
vt 0.658872 0.595615
vt 0.069622 0.315037
vt 0.628841 0.595287
vt 0.828564 0.596568
vt 0.068454 0.132924
vt 0.068295 0.115698
vt 0.122648 0.114541
vt 0.848726 0.537133
vt 0.847457 0.596742
vt 0.296481 0.778563
vt 0.465802 0.778563
vt 0.465802 0.947884
vt 0.296481 0.947884
vt 0.882328 0.553418
vt 0.881059 0.597051
vt 0.108976 0.116494
vt 0.054623 0.117651
vt 0.054341 0.087011
vt 0.094127 0.085854
vt 0.107799 0.083901
vt 0.068013 0.085058
vt 0.067876 0.071816
vt 0.099715 0.070660
vt 0.896850 0.562283
vt 0.895581 0.597202
vt 0.213162 0.298524
vt 0.197060 0.311551
vt 0.632665 0.455526
vt 0.646952 0.437867
vt 0.000000 0.000000
vt 1.000000 0.000000
vt 1.000000 1.000000
vt 0.000000 1.000000
vt 0.309848 0.788364
vt 0.475308 0.788364
vt 0.475308 0.953824
vt 0.309848 0.953824
vt 0.596042 0.443658
vt 0.597803 0.421011
vt 0.228531 0.343339
vt 0.207881 0.344944
vt 0.224803 0.449870
vt 0.204153 0.451475
vt 0.479211 0.447746
vt 0.480971 0.425100
vt 0.314329 0.792844
vt 0.470828 0.792844
vt 0.470828 0.949343
vt 0.314329 0.949343
vt 0.206892 0.478764
vt 0.227542 0.477159
vt 0.124172 0.471787
vt 0.123539 0.450009
vt 0.449283 0.444743
vt 0.480819 0.536156
vt 0.456935 0.535462
vt 0.306798 0.789219
vt 0.474452 0.789219
vt 0.474452 0.956874
vt 0.306798 0.956874
vt 0.479459 0.593913
vt 0.070875 0.451248
vt 0.302167 0.788495
vt 0.479083 0.788495
vt 0.479083 0.965412
vt 0.302167 0.965412
vt 0.071091 0.472895
vt 0.455719 0.593675
vt 0.125767 0.709036
vt 0.072686 0.710145
vt 0.195528 0.591926
vt 0.196743 0.533713
vt 0.336313 0.795297
vt 0.444937 0.795297
vt 0.444937 0.903921
vt 0.336313 0.903921
vt 0.038819 0.761475
vt 0.258057 0.761475
vt 0.258057 0.980713
vt 0.038819 0.980713
vt 0.543634 0.830499
vt 0.640937 0.830499
vt 0.640937 0.927802
vt 0.543634 0.927802
vt 0.538555 0.806133
vt 0.633320 0.806133
vt 0.633320 0.900898
vt 0.538555 0.900898
vn 0.362332 0.684220 0.632898
vn -0.362332 -0.684220 -0.632898
vn -0.357181 -0.683128 -0.636991
vn 0.367465 0.685280 0.628777
vn -0.774824 -0.156294 0.612552
vn 0.421478 0.702869 0.573002
vn -0.300491 -0.660484 -0.688089
vn 0.688446 0.261274 -0.676593
vn -0.301265 -0.668127 -0.680328
vn 0.800701 0.119062 -0.587114
vn 0.421137 0.696045 0.581520
vn 0.367604 0.685900 0.628020
vn -0.357039 -0.682502 -0.637742
vn -0.362332 -0.684220 -0.632897
vn 0.763099 0.172114 -0.622942
vn -0.182491 -0.775411 -0.604513
vn 0.527149 0.564658 0.635040
vn -0.763099 -0.172114 0.622942
vn 0.457537 0.546682 0.701284
vn -0.255294 -0.799413 -0.543842
vn 0.420589 0.538350 0.730263
vn -0.291699 -0.806722 -0.513917
vn 0.350221 -0.729225 0.587857
vn 0.538936 -0.707813 0.456672
vn 0.689609 -0.653613 0.311816
vn -0.362331 -0.684220 -0.632897
vn -0.356304 -0.684667 -0.635830
vn 0.368342 0.683742 0.629937
vn 0.416274 0.678754 0.604987
vn -0.307042 -0.687141 -0.658455
vn -0.240469 0.724675 -0.645771
vn -0.247272 0.725273 -0.642523
vn -0.249409 0.725452 -0.641494
vn -0.245720 0.725140 -0.643268
vn -0.362331 -0.684220 -0.632898
vn 0.245719 -0.725140 0.643269
vn 0.606748 -0.688607 0.397086
vn 0.362331 0.684219 0.632898
vn -0.245719 0.725140 -0.643269
vn -0.246802 0.725232 -0.642749
vn 0.362330 0.684220 0.632898
vn 0.672283 -0.662177 0.330995
vn 0.892085 -0.057874 -0.448147
vn -0.716025 -0.695995 -0.053844
vn -0.893275 0.061104 0.445337
vn -0.158230 0.357333 0.920476
vn 0.820904 -0.555847 0.130957
vn 0.516979 -0.712544 0.474356
vn -0.503733 0.715079 -0.484681
vn -0.205773 0.721006 -0.661670
vn 0.205773 -0.721006 0.661670
vn 0.326251 -0.729185 0.601539
vn -0.880189 0.027840 0.473807
vn -0.918066 0.144815 0.369032
vn -0.265302 -0.859390 -0.437108
vn 0.430943 0.455384 0.779047
vn 0.905467 -0.097386 -0.413094
vn -0.263521 0.726537 -0.634587
vn 0.362331 0.684220 0.632897
vn 0.234549 -0.724122 0.648563
vn -0.362332 -0.684219 -0.632897
vn 0.362332 0.684219 0.632897
vn -0.246432 0.725201 -0.642927
vn -0.243494 0.724946 -0.644332
vn 0.243494 -0.724946 0.644332
vn -0.896145 0.069088 0.438350
vn -0.425590 -0.355214 -0.832284
vn -0.329075 -0.771055 -0.545146
vn -0.131552 -0.987809 -0.083230
vn 0.163702 -0.841960 0.514107
vn 0.393686 -0.250040 0.884585
vn 0.425590 0.355213 0.832284
vn 0.329075 0.771055 0.545146
vn 0.131552 0.987809 0.083228
vn -0.163702 0.841960 -0.514106
vn -0.393686 0.250040 -0.884585
vn -0.901299 0.084227 0.424930
vn -0.901300 0.084226 0.424929
vn -0.901298 0.084224 0.424933
vn -0.901298 0.084224 0.424934
vn -0.901296 0.084228 0.424936
vn -0.901296 0.084230 0.424937
vn -0.901296 0.084234 0.424936
vn -0.901297 0.084233 0.424934
vn -0.901299 0.084231 0.424931
vn -0.901300 0.084227 0.424929
vn 0.425590 0.355216 0.832283
vn -0.163700 0.841962 -0.514103
vn -0.393686 0.250038 -0.884586
vn -0.425590 -0.355213 -0.832284
vn -0.329075 -0.771054 -0.545147
vn -0.131553 -0.987809 -0.083230
vn 0.163700 -0.841962 0.514103
vn 0.393686 -0.250041 0.884585
vn -0.579172 -0.730261 -0.362325
vn 0.579172 0.730261 0.362325
vn 0.902398 -0.087611 -0.421904
vn -0.754879 -0.182862 0.629857
vn -0.139786 0.711250 -0.688900
usemtl Material_pistol_Cube-k.tga
s off
f 54/43/34 58/44/34 59/45/34 55/46/34
f 57/47/35 53/48/35 56/49/35 60/50/35
f 60/50/36 56/49/36 63/51/36 61/52/36
f 55/46/37 59/45/37 62/53/37 64/54/37
f 64/55/38 62/56/38 61/57/38 63/58/38
f 58/44/39 54/43/39 67/59/39 65/60/39
f 53/61/40 57/62/40 66/63/40 68/64/40
f 68/65/41 66/66/41 65/67/41 67/68/41
f 66/69/42 57/47/42 76/70/42 69/71/42
f 65/55/43 66/56/43 69/57/43 70/58/43
f 58/44/44 65/60/44 70/72/44 75/73/44
f 62/53/45 59/45/45 74/74/45 71/75/45
f 60/50/46 61/52/46 72/76/46 73/77/46
f 59/45/23 58/44/23 75/73/23 74/74/23
f 57/47/47 60/50/47 73/77/47 76/70/47
f 68/55/48 67/56/48 78/57/48 77/58/48
f 53/48/49 68/78/49 77/79/49 84/80/49
f 67/59/50 54/43/50 83/81/50 78/82/50
f 64/55/51 63/56/51 80/57/51 79/58/51
f 55/46/52 64/54/52 79/83/52 82/84/52
f 63/51/53 56/49/53 81/85/53 80/86/53
f 54/43/54 55/46/54 82/84/54 83/81/54
f 56/49/55 53/48/55 84/80/55 81/85/55
f 84/55/56 83/56/56 82/57/56 81/58/56
f 81/55/57 82/56/57 79/57/57 80/58/57
f 83/55/58 84/56/58 77/57/58 78/58/58
f 76/70/59 73/77/59 88/87/59 85/88/59
f 74/74/23 75/73/23 86/89/23 87/90/23
f 73/77/60 72/76/60 89/91/60 88/87/60
f 71/75/61 74/74/61 87/90/61 90/92/61
f 75/73/62 70/72/62 91/93/62 86/89/62
f 69/71/63 76/70/63 85/88/63 92/94/63
f 85/65/64 88/66/64 87/67/64 86/68/64
f 87/65/65 88/66/65 89/67/65 90/68/65
f 85/65/66 86/66/66 91/67/66 92/68/66
f 92/65/67 91/66/67 94/67/67 93/68/67
f 69/71/68 92/94/68 93/95/68 96/96/68
f 91/93/23 70/72/23 95/97/23 94/98/23
f 70/99/69 69/100/69 96/101/69 95/102/69
f 95/55/70 96/56/70 97/57/70 98/58/70
f 94/98/71 95/97/71 98/103/71 99/104/71
f 96/105/68 93/106/68 100/107/68 97/108/68
f 93/65/72 94/66/72 99/67/72 100/68/72
f 100/65/73 99/66/73 102/67/73 101/68/73
f 97/109/68 100/110/68 101/111/68 104/112/68
f 99/104/74 98/103/74 103/113/74 102/114/74
f 98/55/75 97/56/75 104/57/75 103/58/75
f 103/55/76 104/56/76 101/57/76 102/58/76
f 72/76/77 61/52/77 108/115/77 105/116/77
f 71/55/78 72/56/78 105/57/78 106/58/78
f 62/53/79 71/75/79 106/117/79 107/118/79
f 61/119/80 62/120/80 107/121/80 108/122/80
f 108/123/81 107/124/81 110/125/81 109/126/81
f 107/118/20 106/117/20 111/127/20 110/128/20
f 106/55/82 105/56/82 112/57/82 111/58/82
f 105/116/47 108/115/47 109/129/47 112/130/47
f 112/130/47 109/129/47 116/131/47 113/132/47
f 111/55/83 112/56/83 113/57/83 114/58/83
f 110/128/20 111/127/20 114/133/20 115/134/20
f 109/123/84 110/124/84 115/125/84 116/126/84
f 116/135/85 115/136/85 118/137/85 117/138/85
f 115/131/20 114/132/20 119/139/20 118/140/20
f 113/132/59 116/131/59 117/140/59 120/139/59
f 117/55/86 118/56/86 119/57/86 120/58/86
f 120/55/87 119/56/87 122/57/87 121/58/87
f 113/132/88 120/139/88 121/141/88 124/142/88
f 119/143/89 114/133/89 123/144/89 122/145/89
f 114/146/90 113/147/90 124/148/90 123/149/90
f 123/65/91 124/66/91 121/67/91 122/68/91
f 90/65/72 89/66/72 126/67/72 125/68/72
f 71/75/92 90/92/92 125/150/92 123/144/92
f 89/91/35 72/76/35 124/142/35 126/151/35
f 72/152/93 71/153/93 123/154/93 124/155/93
f 126/151/94 124/142/94 121/141/94 127/156/94
f 123/144/95 125/150/95 128/157/95 122/145/95
f 125/65/96 126/66/96 127/67/96 128/68/96
f 127/156/22 121/141/22 132/158/22 130/159/22
f 122/145/20 128/157/20 129/160/20 131/161/20
f 128/162/97 127/163/97 130/164/97 129/165/97
f 121/99/98 122/100/98 131/101/98 132/102/98
f 132/55/99 131/56/99 129/57/99 130/58/99
f 133/166/100 143/167/100 144/168/100 134/169/100
f 134/166/101 144/167/101 145/168/101 135/169/101
f 135/166/102 145/167/102 146/168/102 136/169/102
f 136/166/103 146/167/103 147/168/103 137/169/103
f 137/166/104 147/167/104 148/168/104 138/169/104
f 138/166/105 148/167/105 149/168/105 139/169/105
f 139/166/106 149/167/106 150/168/106 140/169/106
f 140/166/107 150/167/107 151/168/107 141/169/107
f 141/166/108 151/167/108 152/168/108 142/169/108
f 142/166/109 152/167/109 143/168/109 133/169/109
f 133/166/110 134/167/110 154/168/110 153/169/110
f 134/166/111 135/167/111 155/168/111 154/169/111
f 135/166/112 136/167/112 156/168/112 155/169/112
f 136/166/113 137/167/113 157/168/113 156/169/113
f 137/166/114 138/167/114 158/168/114 157/169/114
f 138/166/115 139/167/115 159/168/115 158/169/115
f 139/166/116 140/167/116 160/168/116 159/169/116
f 140/166/117 141/167/117 161/168/117 160/169/117
f 141/166/118 142/167/118 162/168/118 161/169/118
f 142/166/119 133/167/119 153/168/119 162/169/119
f 153/166/120 154/167/120 163/168/120 164/169/120
f 154/166/106 155/167/106 165/168/106 163/169/106
f 155/166/107 156/167/107 166/168/107 165/169/107
f 156/166/121 157/167/121 167/168/121 166/169/121
f 157/166/122 158/167/122 168/168/122 167/169/122
f 158/166/123 159/167/123 169/168/123 168/169/123
f 159/166/124 160/167/124 170/168/124 169/169/124
f 160/166/125 161/167/125 171/168/125 170/169/125
f 161/166/126 162/167/126 172/168/126 171/169/126
f 162/166/127 153/167/127 164/168/127 172/169/127
f 175/170/128 176/171/128 173/172/128 174/173/128
f 177/170/129 180/171/129 179/172/129 178/173/129
f 173/170/130 177/171/130 178/172/130 174/173/130
f 174/170/17 178/171/17 179/172/17 175/173/17
f 175/174/131 179/175/131 180/176/131 176/177/131
f 176/170/132 180/171/132 177/172/132 173/173/132
