# Blender v2.59 (sub 0) OBJ File: 'pistol.blend'
# www.blender.org
mtllib pistol_000018.mtl
o Cube.003
v -0.144164 0.142283 0.601276
v -0.140956 0.147711 0.680217
v -0.185070 0.159035 0.681231
v -0.188278 0.153607 0.602290
v -0.097299 0.225662 0.593638
v -0.094091 0.231090 0.672579
v -0.188547 0.231956 0.676358
v -0.191755 0.226528 0.597417
v -0.226081 0.103463 0.621648
v -0.224034 0.106927 0.672023
v -0.192910 0.085812 0.672210
v -0.194957 0.082348 0.621835
vn 0.006391 0.997606 -0.068855
vn 0.871667 -0.490095 -0.001722
vn 0.040507 0.068542 0.996826
vn -0.998049 -0.044669 0.043628
vn -0.040507 -0.068542 -0.996826
vn -0.800093 0.599813 -0.008731
vn -0.119292 -0.252208 -0.960292
vn 0.765052 -0.643833 0.013181
vn -0.039950 -0.117952 0.992215
vn -0.559948 -0.824708 0.079461
usemtl Material.001
s off
f 5//1 8//1 7//1 6//1
f 1//2 5//2 6//2 2//2
f 2//3 6//3 7//3 3//3
f 3//4 7//4 8//4 4//4
f 5//5 1//5 4//5 8//5
f 3//6 4//6 9//6 10//6
f 4//7 1//7 12//7 9//7
f 1//8 2//8 11//8 12//8
f 2//9 3//9 10//9 11//9
f 12//10 11//10 10//10 9//10
o Cube.002
v 0.204068 -0.259700 0.589000
v 0.207942 -0.253101 0.688182
v 0.034224 -0.292966 0.697618
v 0.030350 -0.299564 0.598436
v 0.090357 0.229178 0.560916
v 0.094230 0.235776 0.660098
v -0.079488 0.195912 0.669534
v -0.083361 0.189313 0.570352
vn 0.226196 -0.972479 0.055864
vn -0.226196 0.972479 -0.055864
vn 0.973303 0.223351 -0.052868
vn 0.038936 0.066332 0.997038
vn -0.973303 -0.223351 0.052868
vn -0.038936 -0.066331 -0.997038
usemtl Material.002
s off
f 13//11 14//11 15//11 16//11
f 17//12 20//12 19//12 18//12
f 13//13 17//13 18//13 14//13
f 14//14 18//14 19//14 15//14
f 15//15 19//15 20//15 16//15
f 17//16 13//16 16//16 20//16
o Cube.001
v 0.197100 0.261966 0.549101
v 0.202833 0.271729 0.692097
v -0.776613 0.279141 0.730856
v -0.782346 0.269378 0.587860
v 0.197637 0.372488 0.541534
v 0.203370 0.382251 0.684530
v -0.776076 0.389663 0.723289
v -0.781809 0.379899 0.580293
v -0.693787 0.393269 0.640627
v -0.687923 0.382162 0.641151
v -0.735497 0.381784 0.643084
v -0.721879 0.393481 0.641739
v -0.693215 0.394242 0.654878
v -0.687352 0.383135 0.655401
v -0.734926 0.382757 0.657334
v -0.721307 0.394454 0.655990
v 0.158166 0.405341 0.625896
v 0.166454 0.375791 0.627581
v 0.112571 0.376199 0.629713
v 0.119657 0.405632 0.627420
v 0.158548 0.405992 0.635432
v 0.166836 0.376442 0.637118
v 0.112953 0.376850 0.639250
v 0.120039 0.406283 0.636956
v 0.118664 0.403942 0.602656
v 0.111578 0.374508 0.604950
v 0.165461 0.374100 0.602818
v 0.157173 0.403650 0.601132
v 0.118282 0.403290 0.593119
v 0.111196 0.373857 0.595413
v 0.165079 0.373449 0.593281
v 0.156791 0.402999 0.591596
vt 0.981492 0.700396
vt 0.981492 0.559075
vt 0.015757 0.559075
vt 0.015757 0.700396
vt 0.256982 0.028856
vt 0.256982 0.201167
vt 0.033870 0.201167
vt 0.033870 0.028856
vt 0.970962 0.782064
vt 0.970962 0.890592
vt 0.010662 0.890592
vt 0.010662 0.782064
vt 0.016806 0.783088
vt 0.016806 0.891616
vt 0.029279 0.489607
vt 0.029280 0.383592
vt 0.967338 0.383592
vt 0.967338 0.489607
vt 0.925445 0.487516
vt 0.912457 0.498835
vt 0.885552 0.498835
vt 0.879885 0.488225
vt 0.094387 0.900039
vt 0.066845 0.900039
vt 0.053548 0.888452
vt 0.100189 0.889177
vt 0.884250 0.887914
vt 0.891057 0.916869
vt 0.928814 0.916869
vt 0.937080 0.887914
vt 0.125150 0.242886
vt 0.110271 0.242886
vt 0.110271 0.196916
vt 0.125150 0.196916
vt 0.107333 0.515275
vt 0.070451 0.515275
vt 0.113983 0.486992
vt 0.062377 0.486992
vt 0.178668 0.242886
vt 0.163788 0.242886
vt 0.163788 0.196916
vt 0.178668 0.196916
vn -0.004846 -0.997652 0.068309
vn 0.004847 0.997652 -0.068309
vn 0.999189 -0.007561 -0.039540
vn 0.039964 0.068063 0.996880
vn -0.999189 0.007561 0.039540
vn -0.039964 -0.068062 -0.996880
vn -0.039964 -0.068061 -0.996880
vn 0.039964 0.068061 0.996880
vn 0.883619 0.463380 -0.067061
vn 0.010689 -0.997649 0.067687
vn -0.652804 0.757097 -0.025522
vn 0.004846 0.997652 -0.068310
vn -0.039964 -0.068063 -0.996880
vn 0.039964 0.068064 0.996880
vn 0.962131 0.266609 -0.056774
vn -0.004847 -0.997652 0.068311
vn -0.971558 0.235694 0.022856
vn 0.004847 0.997652 -0.068311
vn 0.962131 0.266608 -0.056774
usemtl _pistol-2_Cube.001-k.t
s off
f 21/1/17 22/2/17 23/3/17 24/4/17
f 25/1/18 28/4/18 27/3/18 26/2/18
f 21/5/19 25/6/19 26/7/19 22/8/19
f 22/9/20 26/10/20 27/11/20 23/12/20
f 23/13/21 27/14/21 28/14/21 24/13/21
f 25/15/22 21/16/22 24/17/22 28/18/22
f 31/19/23 32/20/23 29/21/23 30/22/23
f 33/23/24 36/24/24 35/25/24 34/26/24
f 29/21/25 33/21/25 34/22/25 30/22/25
f 30/22/26 34/22/26 35/19/26 31/19/26
f 31/19/27 35/19/27 36/20/27 32/20/27
f 32/20/28 36/20/28 33/21/28 29/21/28
f 39/27/29 40/28/29 37/29/29 38/30/29
f 41/29/30 44/28/30 43/27/30 42/30/30
f 37/31/31 41/32/31 42/33/31 38/34/31
f 38/30/32 42/30/32 43/27/32 39/27/32
f 39/27/33 43/27/33 44/28/33 40/28/33
f 40/28/34 44/28/34 41/29/34 37/29/34
f 49/35/18 45/35/18 48/36/18 52/36/18
f 50/37/33 46/37/33 45/35/33 49/35/33
f 51/38/32 47/38/32 46/37/32 50/37/32
f 52/39/35 48/40/35 47/41/35 51/42/35
f 48/29/20 45/28/20 46/27/20 47/30/20
f 50/37/29 49/35/29 52/36/29 51/38/29
o Cube
v 0.250661 -0.207586 0.584902
v 0.255563 -0.199238 0.707185
v 0.051492 -0.223824 0.717044
v 0.046589 -0.232173 0.594761
v 0.114257 0.086604 0.570284
v 0.119159 0.094953 0.692567
v -0.062108 0.095716 0.699782
v -0.067010 0.087367 0.577499
v -0.108508 0.087209 0.578893
v -0.103583 0.095596 0.701732
v 0.005018 -0.247420 0.597189
v 0.009943 -0.239033 0.720028
v 0.152995 0.095181 0.687936
v 0.148353 0.087274 0.572130
v 0.293003 -0.175492 0.700804
v 0.288361 -0.183399 0.584998
v 0.118230 0.193998 0.566051
v 0.122872 0.201905 0.681857
v -0.152898 0.202465 0.696413
v -0.157822 0.194078 0.573574
v -0.116324 0.194236 0.572179
v -0.111422 0.202585 0.694462
v 0.069844 0.201822 0.687248
v 0.064942 0.193473 0.564964
v 0.314907 -0.253938 0.601942
v 0.318499 -0.247821 0.691527
v 0.035406 -0.311416 0.709955
v 0.031597 -0.317904 0.614930
v 0.073165 -0.302662 0.612439
v 0.076958 -0.296203 0.707034
v 0.281029 -0.271617 0.697175
v 0.277237 -0.278075 0.602579
v 0.063590 0.275705 0.559404
v 0.068492 0.284054 0.681687
v -0.112775 0.284817 0.688902
v -0.117677 0.276468 0.566619
v -0.159175 0.276310 0.568013
v -0.154251 0.284697 0.690853
v 0.121520 0.284136 0.676297
v 0.116877 0.276230 0.560491
v 0.142977 0.276272 0.559442
v 0.147620 0.284179 0.675248
v 0.148973 0.201947 0.680808
v 0.144330 0.194040 0.565002
v 0.190858 0.216151 0.561627
v 0.195501 0.224058 0.677433
v 0.194041 0.284254 0.673382
v 0.189398 0.276347 0.557576
v 0.209461 0.276404 0.556768
v 0.214103 0.284310 0.672574
v 0.215622 0.236134 0.675802
v 0.210979 0.228227 0.559996
v -0.153410 0.085917 0.616421
v -0.151325 0.089467 0.668426
v -0.131707 0.064960 0.669312
v -0.133792 0.061409 0.617308
v -0.201801 0.038674 0.621586
v -0.199716 0.042225 0.673591
v -0.201996 0.073480 0.671548
v -0.204081 0.069929 0.619544
v -0.365448 0.076790 0.625544
v -0.363363 0.080341 0.677549
v -0.361083 0.049086 0.679592
v -0.363168 0.045535 0.627587
v -0.404531 0.041705 0.629507
v -0.402447 0.045256 0.681511
v -0.404726 0.076511 0.679469
v -0.406811 0.072960 0.627464
v -0.397053 0.195591 0.583061
v -0.392128 0.203978 0.705900
v -0.359130 0.204686 0.704529
v -0.364054 0.196299 0.581690
v -0.360620 0.284364 0.699149
v -0.365545 0.275977 0.576309
v -0.398342 0.275898 0.577630
v -0.393417 0.284285 0.700469
v -0.752865 0.284591 0.714858
v -0.757789 0.276205 0.592019
v -0.751575 0.204285 0.720289
v -0.756500 0.195898 0.597450
v -0.786572 0.352850 0.625751
v -0.787062 0.329324 0.617857
v -0.787055 0.304185 0.622853
v -0.786552 0.287034 0.638832
v -0.785747 0.284423 0.659691
v -0.784946 0.297348 0.677461
v -0.784455 0.320873 0.685356
v -0.784463 0.346012 0.680359
v -0.784965 0.363163 0.664380
v -0.785771 0.365775 0.643521
v -0.468002 0.350439 0.613145
v -0.468493 0.326914 0.605250
v -0.468485 0.301774 0.610247
v -0.467983 0.284623 0.626226
v -0.467177 0.282012 0.647084
v -0.466376 0.294937 0.664855
v -0.465886 0.318462 0.672749
v -0.465893 0.343602 0.667753
v -0.466396 0.360753 0.651773
v -0.467201 0.363364 0.630915
v -0.786277 0.342799 0.635115
v -0.786590 0.327794 0.630079
v -0.786586 0.311759 0.633266
v -0.786265 0.300820 0.643459
v -0.785751 0.299154 0.656763
v -0.785240 0.307398 0.668098
v -0.784927 0.322403 0.673133
v -0.784932 0.338438 0.669946
v -0.785253 0.349378 0.659754
v -0.785767 0.351044 0.646449
v -0.609127 0.326451 0.623057
v -0.608814 0.341456 0.628092
v -0.609123 0.310416 0.626244
v -0.608802 0.299477 0.636436
v -0.608288 0.297811 0.649740
v -0.607777 0.306055 0.661075
v -0.607464 0.321061 0.666111
v -0.607469 0.337095 0.662924
v -0.607790 0.348035 0.652731
v -0.608303 0.349701 0.639427
v 0.930041 -0.015161 0.065668
v 0.929955 -0.257243 0.138903
v -0.020348 -0.229575 0.475563
v -0.159820 0.135950 0.456198
v 0.944641 0.009703 0.429843
v 0.944554 -0.232379 0.503077
v -0.005749 -0.204711 0.839738
v -0.145221 0.160814 0.820373
vt 0.927200 0.246707
vt 0.827427 0.459240
vt 0.696213 0.458799
vt 0.779567 0.227763
vt 0.193673 0.133961
vt 0.387467 0.042986
vt 0.404740 0.177602
vt 0.194075 0.253606
vt 0.415015 0.204984
vt 0.194375 0.280989
vt 0.666182 0.458471
vt 0.749536 0.216495
vt 0.333858 0.810420
vt 0.482548 0.810420
vt 0.482548 0.959111
vt 0.333858 0.959111
vt 0.954311 0.264288
vt 0.852013 0.459752
vt -0.727496 0.474897
vt -0.701703 0.474897
vt -0.701703 0.500689
vt -0.727496 0.500689
vt -1.408821 0.790398
vt -1.364616 0.790398
vt -1.364616 0.834602
vt -1.408821 0.834602
vt 0.193206 0.111543
vt 0.123273 0.166853
vt 0.122807 0.131768
vt 0.829833 0.536959
vt 0.791355 0.536447
vt 0.660140 0.536006
vt 0.630110 0.535678
vt 0.123975 0.313881
vt 0.123676 0.286498
vt 0.371435 0.018265
vt 0.418527 0.000861
vt 0.434558 0.025582
vt 0.946287 0.195062
vt 0.973398 0.212643
vt 0.768623 0.164850
vt 0.798654 0.176118
vt 0.451832 0.160198
vt 0.462106 0.187580
vt 0.069323 0.287655
vt 0.068921 0.168010
vt 0.790086 0.596056
vt 0.658872 0.595615
vt 0.069622 0.315037
vt 0.628841 0.595287
vt 0.828564 0.596568
vt 0.068454 0.132924
vt 0.068295 0.115698
vt 0.122648 0.114541
vt 0.848726 0.537133
vt 0.847457 0.596742
vt 0.296481 0.778563
vt 0.465802 0.778563
vt 0.465802 0.947884
vt 0.296481 0.947884
vt 0.882328 0.553418
vt 0.881059 0.597051
vt 0.108976 0.116494
vt 0.054623 0.117651
vt 0.054341 0.087011
vt 0.094127 0.085854
vt 0.107799 0.083901
vt 0.068013 0.085058
vt 0.067876 0.071816
vt 0.099715 0.070660
vt 0.896850 0.562283
vt 0.895581 0.597202
vt 0.213162 0.298524
vt 0.197060 0.311551
vt 0.632665 0.455526
vt 0.646952 0.437867
vt 0.000000 0.000000
vt 1.000000 0.000000
vt 1.000000 1.000000
vt 0.000000 1.000000
vt 0.309848 0.788364
vt 0.475308 0.788364
vt 0.475308 0.953824
vt 0.309848 0.953824
vt 0.596042 0.443658
vt 0.597803 0.421011
vt 0.228531 0.343339
vt 0.207881 0.344944
vt 0.224803 0.449870
vt 0.204153 0.451475
vt 0.479211 0.447746
vt 0.480971 0.425100
vt 0.314329 0.792844
vt 0.470828 0.792844
vt 0.470828 0.949343
vt 0.314329 0.949343
vt 0.206892 0.478764
vt 0.227542 0.477159
vt 0.124172 0.471787
vt 0.123539 0.450009
vt 0.449283 0.444743
vt 0.480819 0.536156
vt 0.456935 0.535462
vt 0.306798 0.789219
vt 0.474452 0.789219
vt 0.474452 0.956874
vt 0.306798 0.956874
vt 0.479459 0.593913
vt 0.070875 0.451248
vt 0.302167 0.788495
vt 0.479083 0.788495
vt 0.479083 0.965412
vt 0.302167 0.965412
vt 0.071091 0.472895
vt 0.455719 0.593675
vt 0.125767 0.709036
vt 0.072686 0.710145
vt 0.195528 0.591926
vt 0.196743 0.533713
vt 0.336313 0.795297
vt 0.444937 0.795297
vt 0.444937 0.903921
vt 0.336313 0.903921
vt 0.038819 0.761475
vt 0.258057 0.761475
vt 0.258057 0.980713
vt 0.038819 0.980713
vt 0.543634 0.830499
vt 0.640937 0.830499
vt 0.640937 0.927802
vt 0.543634 0.927802
vt 0.538555 0.806133
vt 0.633320 0.806133
vt 0.633320 0.900898
vt 0.538555 0.900898
vn 0.039964 0.068062 0.996880
vn -0.033668 -0.065897 -0.997258
vn 0.046258 0.070225 0.996458
vn -0.946288 -0.317777 0.059632
vn 0.117127 0.105366 0.987512
vn 0.037498 -0.030252 -0.998839
vn 0.887524 0.455908 -0.066707
vn 0.034075 -0.040618 -0.998594
vn 0.961684 0.268197 -0.056863
vn 0.113752 0.095081 0.988949
vn 0.046655 0.071125 0.996376
vn -0.033269 -0.064996 -0.997331
vn 0.938911 0.338753 -0.060768
vn 0.117830 -0.194676 -0.973765
vn 0.196101 -0.061374 0.978661
vn -0.938911 -0.338753 0.060768
vn 0.106782 -0.099673 0.989274
vn 0.028160 -0.233575 -0.971931
vn 0.061798 -0.115365 0.991399
vn -0.016765 -0.249165 -0.968316
vn 0.122365 -0.990501 0.062721
vn 0.346483 -0.936719 0.050065
vn 0.539588 -0.841168 0.035799
vn -0.033251 -0.067969 -0.997133
vn 0.046673 0.068153 0.996583
vn 0.100785 0.068769 0.992529
vn 0.021006 -0.067103 -0.997525
vn 0.001486 0.997672 -0.068176
vn -0.006070 0.997675 -0.067873
vn -0.008446 0.997665 -0.067777
vn -0.004344 0.997680 -0.067943
vn -0.039962 -0.068062 -0.996880
vn 0.004343 -0.997680 0.067943
vn 0.431412 -0.901070 0.044226
vn 0.039963 0.068062 0.996880
vn -0.005548 0.997677 -0.067894
vn 0.516491 -0.855462 0.037702
vn 0.998707 0.028661 -0.041993
vn -0.595605 -0.346739 -0.724588
vn -0.998837 -0.024229 0.041696
vn -0.534082 -0.241960 0.810069
vn 0.727150 -0.686250 0.017703
vn 0.319552 -0.946153 0.051789
vn -0.303426 0.951391 -0.052793
vn -0.039964 -0.068064 -0.996880
vn 0.039788 0.996778 -0.069651
vn -0.039788 -0.996778 0.069651
vn 0.094951 -0.993421 0.064020
vn -0.996560 -0.069771 0.044715
vn -0.995246 0.091386 0.033659
vn -0.020745 -0.341534 -0.939640
vn 0.056050 -0.210748 0.975932
vn 0.998936 -0.025701 -0.038292
vn -0.024181 0.997451 -0.067132
vn -0.004343 0.997680 -0.067943
vn -0.008049 -0.997623 0.068436
vn -0.005135 0.997678 -0.067911
vn -0.001872 0.997681 -0.068042
vn 0.001872 -0.997681 0.068042
vn -0.999073 -0.013267 0.040958
vn -0.035073 0.318607 -0.947238
vn -0.040256 -0.194798 -0.980017
vn -0.034076 -0.681815 -0.730731
vn -0.012406 -0.992236 -0.123752
vn 0.017132 -0.808954 0.587622
vn 0.035073 -0.318607 0.947238
vn 0.040256 0.194798 0.980017
vn 0.034076 0.681815 0.730731
vn 0.012406 0.992236 0.123752
vn -0.017132 0.808953 -0.587623
vn -0.999190 0.007564 0.039536
vn -0.999190 0.007560 0.039536
vn -0.999190 0.007557 0.039537
vn -0.999189 0.007557 0.039539
vn -0.999189 0.007560 0.039541
vn -0.999189 0.007560 0.039542
vn -0.999189 0.007563 0.039544
vn -0.999189 0.007563 0.039543
vn -0.999189 0.007566 0.039540
vn -0.999189 0.007567 0.039536
vn 0.035073 -0.318608 0.947238
vn 0.034076 0.681816 0.730730
vn 0.012406 0.992235 0.123754
vn -0.017132 0.808954 -0.587623
vn -0.035073 0.318609 -0.947237
vn -0.040256 -0.194799 -0.980017
vn -0.034076 -0.681814 -0.730732
vn -0.012406 -0.992235 -0.123753
vn -0.344566 -0.218194 -0.913053
vn 0.344566 0.218193 0.913053
vn 0.999156 -0.012222 -0.039221
vn -0.004847 -0.997652 0.068309
vn -0.933608 -0.352973 0.061527
vn 0.111572 0.991134 -0.072143
usemtl Material_pistol_Cube-k.tga
s off
f 54/43/36 58/44/36 59/45/36 55/46/36
f 57/47/22 53/48/22 56/49/22 60/50/22
f 60/50/37 56/49/37 63/51/37 61/52/37
f 55/46/38 59/45/38 62/53/38 64/54/38
f 64/55/39 62/56/39 61/57/39 63/58/39
f 58/44/40 54/43/40 67/59/40 65/60/40
f 53/61/41 57/62/41 66/63/41 68/64/41
f 68/65/42 66/66/42 65/67/42 67/68/42
f 66/69/43 57/47/43 76/70/43 69/71/43
f 65/55/44 66/56/44 69/57/44 70/58/44
f 58/44/45 65/60/45 70/72/45 75/73/45
f 62/53/46 59/45/46 74/74/46 71/75/46
f 60/50/47 61/52/47 72/76/47 73/77/47
f 59/45/36 58/44/36 75/73/36 74/74/36
f 57/47/22 60/50/22 73/77/22 76/70/22
f 68/55/48 67/56/48 78/57/48 77/58/48
f 53/48/49 68/78/49 77/79/49 84/80/49
f 67/59/50 54/43/50 83/81/50 78/82/50
f 64/55/51 63/56/51 80/57/51 79/58/51
f 55/46/52 64/54/52 79/83/52 82/84/52
f 63/51/53 56/49/53 81/85/53 80/86/53
f 54/43/54 55/46/54 82/84/54 83/81/54
f 56/49/55 53/48/55 84/80/55 81/85/55
f 84/55/56 83/56/56 82/57/56 81/58/56
f 81/55/57 82/56/57 79/57/57 80/58/57
f 83/55/58 84/56/58 77/57/58 78/58/58
f 76/70/22 73/77/22 88/87/22 85/88/22
f 74/74/20 75/73/20 86/89/20 87/90/20
f 73/77/59 72/76/59 89/91/59 88/87/59
f 71/75/60 74/74/60 87/90/60 90/92/60
f 75/73/61 70/72/61 91/93/61 86/89/61
f 69/71/62 76/70/62 85/88/62 92/94/62
f 85/65/63 88/66/63 87/67/63 86/68/63
f 87/65/64 88/66/64 89/67/64 90/68/64
f 85/65/65 86/66/65 91/67/65 92/68/65
f 92/65/66 91/66/66 94/67/66 93/68/66
f 69/71/67 92/94/67 93/95/67 96/96/67
f 91/93/36 70/72/36 95/97/36 94/98/36
f 70/99/68 69/100/68 96/101/68 95/102/68
f 95/55/69 96/56/69 97/57/69 98/58/69
f 94/98/70 95/97/70 98/103/70 99/104/70
f 96/105/22 93/106/22 100/107/22 97/108/22
f 93/65/66 94/66/66 99/67/66 100/68/66
f 100/65/71 99/66/71 102/67/71 101/68/71
f 97/109/22 100/110/22 101/111/22 104/112/22
f 99/104/36 98/103/36 103/113/36 102/114/36
f 98/55/72 97/56/72 104/57/72 103/58/72
f 103/55/73 104/56/73 101/57/73 102/58/73
f 72/76/74 61/52/74 108/115/74 105/116/74
f 71/55/75 72/56/75 105/57/75 106/58/75
f 62/53/76 71/75/76 106/117/76 107/118/76
f 61/119/77 62/120/77 107/121/77 108/122/77
f 108/123/78 107/124/78 110/125/78 109/126/78
f 107/118/36 106/117/36 111/127/36 110/128/36
f 106/55/79 105/56/79 112/57/79 111/58/79
f 105/116/80 108/115/80 109/129/80 112/130/80
f 112/130/80 109/129/80 116/131/80 113/132/80
f 111/55/81 112/56/81 113/57/81 114/58/81
f 110/128/36 111/127/36 114/133/36 115/134/36
f 109/123/82 110/124/82 115/125/82 116/126/82
f 116/135/83 115/136/83 118/137/83 117/138/83
f 115/131/36 114/132/36 119/139/36 118/140/36
f 113/132/29 116/131/29 117/140/29 120/139/29
f 117/55/84 118/56/84 119/57/84 120/58/84
f 120/55/85 119/56/85 122/57/85 121/58/85
f 113/132/86 120/139/86 121/141/86 124/142/86
f 119/143/87 114/133/87 123/144/87 122/145/87
f 114/146/88 113/147/88 124/148/88 123/149/88
f 123/65/89 124/66/89 121/67/89 122/68/89
f 90/65/90 89/66/90 126/67/90 125/68/90
f 71/75/36 90/92/36 125/150/36 123/144/36
f 89/91/22 72/76/22 124/142/22 126/151/22
f 72/152/91 71/153/91 123/154/91 124/155/91
f 126/151/22 124/142/22 121/141/22 127/156/22
f 123/144/36 125/150/36 128/157/36 122/145/36
f 125/65/92 126/66/92 127/67/92 128/68/92
f 127/156/22 121/141/22 132/158/22 130/159/22
f 122/145/36 128/157/36 129/160/36 131/161/36
f 128/162/93 127/163/93 130/164/93 129/165/93
f 121/99/94 122/100/94 131/101/94 132/102/94
f 132/55/95 131/56/95 129/57/95 130/58/95
f 133/166/96 143/167/96 144/168/96 134/169/96
f 134/166/97 144/167/97 145/168/97 135/169/97
f 135/166/98 145/167/98 146/168/98 136/169/98
f 136/166/99 146/167/99 147/168/99 137/169/99
f 137/166/100 147/167/100 148/168/100 138/169/100
f 138/166/101 148/167/101 149/168/101 139/169/101
f 139/166/102 149/167/102 150/168/102 140/169/102
f 140/166/103 150/167/103 151/168/103 141/169/103
f 141/166/104 151/167/104 152/168/104 142/169/104
f 142/166/105 152/167/105 143/168/105 133/169/105
f 133/166/106 134/167/106 154/168/106 153/169/106
f 134/166/107 135/167/107 155/168/107 154/169/107
f 135/166/108 136/167/108 156/168/108 155/169/108
f 136/166/109 137/167/109 157/168/109 156/169/109
f 137/166/110 138/167/110 158/168/110 157/169/110
f 138/166/111 139/167/111 159/168/111 158/169/111
f 139/166/112 140/167/112 160/168/112 159/169/112
f 140/166/113 141/167/113 161/168/113 160/169/113
f 141/166/114 142/167/114 162/168/114 161/169/114
f 142/166/115 133/167/115 153/168/115 162/169/115
f 153/166/116 154/167/116 163/168/116 164/169/116
f 154/166/102 155/167/102 165/168/102 163/169/102
f 155/166/117 156/167/117 166/168/117 165/169/117
f 156/166/118 157/167/118 167/168/118 166/169/118
f 157/166/119 158/167/119 168/168/119 167/169/119
f 158/166/120 159/167/120 169/168/120 168/169/120
f 159/166/121 160/167/121 170/168/121 169/169/121
f 160/166/122 161/167/122 171/168/122 170/169/122
f 161/166/123 162/167/123 172/168/123 171/169/123
f 162/166/100 153/167/100 164/168/100 172/169/100
f 175/170/124 176/171/124 173/172/124 174/173/124
f 177/170/125 180/171/125 179/172/125 178/173/125
f 173/170/126 177/171/126 178/172/126 174/173/126
f 174/170/127 178/171/127 179/172/127 175/173/127
f 175/174/128 179/175/128 180/176/128 176/177/128
f 176/170/129 180/171/129 177/172/129 173/173/129
