# Blender v2.59 (sub 0) OBJ File: 'pistol.blend'
# www.blender.org
mtllib pistol_000025.mtl
o Cube.003
v -0.120565 0.164050 0.730418
v -0.091972 0.216619 0.782287
v -0.134341 0.230626 0.791446
v -0.162934 0.178058 0.739577
v -0.091179 0.219606 0.657913
v -0.062586 0.272175 0.709782
v -0.149478 0.284907 0.744778
v -0.178070 0.232338 0.692909
v -0.184640 0.154739 0.797051
v -0.166393 0.188285 0.830151
v -0.134350 0.168712 0.832324
v -0.152596 0.135166 0.799224
vn -0.157518 0.735676 -0.658763
vn 0.880821 -0.473414 -0.005756
vn 0.361056 0.663809 0.654978
vn -0.909309 0.094797 0.405180
vn -0.361056 -0.663809 -0.654978
vn -0.833056 0.545250 -0.093381
vn -0.396418 -0.776553 -0.489712
vn 0.808084 -0.573263 0.135537
vn 0.310792 0.523666 0.793210
vn -0.379195 -0.537163 0.753437
usemtl Material.001
s off
f 5//1 8//1 7//1 6//1
f 1//2 5//2 6//2 2//2
f 2//3 6//3 7//3 3//3
f 3//4 7//4 8//4 4//4
f 5//5 1//5 4//5 8//5
f 3//6 4//6 9//6 10//6
f 4//7 1//7 12//7 9//7
f 1//8 2//8 11//8 12//8
f 2//9 3//9 10//9 11//9
f 12//10 11//10 10//10 9//10
o Cube.002
v 0.630441 -0.691119 1.269785
v 0.666613 -0.622586 1.332157
v 0.520805 -0.638224 1.433900
v 0.484633 -0.706758 1.371528
v 0.405394 -0.329418 1.002866
v 0.441565 -0.260884 1.065238
v 0.295757 -0.276523 1.166981
v 0.259586 -0.345057 1.104608
vn 0.447666 -0.719499 0.530958
vn -0.447666 0.719499 -0.530958
vn 0.816930 0.087622 -0.570042
vn 0.363621 0.688944 0.627006
vn -0.816930 -0.087622 0.570042
vn -0.363622 -0.688944 -0.627006
usemtl Material.002
s off
f 13//11 14//11 15//11 16//11
f 17//12 20//12 19//12 18//12
f 13//13 17//13 18//13 14//13
f 14//14 18//14 19//14 15//14
f 15//15 19//15 20//15 16//15
f 17//16 13//16 16//16 20//16
o Cube.001
v 0.158818 0.213272 0.490937
v 0.209047 0.305801 0.588362
v -0.687330 0.382586 0.977572
v -0.737558 0.290057 0.880147
v 0.136338 0.297479 0.422552
v 0.186567 0.390008 0.519977
v -0.709810 0.466792 0.909187
v -0.760038 0.374264 0.811762
v -0.661231 0.416553 0.815733
v -0.653566 0.407661 0.820226
v -0.696952 0.410828 0.839586
v -0.686941 0.418755 0.826896
v -0.656226 0.425774 0.825442
v -0.648560 0.416882 0.829935
v -0.691946 0.420049 0.849296
v -0.681935 0.427976 0.836606
v 0.121232 0.375910 0.480643
v 0.134945 0.352784 0.495537
v 0.085632 0.357008 0.516949
v 0.085989 0.378929 0.495946
v 0.124582 0.382081 0.487141
v 0.138295 0.358955 0.502035
v 0.088982 0.363179 0.523447
v 0.089339 0.385100 0.502443
v 0.077291 0.362906 0.479074
v 0.076934 0.340984 0.500078
v 0.126247 0.336760 0.478666
v 0.112534 0.359887 0.463772
v 0.073941 0.356735 0.472577
v 0.073584 0.334813 0.493580
v 0.122897 0.330589 0.472168
v 0.109184 0.353716 0.457274
vt 0.981492 0.700396
vt 0.981492 0.559075
vt 0.015757 0.559075
vt 0.015757 0.700396
vt 0.256982 0.028856
vt 0.256982 0.201167
vt 0.033870 0.201167
vt 0.033870 0.028856
vt 0.970962 0.782064
vt 0.970962 0.890592
vt 0.010662 0.890592
vt 0.010662 0.782064
vt 0.016806 0.783088
vt 0.016806 0.891616
vt 0.029279 0.489607
vt 0.029280 0.383592
vt 0.967338 0.383592
vt 0.967338 0.489607
vt 0.925445 0.487516
vt 0.912457 0.498835
vt 0.885552 0.498835
vt 0.879885 0.488225
vt 0.094387 0.900039
vt 0.066845 0.900039
vt 0.053548 0.888452
vt 0.100189 0.889177
vt 0.884250 0.887914
vt 0.891057 0.916869
vt 0.928814 0.916869
vt 0.937080 0.887914
vt 0.125150 0.242886
vt 0.110271 0.242886
vt 0.110271 0.196916
vt 0.125150 0.196916
vt 0.107333 0.515275
vt 0.070451 0.515275
vt 0.113983 0.486992
vt 0.062377 0.486992
vt 0.178668 0.242886
vt 0.163788 0.242886
vt 0.163788 0.196916
vt 0.178668 0.196916
vn 0.202919 -0.760114 0.617293
vn -0.202919 0.760113 -0.617294
vn 0.914446 -0.078332 -0.397056
vn 0.350162 0.645052 0.679187
vn -0.914446 0.078332 0.397056
vn -0.350162 -0.645051 -0.679187
vn -0.350161 -0.645052 -0.679187
vn 0.710979 0.289039 -0.641066
vn 0.217112 -0.761240 0.611046
vn -0.753762 0.624513 -0.204515
vn 0.823606 0.133346 -0.551263
vn 0.202919 -0.760113 0.617294
vn -0.936616 0.250221 0.245236
vn -0.202919 0.760114 -0.617294
vn 0.202920 -0.760112 0.617295
vn 0.823607 0.133346 -0.551263
vn 0.350161 0.645052 0.679187
vn -0.350162 -0.645052 -0.679187
usemtl _pistol-2_Cube.001-k.t
s off
f 21/1/17 22/2/17 23/3/17 24/4/17
f 25/1/18 28/4/18 27/3/18 26/2/18
f 21/5/19 25/6/19 26/7/19 22/8/19
f 22/9/20 26/10/20 27/11/20 23/12/20
f 23/13/21 27/14/21 28/14/21 24/13/21
f 25/15/22 21/16/22 24/17/22 28/18/22
f 31/19/23 32/20/23 29/21/23 30/22/23
f 33/23/20 36/24/20 35/25/20 34/26/20
f 29/21/24 33/21/24 34/22/24 30/22/24
f 30/22/25 34/22/25 35/19/25 31/19/25
f 31/19/26 35/19/26 36/20/26 32/20/26
f 32/20/18 36/20/18 33/21/18 29/21/18
f 39/27/22 40/28/22 37/29/22 38/30/22
f 41/29/20 44/28/20 43/27/20 42/30/20
f 37/31/27 41/32/27 42/33/27 38/34/27
f 38/30/28 42/30/28 43/27/28 39/27/28
f 39/27/29 43/27/29 44/28/29 40/28/29
f 40/28/30 44/28/30 41/29/30 37/29/30
f 49/35/18 45/35/18 48/36/18 52/36/18
f 50/37/29 46/37/29 45/35/29 49/35/29
f 51/38/31 47/38/31 46/37/31 50/37/31
f 52/39/32 48/40/32 47/41/32 51/42/32
f 48/29/33 45/28/33 46/27/33 47/30/33
f 50/37/34 49/35/34 52/36/34 51/38/34
o Cube
v 0.311608 -0.140554 0.770725
v 0.354561 -0.061427 0.854036
v 0.173229 -0.065346 0.951248
v 0.130276 -0.144474 0.867936
v 0.125842 0.093598 0.644108
v 0.168795 0.172725 0.727420
v 0.003029 0.186472 0.799827
v -0.039924 0.107344 0.716516
v -0.077896 0.110072 0.733091
v -0.034748 0.189559 0.816782
v 0.095374 -0.153243 0.893848
v 0.138522 -0.073756 0.977539
v 0.198596 0.168505 0.711280
v 0.157919 0.093569 0.632382
v 0.382767 -0.047983 0.821942
v 0.342089 -0.122919 0.743043
v 0.108217 0.177106 0.578665
v 0.148894 0.252042 0.657564
v -0.102013 0.274601 0.770691
v -0.145161 0.195114 0.687001
v -0.107190 0.192386 0.670425
v -0.064237 0.271513 0.753737
v 0.101529 0.257767 0.681330
v 0.058576 0.178640 0.598018
v 0.385314 -0.170775 0.785575
v 0.416782 -0.112806 0.846609
v 0.172257 -0.139095 1.001663
v 0.138879 -0.200584 0.936922
v 0.173759 -0.191856 0.910967
v 0.206986 -0.130645 0.975415
v 0.388318 -0.126725 0.878204
v 0.355091 -0.187936 0.813756
v 0.040249 0.241419 0.547841
v 0.083202 0.320546 0.631153
v -0.082564 0.334293 0.703560
v -0.125517 0.255165 0.620248
v -0.163489 0.257893 0.636824
v -0.120341 0.337380 0.720515
v 0.130567 0.314821 0.607387
v 0.089889 0.239885 0.528488
v 0.113726 0.238022 0.517968
v 0.154403 0.312958 0.596867
v 0.172731 0.250179 0.647044
v 0.132053 0.175243 0.568145
v 0.169966 0.188718 0.535801
v 0.210644 0.263654 0.614699
v 0.196799 0.309644 0.578157
v 0.156121 0.234708 0.499259
v 0.174439 0.233294 0.491158
v 0.215116 0.308230 0.570056
v 0.226517 0.271397 0.599161
v 0.185839 0.196461 0.520262
v -0.107004 0.133525 0.778134
v -0.088737 0.167177 0.813564
v -0.065720 0.147071 0.820793
v -0.083987 0.113420 0.785362
v -0.141396 0.101030 0.826728
v -0.123129 0.134681 0.862159
v -0.131708 0.158671 0.843798
v -0.149975 0.125019 0.808367
v -0.298828 0.141968 0.869012
v -0.280561 0.175620 0.904443
v -0.271982 0.151630 0.922805
v -0.290249 0.117979 0.887374
v -0.327243 0.118064 0.906366
v -0.308976 0.151715 0.941797
v -0.317555 0.175705 0.923436
v -0.335822 0.142053 0.888005
v -0.364040 0.213642 0.782250
v -0.320892 0.293129 0.865940
v -0.290891 0.291272 0.852237
v -0.334039 0.211785 0.768546
v -0.308814 0.352114 0.803691
v -0.351962 0.272627 0.720000
v -0.381909 0.274949 0.733235
v -0.338761 0.354436 0.816925
v -0.667221 0.380775 0.961251
v -0.710369 0.301288 0.877561
v -0.649352 0.319469 1.010266
v -0.692500 0.239982 0.926576
v -0.740239 0.384270 0.869647
v -0.738909 0.360716 0.877358
v -0.732605 0.343503 0.895272
v -0.723736 0.339204 0.916546
v -0.715688 0.349463 0.933055
v -0.711537 0.370360 0.938493
v -0.712868 0.393914 0.930782
v -0.719172 0.411127 0.912868
v -0.728041 0.415426 0.891594
v -0.736088 0.405167 0.875085
v -0.448689 0.359295 0.743054
v -0.447358 0.335741 0.750764
v -0.441055 0.318528 0.768678
v -0.432185 0.314230 0.789953
v -0.424138 0.324489 0.806462
v -0.419987 0.345386 0.811899
v -0.421317 0.368939 0.804189
v -0.427621 0.386153 0.786275
v -0.436491 0.390451 0.765000
v -0.444538 0.380192 0.748491
v -0.735042 0.381751 0.882114
v -0.734193 0.366728 0.887032
v -0.730173 0.355748 0.898458
v -0.724515 0.353007 0.912028
v -0.719382 0.359550 0.922558
v -0.716735 0.372879 0.926026
v -0.717583 0.387903 0.921108
v -0.721604 0.398882 0.909682
v -0.727261 0.401624 0.896112
v -0.732394 0.395080 0.885582
v -0.571782 0.352815 0.816511
v -0.572630 0.367839 0.811593
v -0.567761 0.341836 0.827938
v -0.562104 0.339094 0.841507
v -0.556971 0.345638 0.852037
v -0.554323 0.358967 0.855506
v -0.555172 0.373990 0.850588
v -0.559192 0.384970 0.839161
v -0.564850 0.387711 0.825592
v -0.569982 0.381168 0.815061
v 0.735827 -0.327772 0.026966
v 0.804592 -0.478597 0.217990
v 0.028812 -0.209952 0.803803
v -0.174583 0.078798 0.634420
v 0.863746 -0.092121 0.275079
v 0.932511 -0.242946 0.466103
v 0.156730 0.025699 1.051916
v -0.046665 0.314448 0.882533
vt 0.927200 0.246707
vt 0.827427 0.459240
vt 0.696213 0.458799
vt 0.779567 0.227763
vt 0.193673 0.133961
vt 0.387467 0.042986
vt 0.404740 0.177602
vt 0.194075 0.253606
vt 0.415015 0.204984
vt 0.194375 0.280989
vt 0.666182 0.458471
vt 0.749536 0.216495
vt 0.333858 0.810420
vt 0.482548 0.810420
vt 0.482548 0.959111
vt 0.333858 0.959111
vt 0.954311 0.264288
vt 0.852013 0.459752
vt -0.727496 0.474897
vt -0.701703 0.474897
vt -0.701703 0.500689
vt -0.727496 0.500689
vt -1.408821 0.790398
vt -1.364616 0.790398
vt -1.364616 0.834602
vt -1.408821 0.834602
vt 0.193206 0.111543
vt 0.123273 0.166853
vt 0.122807 0.131768
vt 0.829833 0.536959
vt 0.791355 0.536447
vt 0.660140 0.536006
vt 0.630110 0.535678
vt 0.123975 0.313881
vt 0.123676 0.286498
vt 0.371435 0.018265
vt 0.418527 0.000861
vt 0.434558 0.025582
vt 0.946287 0.195062
vt 0.973398 0.212643
vt 0.768623 0.164850
vt 0.798654 0.176118
vt 0.451832 0.160198
vt 0.462106 0.187580
vt 0.069323 0.287655
vt 0.068921 0.168010
vt 0.790086 0.596056
vt 0.658872 0.595615
vt 0.069622 0.315037
vt 0.628841 0.595287
vt 0.828564 0.596568
vt 0.068454 0.132924
vt 0.068295 0.115698
vt 0.122648 0.114541
vt 0.848726 0.537133
vt 0.847457 0.596742
vt 0.296481 0.778563
vt 0.465802 0.778563
vt 0.465802 0.947884
vt 0.296481 0.947884
vt 0.882328 0.553418
vt 0.881059 0.597051
vt 0.108976 0.116494
vt 0.054623 0.117651
vt 0.054341 0.087011
vt 0.094127 0.085854
vt 0.107799 0.083901
vt 0.068013 0.085058
vt 0.067876 0.071816
vt 0.099715 0.070660
vt 0.896850 0.562283
vt 0.895581 0.597202
vt 0.213162 0.298524
vt 0.197060 0.311551
vt 0.632665 0.455526
vt 0.646952 0.437867
vt 0.000000 0.000000
vt 1.000000 0.000000
vt 1.000000 1.000000
vt 0.000000 1.000000
vt 0.309848 0.788364
vt 0.475308 0.788364
vt 0.475308 0.953824
vt 0.309848 0.953824
vt 0.596042 0.443658
vt 0.597803 0.421011
vt 0.228531 0.343339
vt 0.207881 0.344944
vt 0.224803 0.449870
vt 0.204153 0.451475
vt 0.479211 0.447746
vt 0.480971 0.425100
vt 0.314329 0.792844
vt 0.470828 0.792844
vt 0.470828 0.949343
vt 0.314329 0.949343
vt 0.206892 0.478764
vt 0.227542 0.477159
vt 0.124172 0.471787
vt 0.123539 0.450009
vt 0.449283 0.444743
vt 0.480819 0.536156
vt 0.456935 0.535462
vt 0.306798 0.789219
vt 0.474452 0.789219
vt 0.474452 0.956874
vt 0.306798 0.956874
vt 0.479459 0.593913
vt 0.070875 0.451248
vt 0.302167 0.788495
vt 0.479083 0.788495
vt 0.479083 0.965412
vt 0.302167 0.965412
vt 0.071091 0.472895
vt 0.455719 0.593675
vt 0.125767 0.709036
vt 0.072686 0.710145
vt 0.195528 0.591926
vt 0.196743 0.533713
vt 0.336313 0.795297
vt 0.444937 0.795297
vt 0.444937 0.903921
vt 0.336313 0.903921
vt 0.038819 0.761475
vt 0.258057 0.761475
vt 0.258057 0.980713
vt 0.038819 0.980713
vt 0.543634 0.830499
vt 0.640937 0.830499
vt 0.640937 0.927802
vt 0.543634 0.927802
vt 0.538555 0.806133
vt 0.633320 0.806133
vt 0.633320 0.900898
vt 0.538555 0.900898
vn 0.350160 0.645063 0.679177
vn -0.350161 -0.645063 -0.679177
vn -0.344851 -0.643857 -0.683027
vn 0.355454 0.646241 0.675296
vn -0.798494 -0.173498 0.576459
vn 0.411687 0.665678 0.622404
vn -0.286030 -0.619653 -0.730901
vn 0.716097 0.283055 -0.638032
vn -0.287199 -0.627662 -0.723572
vn 0.822865 0.134588 -0.552068
vn 0.410937 0.658440 0.630545
vn 0.355628 0.646896 0.674577
vn -0.344673 -0.643196 -0.683740
vn 0.787394 0.190022 -0.586432
vn -0.172886 -0.740676 -0.649238
vn 0.512916 0.522704 0.680954
vn -0.787394 -0.190023 0.586432
vn 0.440716 0.502622 0.743734
vn -0.248169 -0.766438 -0.592439
vn 0.402635 0.493482 0.770948
vn -0.285727 -0.774614 -0.564210
vn 0.317662 -0.763892 0.561747
vn 0.511241 -0.739174 0.438469
vn 0.667804 -0.680365 0.301895
vn -0.350160 -0.645063 -0.679177
vn 0.350160 0.645064 0.679177
vn -0.344040 -0.645466 -0.681916
vn 0.356264 0.644631 0.676407
vn 0.404971 0.640076 0.652917
vn -0.294047 -0.647652 -0.702911
vn -0.206001 0.760363 -0.615965
vn -0.212905 0.760914 -0.612928
vn -0.215073 0.761078 -0.611967
vn -0.211329 0.760792 -0.613625
vn -0.350160 -0.645064 -0.679177
vn 0.350161 0.645063 0.679177
vn 0.211328 -0.760792 0.613625
vn 0.581424 -0.718168 0.382335
vn -0.211328 0.760792 -0.613626
vn -0.212429 0.760877 -0.613139
vn 0.649675 -0.689583 0.319997
vn 0.906475 -0.050687 -0.419206
vn -0.724399 -0.679867 -0.114132
vn -0.907515 0.054074 0.416525
vn -0.185342 0.313181 0.931432
vn 0.806966 -0.575902 0.130932
vn 0.488598 -0.744408 0.455115
vn -0.474954 0.747230 -0.464829
vn -0.350161 -0.645064 -0.679176
vn -0.170821 0.756899 -0.630813
vn 0.170821 -0.756899 0.630813
vn 0.293223 -0.764126 0.574571
vn -0.895970 0.019196 0.443700
vn -0.928264 0.141941 0.343770
vn -0.262906 -0.831536 -0.489315
vn 0.409949 0.407997 0.815769
vn 0.917983 -0.092141 -0.385769
vn -0.229404 0.762058 -0.605509
vn -0.211328 0.760792 -0.613625
vn 0.199995 -0.759849 0.618573
vn -0.212052 0.760848 -0.613306
vn -0.209070 0.760613 -0.614620
vn 0.209071 -0.760613 0.614620
vn -0.910009 0.062448 0.409859
vn -0.401146 -0.305379 -0.863612
vn -0.321407 -0.736775 -0.594862
vn -0.143864 -0.979928 -0.138003
vn 0.132156 -0.869514 0.475900
vn 0.357982 -0.301097 0.883849
vn 0.401146 0.305380 0.863612
vn 0.321407 0.736775 0.594862
vn 0.143864 0.979928 0.138003
vn -0.132156 0.869514 -0.475900
vn -0.357982 0.301096 -0.883849
vn -0.914446 0.078331 0.397055
vn -0.914446 0.078330 0.397055
vn -0.914445 0.078327 0.397059
vn -0.914444 0.078327 0.397061
vn -0.914442 0.078331 0.397063
vn -0.914442 0.078335 0.397064
vn -0.914443 0.078336 0.397061
vn -0.914444 0.078335 0.397059
vn -0.914445 0.078335 0.397056
vn -0.914446 0.078334 0.397055
vn 0.401146 0.305378 0.863612
vn 0.321407 0.736773 0.594863
vn 0.143864 0.979928 0.138002
vn -0.132155 0.869515 -0.475898
vn -0.357982 0.301095 -0.883850
vn -0.401146 -0.305378 -0.863612
vn -0.321407 -0.736774 -0.594862
vn -0.143865 -0.979927 -0.138005
vn 0.132155 -0.869515 0.475899
vn 0.357982 -0.301096 0.883850
vn -0.577193 -0.700912 -0.419011
vn 0.577193 0.700912 0.419011
vn 0.915382 -0.081882 -0.394170
vn 0.202926 -0.760104 0.617303
vn -0.779594 -0.201246 0.593071
vn -0.104066 0.747384 -0.656192
usemtl Material_pistol_Cube-k.tga
s off
f 54/43/35 58/44/35 59/45/35 55/46/35
f 57/47/36 53/48/36 56/49/36 60/50/36
f 60/50/37 56/49/37 63/51/37 61/52/37
f 55/46/38 59/45/38 62/53/38 64/54/38
f 64/55/39 62/56/39 61/57/39 63/58/39
f 58/44/40 54/43/40 67/59/40 65/60/40
f 53/61/41 57/62/41 66/63/41 68/64/41
f 68/65/42 66/66/42 65/67/42 67/68/42
f 66/69/43 57/47/43 76/70/43 69/71/43
f 65/55/44 66/56/44 69/57/44 70/58/44
f 58/44/45 65/60/45 70/72/45 75/73/45
f 62/53/46 59/45/46 74/74/46 71/75/46
f 60/50/47 61/52/47 72/76/47 73/77/47
f 59/45/35 58/44/35 75/73/35 74/74/35
f 57/47/36 60/50/36 73/77/36 76/70/36
f 68/55/48 67/56/48 78/57/48 77/58/48
f 53/48/49 68/78/49 77/79/49 84/80/49
f 67/59/50 54/43/50 83/81/50 78/82/50
f 64/55/51 63/56/51 80/57/51 79/58/51
f 55/46/52 64/54/52 79/83/52 82/84/52
f 63/51/53 56/49/53 81/85/53 80/86/53
f 54/43/54 55/46/54 82/84/54 83/81/54
f 56/49/55 53/48/55 84/80/55 81/85/55
f 84/55/56 83/56/56 82/57/56 81/58/56
f 81/55/57 82/56/57 79/57/57 80/58/57
f 83/55/58 84/56/58 77/57/58 78/58/58
f 76/70/59 73/77/59 88/87/59 85/88/59
f 74/74/60 75/73/60 86/89/60 87/90/60
f 73/77/61 72/76/61 89/91/61 88/87/61
f 71/75/62 74/74/62 87/90/62 90/92/62
f 75/73/63 70/72/63 91/93/63 86/89/63
f 69/71/64 76/70/64 85/88/64 92/94/64
f 85/65/65 88/66/65 87/67/65 86/68/65
f 87/65/66 88/66/66 89/67/66 90/68/66
f 85/65/67 86/66/67 91/67/67 92/68/67
f 92/65/68 91/66/68 94/67/68 93/68/68
f 69/71/69 92/94/69 93/95/69 96/96/69
f 91/93/70 70/72/70 95/97/70 94/98/70
f 70/99/71 69/100/71 96/101/71 95/102/71
f 95/55/72 96/56/72 97/57/72 98/58/72
f 94/98/35 95/97/35 98/103/35 99/104/35
f 96/105/59 93/106/59 100/107/59 97/108/59
f 93/65/73 94/66/73 99/67/73 100/68/73
f 100/65/74 99/66/74 102/67/74 101/68/74
f 97/109/59 100/110/59 101/111/59 104/112/59
f 99/104/35 98/103/35 103/113/35 102/114/35
f 98/55/75 97/56/75 104/57/75 103/58/75
f 103/55/76 104/56/76 101/57/76 102/58/76
f 72/76/77 61/52/77 108/115/77 105/116/77
f 71/55/78 72/56/78 105/57/78 106/58/78
f 62/53/79 71/75/79 106/117/79 107/118/79
f 61/119/80 62/120/80 107/121/80 108/122/80
f 108/123/81 107/124/81 110/125/81 109/126/81
f 107/118/70 106/117/70 111/127/70 110/128/70
f 106/55/82 105/56/82 112/57/82 111/58/82
f 105/116/59 108/115/59 109/129/59 112/130/59
f 112/130/83 109/129/83 116/131/83 113/132/83
f 111/55/84 112/56/84 113/57/84 114/58/84
f 110/128/70 111/127/70 114/133/70 115/134/70
f 109/123/85 110/124/85 115/125/85 116/126/85
f 116/135/86 115/136/86 118/137/86 117/138/86
f 115/131/35 114/132/35 119/139/35 118/140/35
f 113/132/59 116/131/59 117/140/59 120/139/59
f 117/55/87 118/56/87 119/57/87 120/58/87
f 120/55/88 119/56/88 122/57/88 121/58/88
f 113/132/89 120/139/89 121/141/89 124/142/89
f 119/143/90 114/133/90 123/144/90 122/145/90
f 114/146/91 113/147/91 124/148/91 123/149/91
f 123/65/92 124/66/92 121/67/92 122/68/92
f 90/65/93 89/66/93 126/67/93 125/68/93
f 71/75/70 90/92/70 125/150/70 123/144/70
f 89/91/59 72/76/59 124/142/59 126/151/59
f 72/152/94 71/153/94 123/154/94 124/155/94
f 126/151/36 124/142/36 121/141/36 127/156/36
f 123/144/35 125/150/35 128/157/35 122/145/35
f 125/65/95 126/66/95 127/67/95 128/68/95
f 127/156/36 121/141/36 132/158/36 130/159/36
f 122/145/70 128/157/70 129/160/70 131/161/70
f 128/162/96 127/163/96 130/164/96 129/165/96
f 121/99/97 122/100/97 131/101/97 132/102/97
f 132/55/98 131/56/98 129/57/98 130/58/98
f 133/166/99 143/167/99 144/168/99 134/169/99
f 134/166/100 144/167/100 145/168/100 135/169/100
f 135/166/101 145/167/101 146/168/101 136/169/101
f 136/166/102 146/167/102 147/168/102 137/169/102
f 137/166/103 147/167/103 148/168/103 138/169/103
f 138/166/104 148/167/104 149/168/104 139/169/104
f 139/166/105 149/167/105 150/168/105 140/169/105
f 140/166/106 150/167/106 151/168/106 141/169/106
f 141/166/107 151/167/107 152/168/107 142/169/107
f 142/166/108 152/167/108 143/168/108 133/169/108
f 133/166/109 134/167/109 154/168/109 153/169/109
f 134/166/110 135/167/110 155/168/110 154/169/110
f 135/166/111 136/167/111 156/168/111 155/169/111
f 136/166/112 137/167/112 157/168/112 156/169/112
f 137/166/113 138/167/113 158/168/113 157/169/113
f 138/166/114 139/167/114 159/168/114 158/169/114
f 139/166/115 140/167/115 160/168/115 159/169/115
f 140/166/116 141/167/116 161/168/116 160/169/116
f 141/166/117 142/167/117 162/168/117 161/169/117
f 142/166/118 133/167/118 153/168/118 162/169/118
f 153/166/119 154/167/119 163/168/119 164/169/119
f 154/166/120 155/167/120 165/168/120 163/169/120
f 155/166/121 156/167/121 166/168/121 165/169/121
f 156/166/122 157/167/122 167/168/122 166/169/122
f 157/166/123 158/167/123 168/168/123 167/169/123
f 158/166/124 159/167/124 169/168/124 168/169/124
f 159/166/125 160/167/125 170/168/125 169/169/125
f 160/166/126 161/167/126 171/168/126 170/169/126
f 161/166/127 162/167/127 172/168/127 171/169/127
f 162/166/128 153/167/128 164/168/128 172/169/128
f 175/170/129 176/171/129 173/172/129 174/173/129
f 177/170/130 180/171/130 179/172/130 178/173/130
f 173/170/131 177/171/131 178/172/131 174/173/131
f 174/170/132 178/171/132 179/172/132 175/173/132
f 175/174/133 179/175/133 180/176/133 176/177/133
f 176/170/134 180/171/134 177/172/134 173/173/134
