# Blender3D v249 OBJ File: 
# www.blender3d.org
mtllib 6.mtl
v 0.050000 0.716000 0.050000
v 0.138000 0.716000 0.050000
v 0.138000 0.599000 0.050000
v 0.115000 0.462000 0.050000
v 0.073000 0.462000 0.050000
v 0.050000 0.599000 0.050000
v 0.050000 0.716000 -0.050000
v 0.138000 0.716000 -0.050000
v 0.138000 0.599000 -0.050000
v 0.115000 0.462000 -0.050000
v 0.073000 0.462000 -0.050000
v 0.050000 0.599000 -0.050000
v 0.050000 0.716000 -0.050000
v 0.050000 0.716000 0.050000
v 0.138000 0.716000 -0.050000
v 0.138000 0.716000 0.050000
v 0.138000 0.599000 -0.050000
v 0.138000 0.599000 0.050000
v 0.115000 0.462000 -0.050000
v 0.115000 0.462000 0.050000
v 0.073000 0.462000 -0.050000
v 0.073000 0.462000 0.050000
v 0.050000 0.599000 -0.050000
v 0.050000 0.599000 0.050000
vn 0.000000 0.000000 1.000000
vn 0.000000 1.000000 0.000000
vn 1.000000 0.000000 0.000000
vn 0.986199 -0.165566 0.000000
vn 0.000000 -1.000000 0.000000
vn -0.986199 -0.165566 0.000000
vn -1.000000 0.000000 0.000000
usemtl (null)
s off
f 2//1 1//1 6//1
f 6//1 3//1 2//1
f 5//1 3//1 6//1
f 5//1 4//1 3//1
f 12//1 8//1 7//1
f 12//1 9//1 8//1
f 11//1 9//1 12//1
f 11//1 10//1 9//1
f 14//2 16//2 15//2 13//2
f 16//3 18//3 17//3 15//3
f 18//4 20//4 19//4 17//4
f 20//5 22//5 21//5 19//5
f 22//6 24//6 23//6 21//6
f 24//7 14//7 13//7 23//7
