# Blender3D v249 OBJ File: 
# www.blender3d.org
mtllib 7.mtl
v 0.258000 -0.230000 0.050000
v 0.229185 -0.199330 0.050000
v 0.202310 -0.166472 0.050000
v 0.177484 -0.131656 0.050000
v 0.154815 -0.095111 0.050000
v 0.134409 -0.057066 0.050000
v 0.116375 -0.017750 0.050000
v 0.100820 0.022608 0.050000
v 0.087852 0.063778 0.050000
v 0.077578 0.105531 0.050000
v 0.070106 0.147639 0.050000
v 0.065545 0.189872 0.050000
v 0.064000 0.232000 0.050000
v 0.065545 0.274128 0.050000
v 0.070106 0.316361 0.050000
v 0.077578 0.358469 0.050000
v 0.087852 0.400222 0.050000
v 0.100820 0.441392 0.050000
v 0.116375 0.481750 0.050000
v 0.134409 0.521066 0.050000
v 0.154815 0.559111 0.050000
v 0.177484 0.595656 0.050000
v 0.202310 0.630472 0.050000
v 0.229185 0.663330 0.050000
v 0.258000 0.694000 0.050000
v 0.311000 0.694000 0.050000
v 0.287790 0.661267 0.050000
v 0.266653 0.627556 0.050000
v 0.247578 0.592844 0.050000
v 0.230556 0.557111 0.050000
v 0.215575 0.520337 0.050000
v 0.202625 0.482500 0.050000
v 0.191696 0.443580 0.050000
v 0.182778 0.403556 0.050000
v 0.175859 0.362406 0.050000
v 0.170931 0.320111 0.050000
v 0.167981 0.276649 0.050000
v 0.167000 0.232000 0.050000
v 0.167981 0.187351 0.050000
v 0.170931 0.143889 0.050000
v 0.175859 0.101594 0.050000
v 0.182778 0.060444 0.050000
v 0.191696 0.020420 0.050000
v 0.202625 -0.018500 0.050000
v 0.215575 -0.056337 0.050000
v 0.230556 -0.093111 0.050000
v 0.247578 -0.128844 0.050000
v 0.266653 -0.163556 0.050000
v 0.287790 -0.197267 0.050000
v 0.311000 -0.230000 0.050000
v 0.258000 -0.230000 -0.050000
v 0.229185 -0.199330 -0.050000
v 0.202310 -0.166472 -0.050000
v 0.177484 -0.131656 -0.050000
v 0.154815 -0.095111 -0.050000
v 0.134409 -0.057066 -0.050000
v 0.116375 -0.017750 -0.050000
v 0.100820 0.022608 -0.050000
v 0.087852 0.063778 -0.050000
v 0.077578 0.105531 -0.050000
v 0.070106 0.147639 -0.050000
v 0.065545 0.189872 -0.050000
v 0.064000 0.232000 -0.050000
v 0.065545 0.274128 -0.050000
v 0.070106 0.316361 -0.050000
v 0.077578 0.358469 -0.050000
v 0.087852 0.400222 -0.050000
v 0.100820 0.441392 -0.050000
v 0.116375 0.481750 -0.050000
v 0.134409 0.521066 -0.050000
v 0.154815 0.559111 -0.050000
v 0.177484 0.595656 -0.050000
v 0.202310 0.630472 -0.050000
v 0.229185 0.663330 -0.050000
v 0.258000 0.694000 -0.050000
v 0.311000 0.694000 -0.050000
v 0.287790 0.661267 -0.050000
v 0.266653 0.627556 -0.050000
v 0.247578 0.592844 -0.050000
v 0.230556 0.557111 -0.050000
v 0.215575 0.520337 -0.050000
v 0.202625 0.482500 -0.050000
v 0.191696 0.443580 -0.050000
v 0.182778 0.403556 -0.050000
v 0.175859 0.362406 -0.050000
v 0.170931 0.320111 -0.050000
v 0.167981 0.276649 -0.050000
v 0.167000 0.232000 -0.050000
v 0.167981 0.187351 -0.050000
v 0.170931 0.143889 -0.050000
v 0.175859 0.101594 -0.050000
v 0.182778 0.060444 -0.050000
v 0.191696 0.020420 -0.050000
v 0.202625 -0.018500 -0.050000
v 0.215575 -0.056337 -0.050000
v 0.230556 -0.093111 -0.050000
v 0.247578 -0.128844 -0.050000
v 0.266653 -0.163556 -0.050000
v 0.287790 -0.197267 -0.050000
v 0.311000 -0.230000 -0.050000
v 0.258000 -0.230000 -0.050000
v 0.258000 -0.230000 0.050000
v 0.229185 -0.199330 -0.050000
v 0.229185 -0.199330 0.050000
v 0.202310 -0.166472 -0.050000
v 0.202310 -0.166472 0.050000
v 0.177484 -0.131656 -0.050000
v 0.177484 -0.131656 0.050000
v 0.154815 -0.095111 -0.050000
v 0.154815 -0.095111 0.050000
v 0.134409 -0.057066 -0.050000
v 0.134409 -0.057066 0.050000
v 0.116375 -0.017750 -0.050000
v 0.116375 -0.017750 0.050000
v 0.100820 0.022608 -0.050000
v 0.100820 0.022608 0.050000
v 0.087852 0.063778 -0.050000
v 0.087852 0.063778 0.050000
v 0.077578 0.105531 -0.050000
v 0.077578 0.105531 0.050000
v 0.070106 0.147639 -0.050000
v 0.070106 0.147639 0.050000
v 0.065545 0.189872 -0.050000
v 0.065545 0.189872 0.050000
v 0.064000 0.232000 -0.050000
v 0.064000 0.232000 0.050000
v 0.065545 0.274128 -0.050000
v 0.065545 0.274128 0.050000
v 0.070106 0.316361 -0.050000
v 0.070106 0.316361 0.050000
v 0.077578 0.358469 -0.050000
v 0.077578 0.358469 0.050000
v 0.087852 0.400222 -0.050000
v 0.087852 0.400222 0.050000
v 0.100820 0.441392 -0.050000
v 0.100820 0.441392 0.050000
v 0.116375 0.481750 -0.050000
v 0.116375 0.481750 0.050000
v 0.134409 0.521066 -0.050000
v 0.134409 0.521066 0.050000
v 0.154815 0.559111 -0.050000
v 0.154815 0.559111 0.050000
v 0.177484 0.595656 -0.050000
v 0.177484 0.595656 0.050000
v 0.202310 0.630472 -0.050000
v 0.202310 0.630472 0.050000
v 0.229185 0.663330 -0.050000
v 0.229185 0.663330 0.050000
v 0.258000 0.694000 -0.050000
v 0.258000 0.694000 0.050000
v 0.311000 0.694000 -0.050000
v 0.311000 0.694000 0.050000
v 0.287790 0.661267 -0.050000
v 0.287790 0.661267 0.050000
v 0.266653 0.627556 -0.050000
v 0.266653 0.627556 0.050000
v 0.247578 0.592844 -0.050000
v 0.247578 0.592844 0.050000
v 0.230556 0.557111 -0.050000
v 0.230556 0.557111 0.050000
v 0.215575 0.520337 -0.050000
v 0.215575 0.520337 0.050000
v 0.202625 0.482500 -0.050000
v 0.202625 0.482500 0.050000
v 0.191696 0.443580 -0.050000
v 0.191696 0.443580 0.050000
v 0.182778 0.403556 -0.050000
v 0.182778 0.403556 0.050000
v 0.175859 0.362406 -0.050000
v 0.175859 0.362406 0.050000
v 0.170931 0.320111 -0.050000
v 0.170931 0.320111 0.050000
v 0.167981 0.276649 -0.050000
v 0.167981 0.276649 0.050000
v 0.167000 0.232000 -0.050000
v 0.167000 0.232000 0.050000
v 0.167981 0.187351 -0.050000
v 0.167981 0.187351 0.050000
v 0.170931 0.143889 -0.050000
v 0.170931 0.143889 0.050000
v 0.175859 0.101594 -0.050000
v 0.175859 0.101594 0.050000
v 0.182778 0.060444 -0.050000
v 0.182778 0.060444 0.050000
v 0.191696 0.020420 -0.050000
v 0.191696 0.020420 0.050000
v 0.202625 -0.018500 -0.050000
v 0.202625 -0.018500 0.050000
v 0.215575 -0.056337 -0.050000
v 0.215575 -0.056337 0.050000
v 0.230556 -0.093111 -0.050000
v 0.230556 -0.093111 0.050000
v 0.247578 -0.128844 -0.050000
v 0.247578 -0.128844 0.050000
v 0.266653 -0.163556 -0.050000
v 0.266653 -0.163556 0.050000
v 0.287790 -0.197267 -0.050000
v 0.287790 -0.197267 0.050000
v 0.311000 -0.230000 -0.050000
v 0.311000 -0.230000 0.050000
vn 0.000000 0.000000 1.000000
vn -0.728800 -0.684727 0.000000
vn -0.774062 -0.633109 0.000000
vn -0.814206 -0.580576 0.000000
vn -0.849782 -0.527134 0.000000
vn -0.881245 -0.472659 0.000000
vn -0.908939 -0.416928 0.000000
vn -0.933091 -0.359640 0.000000
vn -0.953802 -0.300438 0.000000
vn -0.971037 -0.238930 0.000000
vn -0.984619 -0.174712 0.000000
vn -0.994217 -0.107394 0.000000
vn -0.999329 -0.036638 0.000000
vn -0.999329 0.036638 0.000000
vn -0.994217 0.107394 0.000000
vn -0.984619 0.174712 0.000000
vn -0.971037 0.238930 0.000000
vn -0.953801 0.300438 0.000000
vn -0.933091 0.359640 0.000000
vn -0.908939 0.416928 0.000000
vn -0.881245 0.472660 0.000000
vn -0.849782 0.527134 0.000000
vn -0.814206 0.580576 0.000000
vn -0.774063 0.633109 0.000000
vn -0.728800 0.684727 0.000000
vn 0.000000 1.000000 0.000000
vn 0.815737 -0.578423 0.000000
vn 0.847238 -0.531214 0.000000
vn 0.876395 -0.481593 0.000000
vn 0.902791 -0.430079 0.000000
vn 0.926103 -0.377270 0.000000
vn 0.946122 -0.323810 0.000000
vn 0.962763 -0.270345 0.000000
vn 0.976062 -0.217491 0.000000
vn 0.986159 -0.165802 0.000000
vn 0.993278 -0.115751 0.000000
vn 0.997705 -0.067712 0.000000
vn 0.999759 -0.021964 0.000000
vn 0.999759 0.021964 0.000000
vn 0.997705 0.067712 0.000000
vn 0.993278 0.115751 0.000000
vn 0.986159 0.165802 0.000000
vn 0.976062 0.217491 0.000000
vn 0.962764 0.270345 0.000000
vn 0.946122 0.323811 0.000000
vn 0.926103 0.377270 0.000000
vn 0.902792 0.430078 0.000000
vn 0.876395 0.481592 0.000000
vn 0.847238 0.531214 0.000000
vn 0.815737 0.578423 0.000000
vn 0.000000 -1.000000 0.000000
usemtl (null)
s off
f 24//1 26//1 25//1
f 24//1 27//1 26//1
f 23//1 27//1 24//1
f 23//1 28//1 27//1
f 22//1 28//1 23//1
f 22//1 29//1 28//1
f 21//1 29//1 22//1
f 21//1 30//1 29//1
f 20//1 30//1 21//1
f 20//1 31//1 30//1
f 19//1 31//1 20//1
f 19//1 32//1 31//1
f 19//1 33//1 32//1
f 18//1 33//1 19//1
f 18//1 34//1 33//1
f 17//1 34//1 18//1
f 17//1 35//1 34//1
f 16//1 35//1 17//1
f 16//1 36//1 35//1
f 15//1 36//1 16//1
f 15//1 37//1 36//1
f 14//1 37//1 15//1
f 14//1 38//1 37//1
f 13//1 38//1 14//1
f 12//1 38//1 13//1
f 12//1 39//1 38//1
f 11//1 39//1 12//1
f 11//1 40//1 39//1
f 10//1 40//1 11//1
f 10//1 41//1 40//1
f 9//1 41//1 10//1
f 9//1 42//1 41//1
f 8//1 42//1 9//1
f 8//1 43//1 42//1
f 7//1 43//1 8//1
f 7//1 44//1 43//1
f 6//1 44//1 7//1
f 6//1 45//1 44//1
f 6//1 46//1 45//1
f 5//1 46//1 6//1
f 5//1 47//1 46//1
f 4//1 47//1 5//1
f 4//1 48//1 47//1
f 3//1 48//1 4//1
f 3//1 49//1 48//1
f 2//1 49//1 3//1
f 2//1 50//1 49//1
f 1//1 50//1 2//1
f 74//1 76//1 75//1
f 74//1 77//1 76//1
f 73//1 77//1 74//1
f 73//1 78//1 77//1
f 72//1 78//1 73//1
f 72//1 79//1 78//1
f 71//1 79//1 72//1
f 71//1 80//1 79//1
f 70//1 80//1 71//1
f 70//1 81//1 80//1
f 69//1 81//1 70//1
f 69//1 82//1 81//1
f 69//1 83//1 82//1
f 68//1 83//1 69//1
f 68//1 84//1 83//1
f 67//1 84//1 68//1
f 67//1 85//1 84//1
f 66//1 85//1 67//1
f 66//1 86//1 85//1
f 65//1 86//1 66//1
f 65//1 87//1 86//1
f 64//1 87//1 65//1
f 64//1 88//1 87//1
f 63//1 88//1 64//1
f 62//1 88//1 63//1
f 62//1 89//1 88//1
f 61//1 89//1 62//1
f 61//1 90//1 89//1
f 60//1 90//1 61//1
f 60//1 91//1 90//1
f 59//1 91//1 60//1
f 59//1 92//1 91//1
f 58//1 92//1 59//1
f 58//1 93//1 92//1
f 57//1 93//1 58//1
f 57//1 94//1 93//1
f 56//1 94//1 57//1
f 56//1 95//1 94//1
f 56//1 96//1 95//1
f 55//1 96//1 56//1
f 55//1 97//1 96//1
f 54//1 97//1 55//1
f 54//1 98//1 97//1
f 53//1 98//1 54//1
f 53//1 99//1 98//1
f 52//1 99//1 53//1
f 52//1 100//1 99//1
f 51//1 100//1 52//1
f 102//2 104//2 103//2 101//2
f 104//3 106//3 105//3 103//3
f 106//4 108//4 107//4 105//4
f 108//5 110//5 109//5 107//5
f 110//6 112//6 111//6 109//6
f 112//7 114//7 113//7 111//7
f 114//8 116//8 115//8 113//8
f 116//9 118//9 117//9 115//9
f 118//10 120//10 119//10 117//10
f 120//11 122//11 121//11 119//11
f 122//12 124//12 123//12 121//12
f 124//13 126//13 125//13 123//13
f 126//14 128//14 127//14 125//14
f 128//15 130//15 129//15 127//15
f 130//16 132//16 131//16 129//16
f 132//17 134//17 133//17 131//17
f 134//18 136//18 135//18 133//18
f 136//19 138//19 137//19 135//19
f 138//20 140//20 139//20 137//20
f 140//21 142//21 141//21 139//21
f 142//22 144//22 143//22 141//22
f 144//23 146//23 145//23 143//23
f 146//24 148//24 147//24 145//24
f 148//25 150//25 149//25 147//25
f 150//26 152//26 151//26 149//26
f 152//27 154//27 153//27 151//27
f 154//28 156//28 155//28 153//28
f 156//29 158//29 157//29 155//29
f 158//30 160//30 159//30 157//30
f 160//31 162//31 161//31 159//31
f 162//32 164//32 163//32 161//32
f 164//33 166//33 165//33 163//33
f 166//34 168//34 167//34 165//34
f 168//35 170//35 169//35 167//35
f 170//36 172//36 171//36 169//36
f 172//37 174//37 173//37 171//37
f 174//38 176//38 175//38 173//38
f 176//39 178//39 177//39 175//39
f 178//40 180//40 179//40 177//40
f 180//41 182//41 181//41 179//41
f 182//42 184//42 183//42 181//42
f 184//43 186//43 185//43 183//43
f 186//44 188//44 187//44 185//44
f 188//45 190//45 189//45 187//45
f 190//46 192//46 191//46 189//46
f 192//47 194//47 193//47 191//47
f 194//48 196//48 195//48 193//48
f 196//49 198//49 197//49 195//49
f 198//50 200//50 199//50 197//50
f 200//51 102//51 101//51 199//51
