# Blender3D v249 OBJ File: knife.blend
# www.blender3d.org
mtllib knife_000005.mtl
v -0.168231 -0.145266 -1.374780
v 0.122261 -0.145266 -1.379628
v 0.160717 -0.145266 0.924571
v -0.129775 -0.145266 0.929419
v -0.168231 0.145266 -1.374780
v 0.122261 0.145266 -1.379628
v 0.160717 0.145266 0.924571
v -0.129774 0.145266 0.929419
v -0.169014 0.127986 -1.451492
v -0.033521 -0.175028 -1.218934
v 0.059376 -0.053656 -1.114914
v -0.076118 0.249358 -1.347473
v -0.083043 0.117179 -1.515662
v 0.052451 -0.185834 -1.283103
v 0.145348 -0.064462 -1.179084
v 0.009854 0.238552 -1.411642
v -0.082684 0.327684 -1.433001
v -0.057016 0.324458 -1.452160
v -0.149913 0.203085 -1.556179
v -0.277203 0.762700 -1.766869
v -0.344432 0.638101 -1.890047
v -0.251535 0.759474 -1.786028
v -0.461043 1.036360 -2.086302
vn 0.000000 -1.000000 0.000000
vn -0.000000 1.000000 -0.000000
vn -0.016687 0.000000 -0.999861
vn 0.999861 -0.000000 -0.016687
vn 0.016687 -0.000000 0.999861
vn -0.999861 0.000000 0.016687
vn -0.797348 0.100225 0.595140
vn 0.797348 -0.100225 -0.595140
vn -0.502466 -0.656488 -0.562629
vn 0.334314 -0.747648 0.573808
vn 0.502465 0.656488 0.562629
vn 0.502465 0.656489 0.562629
vn 0.645080 0.148627 -0.749521
vn -0.899605 0.366981 0.236720
vn -0.871722 -0.013875 0.489805
vn 0.797347 -0.100225 -0.595141
vn 0.502464 0.656489 0.562630
vn 0.424791 0.793674 0.435470
vn 0.784869 -0.073396 -0.615300
vn -0.871721 -0.013876 0.489806
usemtl Material
s off
f 1//1 2//1 3//1 4//1
f 5//2 8//2 7//2 6//2
f 1//3 5//3 6//3 2//3
f 2//4 6//4 7//4 3//4
f 3//5 7//5 8//5 4//5
f 5//6 1//6 4//6 8//6
usemtl Material.001
f 11//7 12//7 9//7 10//7
f 13//8 16//8 15//8 14//8
f 9//9 13//9 14//9 10//9
f 10//10 14//10 15//10 11//10
f 11//11 15//11 16//11 12//11
f 12//12 16//12 18//12 17//12
f 13//9 9//9 19//9
f 16//13 13//13 19//13 18//13
f 9//14 12//14 17//14 19//14
usemtl Material.002
f 19//15 17//15 20//15 21//15
f 18//16 19//16 21//16 22//16
f 17//17 18//17 22//17 20//17
f 20//18 22//18 23//18
f 22//19 21//19 23//19
f 21//20 20//20 23//20
