# Blender v2.59 (sub 0) OBJ File: 'pistol.blend'
# www.blender.org
mtllib pistol_000026.mtl
o Cube.003
v -0.126776 0.159697 0.722927
v -0.099398 0.210881 0.776798
v -0.141802 0.225813 0.784161
v -0.169180 0.174629 0.730290
v -0.092685 0.215427 0.652651
v -0.065307 0.266611 0.706521
v -0.153416 0.281038 0.737593
v -0.180794 0.229854 0.683722
v -0.194120 0.151124 0.786360
v -0.176649 0.183787 0.820737
v -0.145223 0.163403 0.824133
v -0.162694 0.130741 0.789756
vn -0.108615 0.747645 -0.655156
vn 0.868473 -0.494897 0.028843
vn 0.345715 0.646325 0.680253
vn -0.924816 0.112058 0.363536
vn -0.345715 -0.646325 -0.680254
vn -0.814383 0.566786 -0.124636
vn -0.391513 -0.760252 -0.518396
vn 0.786789 -0.594707 0.165188
vn 0.285648 0.505722 0.814034
vn -0.427027 -0.537165 0.727394
usemtl Material.001
s off
f 5//1 8//1 7//1 6//1
f 1//2 5//2 6//2 2//2
f 2//3 6//3 7//3 3//3
f 3//4 7//4 8//4 4//4
f 5//5 1//5 4//5 8//5
f 3//6 4//6 9//6 10//6
f 4//7 1//7 12//7 9//7
f 1//8 2//8 11//8 12//8
f 2//9 3//9 10//9 11//9
f 12//10 11//10 10//10 9//10
o Cube.002
v 0.709177 -0.763522 1.326675
v 0.745349 -0.694989 1.389048
v 0.599541 -0.710627 1.490790
v 0.563369 -0.779161 1.428418
v 0.484129 -0.401821 1.059756
v 0.520301 -0.333287 1.122128
v 0.374493 -0.348926 1.223871
v 0.338321 -0.417460 1.161499
vn 0.447666 -0.719499 0.530958
vn -0.447666 0.719499 -0.530958
vn 0.816930 0.087622 -0.570042
vn 0.363621 0.688944 0.627006
vn -0.816930 -0.087622 0.570042
vn -0.363622 -0.688944 -0.627006
usemtl Material.002
s off
f 13//11 14//11 15//11 16//11
f 17//12 20//12 19//12 18//12
f 13//13 17//13 18//13 14//13
f 14//14 18//14 19//14 15//14
f 15//15 19//15 20//15 16//15
f 17//16 13//16 16//16 20//16
o Cube.001
v 0.157917 0.214913 0.495175
v 0.206286 0.302368 0.598073
v -0.700525 0.374154 0.963329
v -0.748894 0.286698 0.860430
v 0.138569 0.302348 0.429956
v 0.186939 0.389803 0.532855
v -0.719872 0.461589 0.898110
v -0.768242 0.374133 0.795212
v -0.669090 0.414855 0.804012
v -0.661674 0.405671 0.808332
v -0.705588 0.408573 0.826508
v -0.695098 0.416914 0.814488
v -0.664269 0.423571 0.814266
v -0.656854 0.414386 0.818587
v -0.700768 0.417289 0.836763
v -0.690278 0.425630 0.824742
v 0.122665 0.378343 0.490997
v 0.135632 0.354399 0.505253
v 0.085745 0.358348 0.525347
v 0.087012 0.381166 0.505358
v 0.125891 0.384176 0.497860
v 0.138858 0.360231 0.512115
v 0.088971 0.364180 0.532210
v 0.090237 0.386998 0.512221
v 0.078635 0.366021 0.487539
v 0.077369 0.343203 0.507528
v 0.127256 0.339253 0.487433
v 0.114288 0.363198 0.473178
v 0.075409 0.360188 0.480676
v 0.074143 0.337370 0.500665
v 0.124030 0.333421 0.480571
v 0.111063 0.357366 0.466316
vt 0.981492 0.700396
vt 0.981492 0.559075
vt 0.015757 0.559075
vt 0.015757 0.700396
vt 0.256982 0.028856
vt 0.256982 0.201167
vt 0.033870 0.201167
vt 0.033870 0.028856
vt 0.970962 0.782064
vt 0.970962 0.890592
vt 0.010662 0.890592
vt 0.010662 0.782064
vt 0.016806 0.783088
vt 0.016806 0.891616
vt 0.029279 0.489607
vt 0.029280 0.383592
vt 0.967338 0.383592
vt 0.967338 0.489607
vt 0.925445 0.487516
vt 0.912457 0.498835
vt 0.885552 0.498835
vt 0.879885 0.488225
vt 0.094387 0.900039
vt 0.066845 0.900039
vt 0.053548 0.888452
vt 0.100189 0.889177
vt 0.884250 0.887914
vt 0.891057 0.916869
vt 0.928814 0.916869
vt 0.937080 0.887914
vt 0.125150 0.242886
vt 0.110271 0.242886
vt 0.110271 0.196916
vt 0.125150 0.196916
vt 0.107333 0.515275
vt 0.070451 0.515275
vt 0.113983 0.486992
vt 0.062377 0.486992
vt 0.178668 0.242886
vt 0.163788 0.242886
vt 0.163788 0.196916
vt 0.178668 0.196916
vn 0.174647 -0.789254 0.588708
vn -0.174647 0.789254 -0.588708
vn 0.925091 -0.073233 -0.372618
vn 0.337203 0.609685 0.717341
vn -0.925091 0.073232 0.372618
vn -0.337203 -0.609684 -0.717341
vn -0.337204 -0.609683 -0.717343
vn 0.337203 0.609686 0.717340
vn 0.733688 0.307270 -0.606042
vn 0.189008 -0.790298 0.582842
vn -0.739441 0.643132 -0.199019
vn -0.337203 -0.609685 -0.717341
vn 0.337204 0.609684 0.717341
vn 0.841604 0.146250 -0.519917
vn 0.174647 -0.789254 0.588707
vn -0.940507 0.251926 0.227989
vn -0.174646 0.789254 -0.588708
vn -0.174647 0.789253 -0.588709
vn 0.174646 -0.789255 0.588706
vn 0.841604 0.146249 -0.519917
vn 0.337204 0.609684 0.717342
usemtl _pistol-2_Cube.001-k.t
s off
f 21/1/17 22/2/17 23/3/17 24/4/17
f 25/1/18 28/4/18 27/3/18 26/2/18
f 21/5/19 25/6/19 26/7/19 22/8/19
f 22/9/20 26/10/20 27/11/20 23/12/20
f 23/13/21 27/14/21 28/14/21 24/13/21
f 25/15/22 21/16/22 24/17/22 28/18/22
f 31/19/23 32/20/23 29/21/23 30/22/23
f 33/23/24 36/24/24 35/25/24 34/26/24
f 29/21/25 33/21/25 34/22/25 30/22/25
f 30/22/26 34/22/26 35/19/26 31/19/26
f 31/19/27 35/19/27 36/20/27 32/20/27
f 32/20/18 36/20/18 33/21/18 29/21/18
f 39/27/28 40/28/28 37/29/28 38/30/28
f 41/29/29 44/28/29 43/27/29 42/30/29
f 37/31/30 41/32/30 42/33/30 38/34/30
f 38/30/31 42/30/31 43/27/31 39/27/31
f 39/27/32 43/27/32 44/28/32 40/28/32
f 40/28/33 44/28/33 41/29/33 37/29/33
f 49/35/34 45/35/34 48/36/34 52/36/34
f 50/37/32 46/37/32 45/35/32 49/35/32
f 51/38/35 47/38/35 46/37/35 50/37/35
f 52/39/36 48/40/36 47/41/36 51/42/36
f 48/29/37 45/28/37 46/27/37 47/30/37
f 50/37/28 49/35/28 52/36/28 51/38/28
o Cube
v 0.306906 -0.146030 0.756424
v 0.348269 -0.071239 0.844414
v 0.164025 -0.076963 0.935890
v 0.122661 -0.151754 0.847900
v 0.127977 0.095978 0.634832
v 0.169340 0.170768 0.722823
v 0.001626 0.183572 0.790780
v -0.039737 0.108781 0.702790
v -0.078160 0.111294 0.718327
v -0.036609 0.186424 0.806718
v 0.086880 -0.161178 0.872342
v 0.128432 -0.086047 0.960732
v 0.199566 0.166857 0.707410
v 0.160394 0.096028 0.624080
v 0.377603 -0.056781 0.813806
v 0.338431 -0.127610 0.730477
v 0.113382 0.182518 0.572664
v 0.152554 0.253347 0.655994
v -0.101388 0.274321 0.762459
v -0.142940 0.199191 0.674068
v -0.104517 0.196678 0.658531
v -0.063154 0.271469 0.746521
v 0.104561 0.258665 0.678564
v 0.063198 0.183874 0.590573
v 0.379749 -0.177877 0.772114
v 0.410052 -0.123085 0.836576
v 0.160611 -0.152838 0.982929
v 0.128468 -0.210958 0.914552
v 0.164227 -0.201572 0.890065
v 0.196225 -0.143715 0.958132
v 0.380470 -0.137992 0.866656
v 0.348472 -0.195848 0.798589
v 0.047181 0.249045 0.542708
v 0.088544 0.323836 0.630699
v -0.079170 0.336640 0.698656
v -0.120534 0.261849 0.610665
v -0.158956 0.264361 0.626203
v -0.117405 0.339492 0.714594
v 0.136537 0.318518 0.608129
v 0.097365 0.247689 0.524799
v 0.121487 0.245966 0.514925
v 0.160659 0.316795 0.598254
v 0.176675 0.251624 0.646119
v 0.137503 0.180795 0.562790
v 0.176547 0.195162 0.532223
v 0.215719 0.265992 0.615553
v 0.203561 0.313730 0.580692
v 0.164389 0.242901 0.497362
v 0.182926 0.241595 0.489758
v 0.222098 0.312424 0.573087
v 0.232152 0.274195 0.600856
v 0.192980 0.203365 0.517526
v -0.108337 0.133136 0.763476
v -0.090746 0.164943 0.800897
v -0.068209 0.144228 0.807911
v -0.085800 0.112421 0.770490
v -0.144590 0.099005 0.809530
v -0.126999 0.130812 0.846950
v -0.134719 0.155701 0.829424
v -0.152310 0.123894 0.792003
v -0.302723 0.140184 0.848864
v -0.285132 0.171991 0.886285
v -0.277412 0.147102 0.903811
v -0.295003 0.115295 0.866390
v -0.332555 0.115048 0.884253
v -0.314964 0.146855 0.921674
v -0.322684 0.171744 0.904147
v -0.340275 0.139937 0.866727
v -0.364375 0.216489 0.763459
v -0.322824 0.291620 0.851849
v -0.292444 0.289959 0.838980
v -0.333996 0.214828 0.750589
v -0.308130 0.353118 0.792669
v -0.349681 0.277987 0.704279
v -0.379987 0.280132 0.716702
v -0.338436 0.355262 0.805093
v -0.670792 0.379697 0.940560
v -0.712344 0.304566 0.852170
v -0.655181 0.316055 0.987317
v -0.696732 0.240924 0.898926
v -0.740937 0.388215 0.847059
v -0.740132 0.364329 0.853752
v -0.734589 0.346259 0.871065
v -0.726426 0.340908 0.892383
v -0.718760 0.350320 0.909564
v -0.714520 0.370899 0.916046
v -0.715325 0.394785 0.909353
v -0.720868 0.412855 0.892041
v -0.729031 0.418206 0.870722
v -0.736697 0.408794 0.853541
v -0.445993 0.364866 0.728256
v -0.445188 0.340980 0.734949
v -0.439645 0.322911 0.752261
v -0.431482 0.317560 0.773580
v -0.423816 0.326971 0.790761
v -0.419576 0.347550 0.797243
v -0.420381 0.371436 0.790550
v -0.425924 0.389506 0.773237
v -0.434088 0.394857 0.751919
v -0.441753 0.385445 0.734737
v -0.736154 0.385079 0.859551
v -0.735640 0.369844 0.863820
v -0.732104 0.358318 0.874863
v -0.726897 0.354905 0.888461
v -0.722008 0.360908 0.899420
v -0.719303 0.374035 0.903554
v -0.719817 0.389270 0.899285
v -0.723353 0.400796 0.888242
v -0.728559 0.404209 0.874645
v -0.733449 0.398206 0.863685
v -0.571338 0.356837 0.797640
v -0.571851 0.372073 0.793370
v -0.567802 0.345312 0.808682
v -0.562595 0.341899 0.822280
v -0.557706 0.347902 0.833239
v -0.555001 0.361028 0.837373
v -0.555515 0.376263 0.833104
v -0.559051 0.387789 0.822062
v -0.564257 0.391202 0.808464
v -0.569147 0.385199 0.797505
v 0.751261 -0.306092 0.018103
v 0.812313 -0.466102 0.204211
v 0.022402 -0.212957 0.777917
v -0.172173 0.085713 0.615518
v 0.874446 -0.083356 0.280149
v 0.935498 -0.243366 0.466258
v 0.145586 0.009780 1.039963
v -0.048988 0.308450 0.877564
vt 0.927200 0.246707
vt 0.827427 0.459240
vt 0.696213 0.458799
vt 0.779567 0.227763
vt 0.193673 0.133961
vt 0.387467 0.042986
vt 0.404740 0.177602
vt 0.194075 0.253606
vt 0.415015 0.204984
vt 0.194375 0.280989
vt 0.666182 0.458471
vt 0.749536 0.216495
vt 0.333858 0.810420
vt 0.482548 0.810420
vt 0.482548 0.959111
vt 0.333858 0.959111
vt 0.954311 0.264288
vt 0.852013 0.459752
vt -0.727496 0.474897
vt -0.701703 0.474897
vt -0.701703 0.500689
vt -0.727496 0.500689
vt -1.408821 0.790398
vt -1.364616 0.790398
vt -1.364616 0.834602
vt -1.408821 0.834602
vt 0.193206 0.111543
vt 0.123273 0.166853
vt 0.122807 0.131768
vt 0.829833 0.536959
vt 0.791355 0.536447
vt 0.660140 0.536006
vt 0.630110 0.535678
vt 0.123975 0.313881
vt 0.123676 0.286498
vt 0.371435 0.018265
vt 0.418527 0.000861
vt 0.434558 0.025582
vt 0.946287 0.195062
vt 0.973398 0.212643
vt 0.768623 0.164850
vt 0.798654 0.176118
vt 0.451832 0.160198
vt 0.462106 0.187580
vt 0.069323 0.287655
vt 0.068921 0.168010
vt 0.790086 0.596056
vt 0.658872 0.595615
vt 0.069622 0.315037
vt 0.628841 0.595287
vt 0.828564 0.596568
vt 0.068454 0.132924
vt 0.068295 0.115698
vt 0.122648 0.114541
vt 0.848726 0.537133
vt 0.847457 0.596742
vt 0.296481 0.778563
vt 0.465802 0.778563
vt 0.465802 0.947884
vt 0.296481 0.947884
vt 0.882328 0.553418
vt 0.881059 0.597051
vt 0.108976 0.116494
vt 0.054623 0.117651
vt 0.054341 0.087011
vt 0.094127 0.085854
vt 0.107799 0.083901
vt 0.068013 0.085058
vt 0.067876 0.071816
vt 0.099715 0.070660
vt 0.896850 0.562283
vt 0.895581 0.597202
vt 0.213162 0.298524
vt 0.197060 0.311551
vt 0.632665 0.455526
vt 0.646952 0.437867
vt 0.000000 0.000000
vt 1.000000 0.000000
vt 1.000000 1.000000
vt 0.000000 1.000000
vt 0.309848 0.788364
vt 0.475308 0.788364
vt 0.475308 0.953824
vt 0.309848 0.953824
vt 0.596042 0.443658
vt 0.597803 0.421011
vt 0.228531 0.343339
vt 0.207881 0.344944
vt 0.224803 0.449870
vt 0.204153 0.451475
vt 0.479211 0.447746
vt 0.480971 0.425100
vt 0.314329 0.792844
vt 0.470828 0.792844
vt 0.470828 0.949343
vt 0.314329 0.949343
vt 0.206892 0.478764
vt 0.227542 0.477159
vt 0.124172 0.471787
vt 0.123539 0.450009
vt 0.449283 0.444743
vt 0.480819 0.536156
vt 0.456935 0.535462
vt 0.306798 0.789219
vt 0.474452 0.789219
vt 0.474452 0.956874
vt 0.306798 0.956874
vt 0.479459 0.593913
vt 0.070875 0.451248
vt 0.302167 0.788495
vt 0.479083 0.788495
vt 0.479083 0.965412
vt 0.302167 0.965412
vt 0.071091 0.472895
vt 0.455719 0.593675
vt 0.125767 0.709036
vt 0.072686 0.710145
vt 0.195528 0.591926
vt 0.196743 0.533713
vt 0.336313 0.795297
vt 0.444937 0.795297
vt 0.444937 0.903921
vt 0.336313 0.903921
vt 0.038819 0.761475
vt 0.258057 0.761475
vt 0.258057 0.980713
vt 0.038819 0.980713
vt 0.543634 0.830499
vt 0.640937 0.830499
vt 0.640937 0.927802
vt 0.543634 0.927802
vt 0.538555 0.806133
vt 0.633320 0.806133
vt 0.633320 0.900898
vt 0.538555 0.900898
vn 0.337202 0.609712 0.717319
vn -0.337202 -0.609712 -0.717319
vn -0.331763 -0.608410 -0.720951
vn 0.342625 0.610987 0.713654
vn -0.817763 -0.187806 0.544052
vn 0.400679 0.631965 0.663382
vn -0.271219 -0.582926 -0.765923
vn 0.738633 0.301080 -0.603136
vn -0.272709 -0.591233 -0.758994
vn 0.840899 0.147532 -0.520695
vn 0.399592 0.624387 0.671168
vn 0.342829 0.611670 0.712971
vn -0.331556 -0.607720 -0.721628
vn 0.807176 0.204903 -0.553608
vn -0.162111 -0.708956 -0.686368
vn 0.498312 0.485186 0.718526
vn -0.807176 -0.204904 0.553608
vn 0.423991 0.463347 0.778166
vn -0.239401 -0.736166 -0.633046
vn 0.384989 0.453538 0.803796
vn -0.277900 -0.745063 -0.606344
vn 0.290983 -0.792135 0.536518
vn 0.488518 -0.764655 0.420302
vn 0.649882 -0.702031 0.291216
vn -0.331006 -0.610077 -0.719889
vn 0.343381 0.609319 0.714716
vn 0.392723 0.605139 0.692514
vn -0.280428 -0.612018 -0.739456
vn -0.177773 0.789474 -0.587475
vn -0.184759 0.789986 -0.584625
vn -0.186954 0.790137 -0.583722
vn -0.183165 0.789873 -0.585279
vn 0.183163 -0.789873 0.585280
vn 0.560632 -0.742157 0.367279
vn -0.183163 0.789873 -0.585280
vn -0.184276 0.789952 -0.584824
vn 0.337201 0.609712 0.717319
vn 0.631096 -0.711789 0.308342
vn 0.918138 -0.044533 -0.393751
vn -0.728886 -0.664251 -0.165820
vn -0.919053 0.048049 0.391194
vn -0.209778 0.274376 0.938462
vn 0.795462 -0.592049 0.129299
vn 0.465315 -0.770308 0.436014
vn 0.337202 0.609712 0.717318
vn -0.451348 0.773368 -0.445182
vn -0.142203 0.786188 -0.601404
vn 0.142203 -0.786189 0.601403
vn 0.266163 -0.792601 0.548581
vn -0.908772 0.011854 0.417125
vn -0.936495 0.139308 0.321824
vn -0.258073 -0.805532 -0.533401
vn 0.389882 0.366071 0.844976
vn 0.928111 -0.087572 -0.361858
vn -0.201462 0.791027 -0.577659
vn -0.183163 0.789873 -0.585279
vn 0.171697 -0.788994 0.589923
vn -0.183895 0.789925 -0.584980
vn -0.180879 0.789707 -0.586213
vn 0.180879 -0.789707 0.586213
vn -0.921240 0.056741 0.384834
vn -0.378365 -0.261574 -0.887930
vn -0.312161 -0.705429 -0.636338
vn -0.151625 -0.970852 -0.185623
vn 0.106895 -0.891338 0.440556
vn 0.327153 -0.344558 0.879915
vn 0.378365 0.261576 0.887929
vn 0.312161 0.705428 0.636339
vn 0.151624 0.970852 0.185622
vn -0.106894 0.891338 -0.440556
vn -0.327153 0.344557 -0.879915
vn -0.925089 0.073232 0.372621
vn -0.925089 0.073231 0.372622
vn -0.925087 0.073230 0.372627
vn -0.925088 0.073231 0.372625
vn -0.925087 0.073231 0.372627
vn -0.925085 0.073235 0.372631
vn -0.925085 0.073238 0.372630
vn -0.925088 0.073237 0.372625
vn -0.925088 0.073235 0.372624
vn -0.925089 0.073235 0.372621
vn 0.378365 0.261574 0.887930
vn 0.312161 0.705429 0.636338
vn 0.151625 0.970852 0.185623
vn -0.106894 0.891339 -0.440554
vn -0.151626 -0.970852 -0.185625
vn 0.106894 -0.891339 0.440555
vn -0.572727 -0.673860 -0.466795
vn 0.572727 0.673859 0.466795
vn 0.925894 -0.076919 -0.369870
vn 0.174663 -0.789233 0.588732
vn -0.799720 -0.216514 0.559973
vn -0.074827 0.776891 -0.625173
usemtl Material_pistol_Cube-k.tga
s off
f 54/43/38 58/44/38 59/45/38 55/46/38
f 57/47/39 53/48/39 56/49/39 60/50/39
f 60/50/40 56/49/40 63/51/40 61/52/40
f 55/46/41 59/45/41 62/53/41 64/54/41
f 64/55/42 62/56/42 61/57/42 63/58/42
f 58/44/43 54/43/43 67/59/43 65/60/43
f 53/61/44 57/62/44 66/63/44 68/64/44
f 68/65/45 66/66/45 65/67/45 67/68/45
f 66/69/46 57/47/46 76/70/46 69/71/46
f 65/55/47 66/56/47 69/57/47 70/58/47
f 58/44/48 65/60/48 70/72/48 75/73/48
f 62/53/49 59/45/49 74/74/49 71/75/49
f 60/50/50 61/52/50 72/76/50 73/77/50
f 59/45/38 58/44/38 75/73/38 74/74/38
f 57/47/39 60/50/39 73/77/39 76/70/39
f 68/55/51 67/56/51 78/57/51 77/58/51
f 53/48/52 68/78/52 77/79/52 84/80/52
f 67/59/53 54/43/53 83/81/53 78/82/53
f 64/55/54 63/56/54 80/57/54 79/58/54
f 55/46/55 64/54/55 79/83/55 82/84/55
f 63/51/56 56/49/56 81/85/56 80/86/56
f 54/43/57 55/46/57 82/84/57 83/81/57
f 56/49/58 53/48/58 84/80/58 81/85/58
f 84/55/59 83/56/59 82/57/59 81/58/59
f 81/55/60 82/56/60 79/57/60 80/58/60
f 83/55/61 84/56/61 77/57/61 78/58/61
f 76/70/39 73/77/39 88/87/39 85/88/39
f 74/74/38 75/73/38 86/89/38 87/90/38
f 73/77/62 72/76/62 89/91/62 88/87/62
f 71/75/63 74/74/63 87/90/63 90/92/63
f 75/73/64 70/72/64 91/93/64 86/89/64
f 69/71/65 76/70/65 85/88/65 92/94/65
f 85/65/66 88/66/66 87/67/66 86/68/66
f 87/65/67 88/66/67 89/67/67 90/68/67
f 85/65/68 86/66/68 91/67/68 92/68/68
f 92/65/69 91/66/69 94/67/69 93/68/69
f 69/71/39 92/94/39 93/95/39 96/96/39
f 91/93/38 70/72/38 95/97/38 94/98/38
f 70/99/70 69/100/70 96/101/70 95/102/70
f 95/55/71 96/56/71 97/57/71 98/58/71
f 94/98/38 95/97/38 98/103/38 99/104/38
f 96/105/39 93/106/39 100/107/39 97/108/39
f 93/65/72 94/66/72 99/67/72 100/68/72
f 100/65/73 99/66/73 102/67/73 101/68/73
f 97/109/39 100/110/39 101/111/39 104/112/39
f 99/104/74 98/103/74 103/113/74 102/114/74
f 98/55/75 97/56/75 104/57/75 103/58/75
f 103/55/76 104/56/76 101/57/76 102/58/76
f 72/76/77 61/52/77 108/115/77 105/116/77
f 71/55/78 72/56/78 105/57/78 106/58/78
f 62/53/79 71/75/79 106/117/79 107/118/79
f 61/119/80 62/120/80 107/121/80 108/122/80
f 108/123/81 107/124/81 110/125/81 109/126/81
f 107/118/82 106/117/82 111/127/82 110/128/82
f 106/55/83 105/56/83 112/57/83 111/58/83
f 105/116/39 108/115/39 109/129/39 112/130/39
f 112/130/39 109/129/39 116/131/39 113/132/39
f 111/55/84 112/56/84 113/57/84 114/58/84
f 110/128/38 111/127/38 114/133/38 115/134/38
f 109/123/85 110/124/85 115/125/85 116/126/85
f 116/135/86 115/136/86 118/137/86 117/138/86
f 115/131/38 114/132/38 119/139/38 118/140/38
f 113/132/39 116/131/39 117/140/39 120/139/39
f 117/55/87 118/56/87 119/57/87 120/58/87
f 120/55/88 119/56/88 122/57/88 121/58/88
f 113/132/89 120/139/89 121/141/89 124/142/89
f 119/143/90 114/133/90 123/144/90 122/145/90
f 114/146/91 113/147/91 124/148/91 123/149/91
f 123/65/92 124/66/92 121/67/92 122/68/92
f 90/65/93 89/66/93 126/67/93 125/68/93
f 71/75/38 90/92/38 125/150/38 123/144/38
f 89/91/39 72/76/39 124/142/39 126/151/39
f 72/152/94 71/153/94 123/154/94 124/155/94
f 126/151/39 124/142/39 121/141/39 127/156/39
f 123/144/38 125/150/38 128/157/38 122/145/38
f 125/65/95 126/66/95 127/67/95 128/68/95
f 127/156/39 121/141/39 132/158/39 130/159/39
f 122/145/38 128/157/38 129/160/38 131/161/38
f 128/162/96 127/163/96 130/164/96 129/165/96
f 121/99/97 122/100/97 131/101/97 132/102/97
f 132/55/98 131/56/98 129/57/98 130/58/98
f 133/166/99 143/167/99 144/168/99 134/169/99
f 134/166/100 144/167/100 145/168/100 135/169/100
f 135/166/101 145/167/101 146/168/101 136/169/101
f 136/166/102 146/167/102 147/168/102 137/169/102
f 137/166/103 147/167/103 148/168/103 138/169/103
f 138/166/104 148/167/104 149/168/104 139/169/104
f 139/166/105 149/167/105 150/168/105 140/169/105
f 140/166/106 150/167/106 151/168/106 141/169/106
f 141/166/107 151/167/107 152/168/107 142/169/107
f 142/166/108 152/167/108 143/168/108 133/169/108
f 133/166/109 134/167/109 154/168/109 153/169/109
f 134/166/110 135/167/110 155/168/110 154/169/110
f 135/166/111 136/167/111 156/168/111 155/169/111
f 136/166/112 137/167/112 157/168/112 156/169/112
f 137/166/113 138/167/113 158/168/113 157/169/113
f 138/166/114 139/167/114 159/168/114 158/169/114
f 139/166/115 140/167/115 160/168/115 159/169/115
f 140/166/116 141/167/116 161/168/116 160/169/116
f 141/166/117 142/167/117 162/168/117 161/169/117
f 142/166/118 133/167/118 153/168/118 162/169/118
f 153/166/119 154/167/119 163/168/119 164/169/119
f 154/166/120 155/167/120 165/168/120 163/169/120
f 155/166/121 156/167/121 166/168/121 165/169/121
f 156/166/122 157/167/122 167/168/122 166/169/122
f 157/166/108 158/167/108 168/168/108 167/169/108
f 158/166/99 159/167/99 169/168/99 168/169/99
f 159/166/100 160/167/100 170/168/100 169/169/100
f 160/166/123 161/167/123 171/168/123 170/169/123
f 161/166/124 162/167/124 172/168/124 171/169/124
f 162/166/103 153/167/103 164/168/103 172/169/103
f 175/170/125 176/171/125 173/172/125 174/173/125
f 177/170/126 180/171/126 179/172/126 178/173/126
f 173/170/127 177/171/127 178/172/127 174/173/127
f 174/170/128 178/171/128 179/172/128 175/173/128
f 175/174/129 179/175/129 180/176/129 176/177/129
f 176/170/130 180/171/130 177/172/130 173/173/130
