# Blender v2.59 (sub 0) OBJ File: 'pistol.blend'
# www.blender.org
mtllib pistol_000029.mtl
o Cube.003
v -0.151849 0.141574 0.689297
v -0.132649 0.186773 0.751425
v -0.174485 0.204801 0.751238
v -0.193685 0.159602 0.689110
v -0.100058 0.198435 0.631925
v -0.080859 0.243634 0.694053
v -0.172237 0.263606 0.707761
v -0.191437 0.218408 0.645634
v -0.231307 0.134884 0.736983
v -0.219055 0.163727 0.776630
v -0.190548 0.140552 0.784681
v -0.202800 0.111708 0.745034
vn 0.082984 0.793478 -0.602915
vn 0.806159 -0.568404 0.164394
vn 0.242441 0.570750 0.784517
vn -0.969679 0.168162 0.177322
vn -0.242441 -0.570750 -0.784517
vn -0.728420 0.641202 -0.241380
vn -0.328770 -0.690168 -0.644654
vn 0.691107 -0.669120 0.273222
vn 0.146107 0.427775 0.891998
vn -0.605590 -0.542724 0.581989
usemtl Material.001
s off
f 5//1 8//1 7//1 6//1
f 1//2 5//2 6//2 2//2
f 2//3 6//3 7//3 3//3
f 3//4 7//4 8//4 4//4
f 5//5 1//5 4//5 8//5
f 3//6 4//6 9//6 10//6
f 4//7 1//7 12//7 9//7
f 1//8 2//8 11//8 12//8
f 2//9 3//9 10//9 11//9
f 12//10 11//10 10//10 9//10
o Cube.002
v 0.665415 -0.704536 1.379370
v 0.699757 -0.641745 1.448461
v 0.546710 -0.657571 1.538917
v 0.512368 -0.720362 1.469826
v 0.473638 -0.317183 1.122661
v 0.507980 -0.254393 1.191752
v 0.354933 -0.270219 1.282208
v 0.320591 -0.333009 1.213117
vn 0.381485 -0.770525 0.510647
vn -0.381484 0.770525 -0.510647
vn 0.857490 0.088670 -0.506802
vn 0.345225 0.631212 0.694544
vn -0.857490 -0.088670 0.506802
vn -0.345225 -0.631212 -0.694544
usemtl Material.002
s off
f 13//11 14//11 15//11 16//11
f 17//12 20//12 19//12 18//12
f 13//13 17//13 18//13 14//13
f 14//14 18//14 19//14 15//14
f 15//15 19//15 20//15 16//15
f 17//16 13//16 16//16 20//16
o Cube.001
v 0.158282 0.225396 0.512546
v 0.195389 0.288887 0.635705
v -0.748788 0.339037 0.894327
v -0.785895 0.275545 0.771168
v 0.150212 0.324573 0.463850
v 0.187318 0.388065 0.587008
v -0.756859 0.438214 0.845630
v -0.793966 0.374722 0.722471
v -0.695644 0.407565 0.751127
v -0.689132 0.397336 0.754438
v -0.734936 0.399109 0.767324
v -0.722725 0.409003 0.758544
v -0.691946 0.413892 0.763401
v -0.685434 0.403663 0.766712
v -0.731238 0.405436 0.779598
v -0.719027 0.415331 0.770818
v 0.128743 0.388302 0.536182
v 0.139023 0.361411 0.546947
v 0.087080 0.364170 0.561175
v 0.091620 0.390274 0.546350
v 0.131217 0.392537 0.544396
v 0.141498 0.365646 0.555161
v 0.089555 0.368405 0.569389
v 0.094095 0.394509 0.554564
v 0.085194 0.379279 0.525022
v 0.080654 0.353175 0.539847
v 0.132597 0.350416 0.525619
v 0.122317 0.377307 0.514854
v 0.082719 0.375045 0.516808
v 0.078180 0.348941 0.531633
v 0.130123 0.346182 0.517406
v 0.119842 0.373073 0.506640
vt 0.981492 0.700396
vt 0.981492 0.559075
vt 0.015757 0.559075
vt 0.015757 0.700396
vt 0.256982 0.028856
vt 0.256982 0.201167
vt 0.033870 0.201167
vt 0.033870 0.028856
vt 0.970962 0.782064
vt 0.970962 0.890592
vt 0.010662 0.890592
vt 0.010662 0.782064
vt 0.016806 0.783088
vt 0.016806 0.891616
vt 0.029279 0.489607
vt 0.029280 0.383592
vt 0.967338 0.383592
vt 0.967338 0.489607
vt 0.925445 0.487516
vt 0.912457 0.498835
vt 0.885552 0.498835
vt 0.879885 0.488225
vt 0.094387 0.900039
vt 0.066845 0.900039
vt 0.053548 0.888452
vt 0.100189 0.889177
vt 0.884250 0.887914
vt 0.891057 0.916869
vt 0.928814 0.916869
vt 0.937080 0.887914
vt 0.125150 0.242886
vt 0.110271 0.242886
vt 0.110271 0.196916
vt 0.125150 0.196916
vt 0.107333 0.515275
vt 0.070451 0.515275
vt 0.113983 0.486992
vt 0.062377 0.486992
vt 0.178668 0.242886
vt 0.163788 0.242886
vt 0.163788 0.196916
vt 0.178668 0.196916
vn 0.072854 -0.895247 0.439573
vn -0.072854 0.895247 -0.439573
vn 0.963210 -0.051160 -0.263835
vn 0.258686 0.442623 0.858584
vn -0.963210 0.051159 0.263835
vn -0.258686 -0.442623 -0.858584
vn -0.258686 -0.442622 -0.858585
vn 0.258687 0.442622 0.858584
vn 0.815272 0.376676 -0.439826
vn 0.087821 -0.895935 0.435418
vn -0.687744 0.708538 -0.158057
vn -0.258687 -0.442623 -0.858584
vn 0.906204 0.196573 -0.374371
vn 0.072854 -0.895248 0.439573
vn -0.954318 0.254698 0.156226
vn -0.072854 0.895247 -0.439574
vn 0.072854 -0.895246 0.439575
vn 0.906203 0.196572 -0.374373
usemtl _pistol-2_Cube.001-k.t
s off
f 21/1/17 22/2/17 23/3/17 24/4/17
f 25/1/18 28/4/18 27/3/18 26/2/18
f 21/5/19 25/6/19 26/7/19 22/8/19
f 22/9/20 26/10/20 27/11/20 23/12/20
f 23/13/21 27/14/21 28/14/21 24/13/21
f 25/15/22 21/16/22 24/17/22 28/18/22
f 31/19/23 32/20/23 29/21/23 30/22/23
f 33/23/24 36/24/24 35/25/24 34/26/24
f 29/21/25 33/21/25 34/22/25 30/22/25
f 30/22/26 34/22/26 35/19/26 31/19/26
f 31/19/27 35/19/27 36/20/27 32/20/27
f 32/20/18 36/20/18 33/21/18 29/21/18
f 39/27/28 40/28/28 37/29/28 38/30/28
f 41/29/20 44/28/20 43/27/20 42/30/20
f 37/31/29 41/32/29 42/33/29 38/34/29
f 38/30/30 42/30/30 43/27/30 39/27/30
f 39/27/31 43/27/31 44/28/31 40/28/31
f 40/28/32 44/28/32 41/29/32 37/29/32
f 49/35/32 45/35/32 48/36/32 52/36/32
f 50/37/31 46/37/31 45/35/31 49/35/31
f 51/38/33 47/38/33 46/37/33 50/37/33
f 52/39/34 48/40/34 47/41/34 51/42/34
f 48/29/20 45/28/20 46/27/20 47/30/20
f 50/37/22 49/35/22 52/36/22 51/38/22
o Cube
v 0.287412 -0.168426 0.695889
v 0.319146 -0.114117 0.801200
v 0.124456 -0.127121 0.866572
v 0.092722 -0.181429 0.761261
v 0.133128 0.101671 0.603091
v 0.164861 0.155980 0.708402
v -0.009830 0.164715 0.756537
v -0.041563 0.110406 0.651226
v -0.081593 0.112001 0.662141
v -0.049715 0.166557 0.767931
v 0.053795 -0.193375 0.778826
v 0.085673 -0.138819 0.884616
v 0.196709 0.153437 0.696333
v 0.166656 0.102004 0.596600
v 0.352637 -0.095713 0.777833
v 0.322584 -0.147146 0.678100
v 0.129338 0.199128 0.557758
v 0.159391 0.250560 0.657491
v -0.105533 0.264663 0.734157
v -0.137411 0.210107 0.628367
v -0.097382 0.208513 0.617452
v -0.065648 0.262821 0.722763
v 0.109043 0.254087 0.674628
v 0.077309 0.199778 0.569317
v 0.356609 -0.206591 0.713823
v 0.379857 -0.166805 0.790974
v 0.112687 -0.210264 0.897071
v 0.088027 -0.252467 0.815234
v 0.126938 -0.240550 0.797615
v 0.151486 -0.198537 0.879081
v 0.346176 -0.185534 0.813709
v 0.321627 -0.227546 0.732243
v 0.069613 0.273642 0.533545
v 0.101346 0.327951 0.638856
v -0.073345 0.336686 0.686991
v -0.105079 0.282377 0.581680
v -0.145108 0.283971 0.592595
v -0.113230 0.338527 0.698385
v 0.151694 0.324424 0.621719
v 0.121641 0.272992 0.521986
v 0.146783 0.271871 0.514988
v 0.176835 0.323303 0.614721
v 0.184532 0.249439 0.650494
v 0.154480 0.198007 0.550761
v 0.197586 0.215785 0.528603
v 0.227638 0.267218 0.628336
v 0.221552 0.321309 0.602275
v 0.191499 0.269877 0.502542
v 0.210823 0.269037 0.497153
v 0.240875 0.320469 0.596886
v 0.246084 0.277163 0.617649
v 0.216031 0.225730 0.517916
v -0.116739 0.126457 0.706659
v -0.103244 0.149553 0.751446
v -0.082439 0.126687 0.756969
v -0.095934 0.103590 0.712182
v -0.159686 0.086206 0.740358
v -0.146190 0.109302 0.785145
v -0.150817 0.137455 0.772021
v -0.164312 0.114359 0.727234
v -0.320307 0.127682 0.767369
v -0.306811 0.150779 0.812155
v -0.302184 0.122626 0.825280
v -0.315680 0.099529 0.780493
v -0.355232 0.097929 0.793236
v -0.341736 0.121026 0.838023
v -0.346362 0.149179 0.824899
v -0.359858 0.126082 0.780112
v -0.368002 0.222089 0.691672
v -0.336125 0.276645 0.797462
v -0.304389 0.275815 0.788328
v -0.336267 0.221259 0.682538
v -0.312020 0.347393 0.753714
v -0.343898 0.292837 0.647925
v -0.375488 0.294222 0.656729
v -0.343610 0.348778 0.762519
v -0.689925 0.365017 0.858500
v -0.721802 0.310461 0.752710
v -0.682439 0.292883 0.893443
v -0.714317 0.238328 0.787654
v -0.746991 0.394982 0.760618
v -0.747775 0.370250 0.762554
v -0.745076 0.348941 0.776539
v -0.739925 0.339193 0.797232
v -0.734290 0.344731 0.816729
v -0.730323 0.363438 0.827582
v -0.729539 0.388169 0.825647
v -0.732238 0.409478 0.811662
v -0.737389 0.419226 0.790969
v -0.743024 0.413689 0.771472
v -0.439895 0.378670 0.676493
v -0.440679 0.353939 0.678428
v -0.437979 0.332630 0.692413
v -0.432829 0.322882 0.713106
v -0.427193 0.328419 0.732603
v -0.423227 0.347127 0.743456
v -0.422443 0.371858 0.741521
v -0.425142 0.393167 0.727536
v -0.430293 0.402915 0.706843
v -0.435928 0.397377 0.687346
v -0.743973 0.389270 0.772744
v -0.744473 0.373495 0.773979
v -0.742751 0.359903 0.782899
v -0.739466 0.353686 0.796098
v -0.735871 0.357218 0.808534
v -0.733341 0.369150 0.815457
v -0.732841 0.384924 0.814222
v -0.734563 0.398516 0.805302
v -0.737848 0.404734 0.792103
v -0.741443 0.401202 0.779667
v -0.573401 0.364409 0.727115
v -0.572901 0.380183 0.725881
v -0.571679 0.350817 0.736035
v -0.568394 0.344599 0.749234
v -0.564800 0.348131 0.761670
v -0.562269 0.360063 0.768593
v -0.561770 0.375838 0.767359
v -0.563491 0.389430 0.758439
v -0.566777 0.395647 0.745240
v -0.570371 0.392115 0.732804
v 0.819323 -0.208928 0.000461
v 0.850808 -0.404521 0.157683
v 0.000676 -0.222644 0.668934
v -0.162111 0.111613 0.545610
v 0.913830 -0.047189 0.314091
v 0.945314 -0.242783 0.471313
v 0.095182 -0.060906 0.982564
v -0.067604 0.273352 0.859240
vt 0.927200 0.246707
vt 0.827427 0.459240
vt 0.696213 0.458799
vt 0.779567 0.227763
vt 0.193673 0.133961
vt 0.387467 0.042986
vt 0.404740 0.177602
vt 0.194075 0.253606
vt 0.415015 0.204984
vt 0.194375 0.280989
vt 0.666182 0.458471
vt 0.749536 0.216495
vt 0.333858 0.810420
vt 0.482548 0.810420
vt 0.482548 0.959111
vt 0.333858 0.959111
vt 0.954311 0.264288
vt 0.852013 0.459752
vt -0.727496 0.474897
vt -0.701703 0.474897
vt -0.701703 0.500689
vt -0.727496 0.500689
vt -1.408821 0.790398
vt -1.364616 0.790398
vt -1.364616 0.834602
vt -1.408821 0.834602
vt 0.193206 0.111543
vt 0.123273 0.166853
vt 0.122807 0.131768
vt 0.829833 0.536959
vt 0.791355 0.536447
vt 0.660140 0.536006
vt 0.630110 0.535678
vt 0.123975 0.313881
vt 0.123676 0.286498
vt 0.371435 0.018265
vt 0.418527 0.000861
vt 0.434558 0.025582
vt 0.946287 0.195062
vt 0.973398 0.212643
vt 0.768623 0.164850
vt 0.798654 0.176118
vt 0.451832 0.160198
vt 0.462106 0.187580
vt 0.069323 0.287655
vt 0.068921 0.168010
vt 0.790086 0.596056
vt 0.658872 0.595615
vt 0.069622 0.315037
vt 0.628841 0.595287
vt 0.828564 0.596568
vt 0.068454 0.132924
vt 0.068295 0.115698
vt 0.122648 0.114541
vt 0.848726 0.537133
vt 0.847457 0.596742
vt 0.296481 0.778563
vt 0.465802 0.778563
vt 0.465802 0.947884
vt 0.296481 0.947884
vt 0.882328 0.553418
vt 0.881059 0.597051
vt 0.108976 0.116494
vt 0.054623 0.117651
vt 0.054341 0.087011
vt 0.094127 0.085854
vt 0.107799 0.083901
vt 0.068013 0.085058
vt 0.067876 0.071816
vt 0.099715 0.070660
vt 0.896850 0.562283
vt 0.895581 0.597202
vt 0.213162 0.298524
vt 0.197060 0.311551
vt 0.632665 0.455526
vt 0.646952 0.437867
vt 0.000000 0.000000
vt 1.000000 0.000000
vt 1.000000 1.000000
vt 0.000000 1.000000
vt 0.309848 0.788364
vt 0.475308 0.788364
vt 0.475308 0.953824
vt 0.309848 0.953824
vt 0.596042 0.443658
vt 0.597803 0.421011
vt 0.228531 0.343339
vt 0.207881 0.344944
vt 0.224803 0.449870
vt 0.204153 0.451475
vt 0.479211 0.447746
vt 0.480971 0.425100
vt 0.314329 0.792844
vt 0.470828 0.792844
vt 0.470828 0.949343
vt 0.314329 0.949343
vt 0.206892 0.478764
vt 0.227542 0.477159
vt 0.124172 0.471787
vt 0.123539 0.450009
vt 0.449283 0.444743
vt 0.480819 0.536156
vt 0.456935 0.535462
vt 0.306798 0.789219
vt 0.474452 0.789219
vt 0.474452 0.956874
vt 0.306798 0.956874
vt 0.479459 0.593913
vt 0.070875 0.451248
vt 0.302167 0.788495
vt 0.479083 0.788495
vt 0.479083 0.965412
vt 0.302167 0.965412
vt 0.071091 0.472895
vt 0.455719 0.593675
vt 0.125767 0.709036
vt 0.072686 0.710145
vt 0.195528 0.591926
vt 0.196743 0.533713
vt 0.336313 0.795297
vt 0.444937 0.795297
vt 0.444937 0.903921
vt 0.336313 0.903921
vt 0.038819 0.761475
vt 0.258057 0.761475
vt 0.258057 0.980713
vt 0.038819 0.980713
vt 0.543634 0.830499
vt 0.640937 0.830499
vt 0.640937 0.927802
vt 0.543634 0.927802
vt 0.538555 0.806133
vt 0.633320 0.806133
vt 0.633320 0.900898
vt 0.538555 0.900898
vn 0.258699 0.442738 0.858521
vn -0.258699 -0.442738 -0.858521
vn -0.252797 -0.441066 -0.861136
vn 0.264589 0.444391 0.855868
vn -0.886943 -0.243185 0.392674
vn 0.329300 0.471367 0.818153
vn -0.186175 -0.410819 -0.892506
vn 0.819590 0.369768 -0.437657
vn -0.188802 -0.420200 -0.887573
vn 0.905631 0.198003 -0.375003
vn 0.326982 0.462516 0.824113
vn 0.264901 0.445179 0.855361
vn -0.252482 -0.440273 -0.861634
vn 0.878205 0.262339 -0.399918
vn -0.092161 -0.555434 -0.826438
vn 0.414510 0.311685 0.855005
vn -0.878205 -0.262339 0.399918
vn 0.332431 0.282966 0.899678
vn -0.176518 -0.588052 -0.789326
vn 0.290145 0.270593 0.917930
vn -0.218418 -0.599763 -0.769791
vn 0.194898 -0.894421 0.402524
vn 0.406630 -0.856104 0.318962
vn 0.585238 -0.778922 0.225339
vn -0.258699 -0.442739 -0.858520
vn 0.258699 0.442739 0.858521
vn -0.252234 -0.442944 -0.860336
vn 0.265150 0.442513 0.856667
vn 0.316819 0.439959 0.840275
vn -0.199616 -0.443872 -0.873574
vn -0.076138 0.895357 -0.438792
vn -0.083418 0.895696 -0.436773
vn -0.085706 0.895791 -0.436133
vn -0.081756 0.895623 -0.437237
vn -0.258698 -0.442738 -0.858521
vn 0.081754 -0.895623 0.437237
vn 0.485679 -0.827881 0.280588
vn -0.258699 -0.442739 -0.858521
vn -0.081755 0.895623 -0.437237
vn -0.082914 0.895674 -0.436914
vn -0.258698 -0.442739 -0.858521
vn 0.258698 0.442738 0.858521
vn 0.564098 -0.790725 0.237797
vn 0.959922 -0.018628 -0.279647
vn -0.720411 -0.579886 -0.380447
vn -0.960392 0.022612 0.277735
vn -0.322154 0.101691 0.941210
vn 0.753890 -0.648210 0.107112
vn 0.381419 -0.863374 0.330309
vn 0.258699 0.442737 0.858521
vn -0.366291 0.867360 -0.336923
vn -0.039168 0.892853 -0.448642
vn 0.039168 -0.892853 0.448642
vn 0.168715 -0.895824 0.411138
vn -0.954658 -0.018362 0.297138
vn -0.965922 0.126219 0.225971
vn -0.210076 -0.674000 -0.708232
vn 0.287030 0.176752 0.941474
vn 0.964370 -0.067429 -0.255821
vn -0.100848 0.896298 -0.431832
vn 0.258699 0.442739 0.858520
vn 0.069811 -0.895021 0.440526
vn -0.082517 0.895656 -0.437025
vn -0.079374 0.895514 -0.437898
vn 0.079374 -0.895514 0.437898
vn -0.961472 0.032462 0.272981
vn -0.266914 -0.066774 -0.961404
vn -0.247283 -0.553339 -0.795404
vn -0.154847 -0.908047 -0.389196
vn 0.022037 -0.963379 0.267237
vn 0.199230 -0.523049 0.828690
vn 0.266914 0.066775 0.961404
vn 0.247283 0.553339 0.795403
vn 0.154847 0.908047 0.389196
vn -0.022037 0.963379 -0.267236
vn -0.199230 0.523048 -0.828691
vn -0.963204 0.051159 0.263858
vn -0.963204 0.051160 0.263858
vn -0.963204 0.051157 0.263858
vn -0.963203 0.051157 0.263862
vn -0.963202 0.051158 0.263863
vn -0.963201 0.051160 0.263867
vn -0.963201 0.051165 0.263866
vn -0.963203 0.051165 0.263861
vn -0.963203 0.051164 0.263859
vn -0.963204 0.051163 0.263857
vn 0.266914 0.066773 0.961405
vn 0.247283 0.553339 0.795404
vn 0.154847 0.908047 0.389195
vn -0.022037 0.963379 -0.267235
vn -0.266914 -0.066772 -0.961405
vn -0.247283 -0.553341 -0.795403
vn -0.154848 -0.908045 -0.389199
vn 0.022037 -0.963379 0.267235
vn -0.526685 -0.540500 -0.656097
vn 0.526685 0.540500 0.656097
vn 0.963533 -0.055342 -0.261803
vn 0.072899 -0.895190 0.439682
vn -0.871991 -0.275337 0.404749
vn 0.030427 0.884600 -0.465356
usemtl Material_pistol_Cube-k.tga
s off
f 54/43/35 58/44/35 59/45/35 55/46/35
f 57/47/36 53/48/36 56/49/36 60/50/36
f 60/50/37 56/49/37 63/51/37 61/52/37
f 55/46/38 59/45/38 62/53/38 64/54/38
f 64/55/39 62/56/39 61/57/39 63/58/39
f 58/44/40 54/43/40 67/59/40 65/60/40
f 53/61/41 57/62/41 66/63/41 68/64/41
f 68/65/42 66/66/42 65/67/42 67/68/42
f 66/69/43 57/47/43 76/70/43 69/71/43
f 65/55/44 66/56/44 69/57/44 70/58/44
f 58/44/45 65/60/45 70/72/45 75/73/45
f 62/53/46 59/45/46 74/74/46 71/75/46
f 60/50/47 61/52/47 72/76/47 73/77/47
f 59/45/35 58/44/35 75/73/35 74/74/35
f 57/47/36 60/50/36 73/77/36 76/70/36
f 68/55/48 67/56/48 78/57/48 77/58/48
f 53/48/49 68/78/49 77/79/49 84/80/49
f 67/59/50 54/43/50 83/81/50 78/82/50
f 64/55/51 63/56/51 80/57/51 79/58/51
f 55/46/52 64/54/52 79/83/52 82/84/52
f 63/51/53 56/49/53 81/85/53 80/86/53
f 54/43/54 55/46/54 82/84/54 83/81/54
f 56/49/55 53/48/55 84/80/55 81/85/55
f 84/55/56 83/56/56 82/57/56 81/58/56
f 81/55/57 82/56/57 79/57/57 80/58/57
f 83/55/58 84/56/58 77/57/58 78/58/58
f 76/70/59 73/77/59 88/87/59 85/88/59
f 74/74/60 75/73/60 86/89/60 87/90/60
f 73/77/61 72/76/61 89/91/61 88/87/61
f 71/75/62 74/74/62 87/90/62 90/92/62
f 75/73/63 70/72/63 91/93/63 86/89/63
f 69/71/64 76/70/64 85/88/64 92/94/64
f 85/65/65 88/66/65 87/67/65 86/68/65
f 87/65/66 88/66/66 89/67/66 90/68/66
f 85/65/67 86/66/67 91/67/67 92/68/67
f 92/65/68 91/66/68 94/67/68 93/68/68
f 69/71/69 92/94/69 93/95/69 96/96/69
f 91/93/60 70/72/60 95/97/60 94/98/60
f 70/99/70 69/100/70 96/101/70 95/102/70
f 95/55/71 96/56/71 97/57/71 98/58/71
f 94/98/60 95/97/60 98/103/60 99/104/60
f 96/105/72 93/106/72 100/107/72 97/108/72
f 93/65/73 94/66/73 99/67/73 100/68/73
f 100/65/74 99/66/74 102/67/74 101/68/74
f 97/109/75 100/110/75 101/111/75 104/112/75
f 99/104/76 98/103/76 103/113/76 102/114/76
f 98/55/77 97/56/77 104/57/77 103/58/77
f 103/55/78 104/56/78 101/57/78 102/58/78
f 72/76/79 61/52/79 108/115/79 105/116/79
f 71/55/80 72/56/80 105/57/80 106/58/80
f 62/53/81 71/75/81 106/117/81 107/118/81
f 61/119/82 62/120/82 107/121/82 108/122/82
f 108/123/83 107/124/83 110/125/83 109/126/83
f 107/118/84 106/117/84 111/127/84 110/128/84
f 106/55/85 105/56/85 112/57/85 111/58/85
f 105/116/72 108/115/72 109/129/72 112/130/72
f 112/130/59 109/129/59 116/131/59 113/132/59
f 111/55/86 112/56/86 113/57/86 114/58/86
f 110/128/84 111/127/84 114/133/84 115/134/84
f 109/123/87 110/124/87 115/125/87 116/126/87
f 116/135/88 115/136/88 118/137/88 117/138/88
f 115/131/35 114/132/35 119/139/35 118/140/35
f 113/132/59 116/131/59 117/140/59 120/139/59
f 117/55/89 118/56/89 119/57/89 120/58/89
f 120/55/90 119/56/90 122/57/90 121/58/90
f 113/132/91 120/139/91 121/141/91 124/142/91
f 119/143/92 114/133/92 123/144/92 122/145/92
f 114/146/93 113/147/93 124/148/93 123/149/93
f 123/65/94 124/66/94 121/67/94 122/68/94
f 90/65/73 89/66/73 126/67/73 125/68/73
f 71/75/95 90/92/95 125/150/95 123/144/95
f 89/91/72 72/76/72 124/142/72 126/151/72
f 72/152/96 71/153/96 123/154/96 124/155/96
f 126/151/69 124/142/69 121/141/69 127/156/69
f 123/144/60 125/150/60 128/157/60 122/145/60
f 125/65/97 126/66/97 127/67/97 128/68/97
f 127/156/36 121/141/36 132/158/36 130/159/36
f 122/145/35 128/157/35 129/160/35 131/161/35
f 128/162/98 127/163/98 130/164/98 129/165/98
f 121/99/99 122/100/99 131/101/99 132/102/99
f 132/55/100 131/56/100 129/57/100 130/58/100
f 133/166/101 143/167/101 144/168/101 134/169/101
f 134/166/102 144/167/102 145/168/102 135/169/102
f 135/166/103 145/167/103 146/168/103 136/169/103
f 136/166/104 146/167/104 147/168/104 137/169/104
f 137/166/105 147/167/105 148/168/105 138/169/105
f 138/166/106 148/167/106 149/168/106 139/169/106
f 139/166/107 149/167/107 150/168/107 140/169/107
f 140/166/108 150/167/108 151/168/108 141/169/108
f 141/166/109 151/167/109 152/168/109 142/169/109
f 142/166/110 152/167/110 143/168/110 133/169/110
f 133/166/111 134/167/111 154/168/111 153/169/111
f 134/166/112 135/167/112 155/168/112 154/169/112
f 135/166/113 136/167/113 156/168/113 155/169/113
f 136/166/114 137/167/114 157/168/114 156/169/114
f 137/166/115 138/167/115 158/168/115 157/169/115
f 138/166/116 139/167/116 159/168/116 158/169/116
f 139/166/117 140/167/117 160/168/117 159/169/117
f 140/166/118 141/167/118 161/168/118 160/169/118
f 141/166/119 142/167/119 162/168/119 161/169/119
f 142/166/120 133/167/120 153/168/120 162/169/120
f 153/166/121 154/167/121 163/168/121 164/169/121
f 154/166/122 155/167/122 165/168/122 163/169/122
f 155/166/123 156/167/123 166/168/123 165/169/123
f 156/166/124 157/167/124 167/168/124 166/169/124
f 157/166/110 158/167/110 168/168/110 167/169/110
f 158/166/125 159/167/125 169/168/125 168/169/125
f 159/166/126 160/167/126 170/168/126 169/169/126
f 160/166/127 161/167/127 171/168/127 170/169/127
f 161/166/128 162/167/128 172/168/128 171/169/128
f 162/166/105 153/167/105 164/168/105 172/169/105
f 175/170/129 176/171/129 173/172/129 174/173/129
f 177/170/130 180/171/130 179/172/130 178/173/130
f 173/170/131 177/171/131 178/172/131 174/173/131
f 174/170/132 178/171/132 179/172/132 175/173/132
f 175/174/133 179/175/133 180/176/133 176/177/133
f 176/170/134 180/171/134 177/172/134 173/173/134
