# Blender v2.59 (sub 0) OBJ File: 'pistol.blend'
# www.blender.org
mtllib pistol_000024.mtl
o Cube.003
v -0.115846 0.167286 0.735696
v -0.086669 0.220879 0.786172
v -0.129000 0.234057 0.796648
v -0.158176 0.180464 0.746172
v -0.090113 0.222853 0.661824
v -0.060937 0.276446 0.712300
v -0.146860 0.287614 0.750108
v -0.176036 0.234020 0.699631
v -0.177433 0.157164 0.804520
v -0.158815 0.191364 0.836732
v -0.126302 0.172497 0.837971
v -0.144920 0.138297 0.805759
vn -0.195357 0.726670 -0.658624
vn 0.890138 -0.454576 -0.031868
vn 0.368423 0.676753 0.637392
vn -0.897038 0.078761 0.434878
vn -0.368423 -0.676753 -0.637393
vn -0.847285 0.526590 -0.069363
vn -0.395782 -0.788852 -0.470180
vn 0.824351 -0.554778 0.112548
vn 0.325858 0.536722 0.778297
vn -0.342035 -0.538856 0.769835
usemtl Material.001
s off
f 5//1 8//1 7//1 6//1
f 1//2 5//2 6//2 2//2
f 2//3 6//3 7//3 3//3
f 3//4 7//4 8//4 4//4
f 5//5 1//5 4//5 8//5
f 3//6 4//6 9//6 10//6
f 4//7 1//7 12//7 9//7
f 1//8 2//8 11//8 12//8
f 2//9 3//9 10//9 11//9
f 12//10 11//10 10//10 9//10
o Cube.002
v 0.514536 -0.504962 1.134812
v 0.550708 -0.436428 1.197184
v 0.404900 -0.452067 1.298927
v 0.368728 -0.520601 1.236555
v 0.289489 -0.143261 0.867893
v 0.325661 -0.074727 0.930265
v 0.179853 -0.090366 1.032008
v 0.143681 -0.158900 0.969635
vn 0.447666 -0.719499 0.530958
vn -0.447666 0.719499 -0.530958
vn 0.816930 0.087622 -0.570042
vn 0.363621 0.688944 0.627006
vn -0.816930 -0.087622 0.570042
vn -0.363621 -0.688944 -0.627006
usemtl Material.002
s off
f 13//11 14//11 15//11 16//11
f 17//12 20//12 19//12 18//12
f 13//13 17//13 18//13 14//13
f 14//14 18//14 19//14 15//14
f 15//15 19//15 20//15 16//15
f 17//16 13//16 16//16 20//16
o Cube.001
v 0.159695 0.212269 0.487789
v 0.211067 0.308341 0.581101
v -0.677357 0.388737 0.987438
v -0.728729 0.292665 0.894126
v 0.134849 0.294030 0.417288
v 0.186221 0.390102 0.510600
v -0.702204 0.470499 0.916937
v -0.753575 0.374427 0.823625
v -0.655153 0.417783 0.824068
v -0.647299 0.409114 0.828669
v -0.690283 0.412473 0.848875
v -0.680635 0.420089 0.835722
v -0.650034 0.427357 0.833367
v -0.642179 0.418689 0.837968
v -0.685163 0.422047 0.858175
v -0.675515 0.429663 0.845021
v 0.120194 0.374121 0.473189
v 0.134470 0.351616 0.488500
v 0.085595 0.356039 0.510854
v 0.085264 0.377282 0.489165
v 0.123620 0.380529 0.479412
v 0.137896 0.358023 0.494723
v 0.089021 0.362446 0.517077
v 0.088690 0.383690 0.495388
v 0.076368 0.360645 0.473005
v 0.076698 0.339402 0.494695
v 0.125574 0.334979 0.472341
v 0.111298 0.357484 0.457029
v 0.072941 0.354238 0.466782
v 0.073272 0.332995 0.488472
v 0.122148 0.328572 0.466117
v 0.107872 0.351077 0.450806
vt 0.981492 0.700396
vt 0.981492 0.559075
vt 0.015757 0.559075
vt 0.015757 0.700396
vt 0.256982 0.028856
vt 0.256982 0.201167
vt 0.033870 0.201167
vt 0.033870 0.028856
vt 0.970962 0.782064
vt 0.970962 0.890592
vt 0.010662 0.890592
vt 0.010662 0.782064
vt 0.016806 0.783088
vt 0.016806 0.891616
vt 0.029279 0.489607
vt 0.029280 0.383592
vt 0.967338 0.383592
vt 0.967338 0.489607
vt 0.925445 0.487516
vt 0.912457 0.498835
vt 0.885552 0.498835
vt 0.879885 0.488225
vt 0.094387 0.900039
vt 0.066845 0.900039
vt 0.053548 0.888452
vt 0.100189 0.889177
vt 0.884250 0.887914
vt 0.891057 0.916869
vt 0.928814 0.916869
vt 0.937080 0.887914
vt 0.125150 0.242886
vt 0.110271 0.242886
vt 0.110271 0.196916
vt 0.125150 0.196916
vt 0.107333 0.515275
vt 0.070451 0.515275
vt 0.113983 0.486992
vt 0.062377 0.486992
vt 0.178668 0.242886
vt 0.163788 0.242886
vt 0.163788 0.196916
vt 0.178668 0.196916
vn 0.224279 -0.738039 0.636394
vn -0.224279 0.738039 -0.636394
vn 0.906333 -0.082017 -0.414528
vn 0.358133 0.669755 0.650514
vn -0.906333 0.082017 0.414528
vn -0.358133 -0.669755 -0.650514
vn 0.358133 0.669757 0.650513
vn 0.693760 0.275389 -0.665476
vn 0.238343 -0.739225 0.629872
vn -0.764535 0.610292 -0.207435
vn -0.224278 0.738040 -0.636393
vn 0.809943 0.123743 -0.573307
vn -0.933607 0.248755 0.257872
vn -0.224278 0.738039 -0.636394
vn -0.224279 0.738039 -0.636395
vn 0.224279 -0.738038 0.636395
vn 0.809942 0.123742 -0.573308
usemtl _pistol-2_Cube.001-k.t
s off
f 21/1/17 22/2/17 23/3/17 24/4/17
f 25/1/18 28/4/18 27/3/18 26/2/18
f 21/5/19 25/6/19 26/7/19 22/8/19
f 22/9/20 26/10/20 27/11/20 23/12/20
f 23/13/21 27/14/21 28/14/21 24/13/21
f 25/15/22 21/16/22 24/17/22 28/18/22
f 31/19/22 32/20/22 29/21/22 30/22/22
f 33/23/23 36/24/23 35/25/23 34/26/23
f 29/21/24 33/21/24 34/22/24 30/22/24
f 30/22/25 34/22/25 35/19/25 31/19/25
f 31/19/26 35/19/26 36/20/26 32/20/26
f 32/20/27 36/20/27 33/21/27 29/21/27
f 39/27/22 40/28/22 37/29/22 38/30/22
f 41/29/20 44/28/20 43/27/20 42/30/20
f 37/31/28 41/32/28 42/33/28 38/34/28
f 38/30/17 42/30/17 43/27/17 39/27/17
f 39/27/29 43/27/29 44/28/29 40/28/29
f 40/28/30 44/28/30 41/29/30 37/29/30
f 49/35/31 45/35/31 48/36/31 52/36/31
f 50/37/29 46/37/29 45/35/29 49/35/29
f 51/38/32 47/38/32 46/37/32 50/37/32
f 52/39/33 48/40/33 47/41/33 51/42/33
f 48/29/20 45/28/20 46/27/20 47/30/20
f 50/37/22 49/35/22 52/36/22 51/38/22
o Cube
v 0.315060 -0.136522 0.781120
v 0.358991 -0.054365 0.860916
v 0.179874 -0.056955 0.962193
v 0.135943 -0.139111 0.882398
v 0.124139 0.091654 0.651303
v 0.168069 0.173810 0.731099
v 0.003788 0.188239 0.806687
v -0.040143 0.106082 0.726892
v -0.077770 0.108966 0.744209
v -0.033640 0.191496 0.824368
v 0.101708 -0.147390 0.909341
v 0.145839 -0.064860 0.989499
v 0.197554 0.169369 0.714445
v 0.155950 0.091564 0.638876
v 0.386348 -0.041676 0.827796
v 0.344744 -0.119481 0.752227
v 0.104217 0.172859 0.583657
v 0.145821 0.250664 0.659226
v -0.102781 0.274366 0.777110
v -0.146911 0.191836 0.696952
v -0.109284 0.188953 0.679635
v -0.065353 0.271109 0.759430
v 0.098929 0.256681 0.683842
v 0.054998 0.174524 0.604046
v 0.389385 -0.165534 0.795284
v 0.421569 -0.105346 0.853742
v 0.180773 -0.129065 1.014926
v 0.146635 -0.192909 0.952917
v 0.180848 -0.184672 0.925933
v 0.214831 -0.121118 0.987661
v 0.393949 -0.118528 0.886383
v 0.359965 -0.182082 0.824655
v 0.034925 0.235491 0.552326
v 0.078856 0.317647 0.632122
v -0.085426 0.332076 0.707710
v -0.129357 0.249919 0.627915
v -0.166984 0.252803 0.645232
v -0.122854 0.335333 0.725391
v 0.125748 0.311631 0.607506
v 0.084144 0.233826 0.531937
v 0.107764 0.231861 0.520957
v 0.149368 0.309666 0.596526
v 0.169441 0.248699 0.648246
v 0.127837 0.170894 0.572677
v 0.164893 0.183701 0.539091
v 0.206496 0.261506 0.614659
v 0.191377 0.306171 0.576996
v 0.149774 0.228366 0.501427
v 0.167924 0.226874 0.492972
v 0.209527 0.304678 0.568540
v 0.221944 0.268905 0.598536
v 0.180341 0.191100 0.522968
v -0.106132 0.133557 0.789121
v -0.087449 0.168497 0.823056
v -0.064072 0.148858 0.830406
v -0.082755 0.113918 0.796470
v -0.139114 0.102293 0.839468
v -0.120431 0.137232 0.873404
v -0.129659 0.160540 0.854487
v -0.148342 0.125600 0.820552
v -0.296006 0.143020 0.883911
v -0.277323 0.177959 0.917847
v -0.268095 0.154652 0.936764
v -0.286778 0.119712 0.902828
v -0.323348 0.120041 0.922623
v -0.304665 0.154981 0.956558
v -0.313893 0.178288 0.937641
v -0.332575 0.143349 0.903706
v -0.363841 0.211253 0.796390
v -0.319711 0.293783 0.876548
v -0.289998 0.291783 0.862249
v -0.334129 0.209253 0.782091
v -0.309611 0.350870 0.812211
v -0.353741 0.268340 0.732053
v -0.383415 0.270790 0.745867
v -0.339285 0.353320 0.826026
v -0.664775 0.381039 0.976682
v -0.708905 0.298509 0.896524
v -0.645201 0.321502 1.027205
v -0.689331 0.238972 0.947047
v -0.739807 0.380900 0.886652
v -0.738063 0.357618 0.895073
v -0.731190 0.341047 0.913378
v -0.721814 0.337515 0.934577
v -0.713516 0.348373 0.950571
v -0.709466 0.369472 0.955251
v -0.711211 0.392754 0.946831
v -0.718083 0.409326 0.928525
v -0.727459 0.412857 0.907327
v -0.735757 0.402000 0.891333
v -0.450843 0.354751 0.754489
v -0.449098 0.331469 0.762909
v -0.442226 0.314897 0.781215
v -0.432850 0.311366 0.802413
v -0.424552 0.322223 0.818407
v -0.420502 0.343323 0.823088
v -0.422247 0.366605 0.814667
v -0.429119 0.383176 0.796362
v -0.438495 0.386708 0.775163
v -0.446793 0.375850 0.759169
v -0.734313 0.378831 0.899074
v -0.733200 0.363981 0.904445
v -0.728817 0.353411 0.916121
v -0.722836 0.351158 0.929642
v -0.717544 0.358083 0.939844
v -0.714960 0.371541 0.942829
v -0.716073 0.386392 0.937458
v -0.720457 0.396962 0.925782
v -0.726437 0.399214 0.912261
v -0.731730 0.392289 0.902060
v -0.572229 0.349414 0.830822
v -0.573342 0.364264 0.825451
v -0.567846 0.338844 0.842498
v -0.561865 0.336591 0.856019
v -0.556573 0.343517 0.866221
v -0.553989 0.356975 0.869206
v -0.555102 0.371825 0.863835
v -0.559486 0.382395 0.852159
v -0.565466 0.384647 0.838638
v -0.570759 0.377722 0.828436
v 0.724885 -0.343192 0.034448
v 0.799375 -0.487176 0.228578
v 0.033794 -0.207586 0.822630
v -0.176256 0.073622 0.648742
v 0.855717 -0.098519 0.272089
v 0.930205 -0.242504 0.466219
v 0.164625 0.037086 1.060271
v -0.045425 0.318295 0.886383
vt 0.927200 0.246707
vt 0.827427 0.459240
vt 0.696213 0.458799
vt 0.779567 0.227763
vt 0.193673 0.133961
vt 0.387467 0.042986
vt 0.404740 0.177602
vt 0.194075 0.253606
vt 0.415015 0.204984
vt 0.194375 0.280989
vt 0.666182 0.458471
vt 0.749536 0.216495
vt 0.333858 0.810420
vt 0.482548 0.810420
vt 0.482548 0.959111
vt 0.333858 0.959111
vt 0.954311 0.264288
vt 0.852013 0.459752
vt -0.727496 0.474897
vt -0.701703 0.474897
vt -0.701703 0.500689
vt -0.727496 0.500689
vt -1.408821 0.790398
vt -1.364616 0.790398
vt -1.364616 0.834602
vt -1.408821 0.834602
vt 0.193206 0.111543
vt 0.123273 0.166853
vt 0.122807 0.131768
vt 0.829833 0.536959
vt 0.791355 0.536447
vt 0.660140 0.536006
vt 0.630110 0.535678
vt 0.123975 0.313881
vt 0.123676 0.286498
vt 0.371435 0.018265
vt 0.418527 0.000861
vt 0.434558 0.025582
vt 0.946287 0.195062
vt 0.973398 0.212643
vt 0.768623 0.164850
vt 0.798654 0.176118
vt 0.451832 0.160198
vt 0.462106 0.187580
vt 0.069323 0.287655
vt 0.068921 0.168010
vt 0.790086 0.596056
vt 0.658872 0.595615
vt 0.069622 0.315037
vt 0.628841 0.595287
vt 0.828564 0.596568
vt 0.068454 0.132924
vt 0.068295 0.115698
vt 0.122648 0.114541
vt 0.848726 0.537133
vt 0.847457 0.596742
vt 0.296481 0.778563
vt 0.465802 0.778563
vt 0.465802 0.947884
vt 0.296481 0.947884
vt 0.882328 0.553418
vt 0.881059 0.597051
vt 0.108976 0.116494
vt 0.054623 0.117651
vt 0.054341 0.087011
vt 0.094127 0.085854
vt 0.107799 0.083901
vt 0.068013 0.085058
vt 0.067876 0.071816
vt 0.099715 0.070660
vt 0.896850 0.562283
vt 0.895581 0.597202
vt 0.213162 0.298524
vt 0.197060 0.311551
vt 0.632665 0.455526
vt 0.646952 0.437867
vt 0.000000 0.000000
vt 1.000000 0.000000
vt 1.000000 1.000000
vt 0.000000 1.000000
vt 0.309848 0.788364
vt 0.475308 0.788364
vt 0.475308 0.953824
vt 0.309848 0.953824
vt 0.596042 0.443658
vt 0.597803 0.421011
vt 0.228531 0.343339
vt 0.207881 0.344944
vt 0.224803 0.449870
vt 0.204153 0.451475
vt 0.479211 0.447746
vt 0.480971 0.425100
vt 0.314329 0.792844
vt 0.470828 0.792844
vt 0.470828 0.949343
vt 0.314329 0.949343
vt 0.206892 0.478764
vt 0.227542 0.477159
vt 0.124172 0.471787
vt 0.123539 0.450009
vt 0.449283 0.444743
vt 0.480819 0.536156
vt 0.456935 0.535462
vt 0.306798 0.789219
vt 0.474452 0.789219
vt 0.474452 0.956874
vt 0.306798 0.956874
vt 0.479459 0.593913
vt 0.070875 0.451248
vt 0.302167 0.788495
vt 0.479083 0.788495
vt 0.479083 0.965412
vt 0.302167 0.965412
vt 0.071091 0.472895
vt 0.455719 0.593675
vt 0.125767 0.709036
vt 0.072686 0.710145
vt 0.195528 0.591926
vt 0.196743 0.533713
vt 0.336313 0.795297
vt 0.444937 0.795297
vt 0.444937 0.903921
vt 0.336313 0.903921
vt 0.038819 0.761475
vt 0.258057 0.761475
vt 0.258057 0.980713
vt 0.038819 0.980713
vt 0.543634 0.830499
vt 0.640937 0.830499
vt 0.640937 0.927802
vt 0.543634 0.927802
vt 0.538555 0.806133
vt 0.633320 0.806133
vt 0.633320 0.900898
vt 0.538555 0.900898
vn 0.358133 0.669758 0.650511
vn -0.358133 -0.669758 -0.650511
vn -0.352922 -0.668623 -0.654514
vn 0.363328 0.670864 0.646479
vn -0.783870 -0.162826 0.599196
vn 0.418187 0.689153 0.591766
vn -0.295416 -0.645385 -0.704420
vn 0.699008 0.269557 -0.662365
vn -0.296341 -0.653167 -0.696817
vn 0.809173 0.124953 -0.574131
vn 0.417690 0.682172 0.600147
vn 0.363480 0.671496 0.645736
vn -0.352766 -0.667984 -0.655251
vn 0.772383 0.178916 -0.609438
vn -0.179258 -0.762635 -0.621494
vn 0.522158 0.549111 0.652555
vn -0.772383 -0.178916 0.609438
vn 0.451559 0.530336 0.717522
vn -0.253010 -0.787308 -0.562256
vn 0.414179 0.521698 0.745847
vn -0.289856 -0.794946 -0.532959
vn 0.337811 -0.742472 0.578462
vn 0.528385 -0.719807 0.450208
vn 0.681308 -0.663855 0.308409
vn -0.358133 -0.669759 -0.650511
vn -0.352070 -0.670189 -0.653371
vn 0.364179 0.669298 0.647621
vn 0.412406 0.664472 0.623216
vn -0.302527 -0.672554 -0.675388
vn -0.227328 0.738307 -0.634999
vn -0.234170 0.738888 -0.631830
vn -0.236318 0.739062 -0.630826
vn -0.232609 0.738759 -0.632557
vn 0.358133 0.669759 0.650511
vn 0.232608 -0.738759 0.632557
vn 0.597103 -0.699917 0.391897
vn 0.358132 0.669759 0.650511
vn -0.358132 -0.669758 -0.650512
vn -0.232607 0.738759 -0.632558
vn -0.233697 0.738849 -0.632050
vn 0.663675 -0.672668 0.327191
vn 0.897594 -0.055170 -0.437358
vn -0.719570 -0.690193 -0.076502
vn -0.898727 0.058460 0.434595
vn -0.168239 0.340873 0.924933
vn 0.815607 -0.563538 0.131188
vn 0.506166 -0.724729 0.467508
vn -0.492768 0.727373 -0.477607
vn -0.358133 -0.669759 -0.650510
vn -0.192447 0.734716 -0.650505
vn 0.192447 -0.734715 0.650505
vn 0.313662 -0.742537 0.591824
vn 0.358133 0.669759 0.650510
vn -0.886228 0.024580 0.462597
vn -0.921976 0.143758 0.359574
vn -0.264813 -0.849227 -0.456823
vn 0.423364 0.437759 0.793177
vn 0.910261 -0.095424 -0.402889
vn -0.250516 0.740107 -0.624086
vn -0.232608 0.738759 -0.632558
vn 0.221375 -0.737769 0.637722
vn -0.233325 0.738818 -0.632224
vn -0.230370 0.738571 -0.633595
vn 0.230370 -0.738571 0.633595
vn -0.901453 0.066593 0.427724
vn -0.416678 -0.336636 -0.844426
vn -0.326589 -0.758452 -0.563995
vn -0.136589 -0.985184 -0.103715
vn 0.151590 -0.852580 0.500128
vn 0.380308 -0.269279 0.884791
vn 0.416678 0.336636 0.844426
vn 0.326589 0.758452 0.563995
vn 0.136588 0.985184 0.103714
vn -0.151590 0.852580 -0.500127
vn -0.380308 0.269280 -0.884790
vn -0.906335 0.082017 0.414525
vn -0.906333 0.082015 0.414528
vn -0.906333 0.082015 0.414529
vn -0.906332 0.082013 0.414531
vn -0.906330 0.082015 0.414535
vn -0.906330 0.082020 0.414534
vn -0.906331 0.082022 0.414533
vn -0.906332 0.082022 0.414530
vn -0.906334 0.082020 0.414526
vn -0.906334 0.082018 0.414526
vn 0.416679 0.336635 0.844426
vn -0.151589 0.852581 -0.500126
vn -0.380309 0.269278 -0.884791
vn -0.416678 -0.336635 -0.844427
vn -0.326590 -0.758451 -0.563996
vn -0.136590 -0.985183 -0.103716
vn 0.151589 -0.852581 0.500126
vn 0.380309 -0.269278 0.884791
vn -0.578839 -0.719503 -0.383746
vn 0.578839 0.719503 0.383746
vn 0.907371 -0.085464 -0.411552
vn 0.224281 -0.738036 0.636397
vn -0.764323 -0.189846 0.616254
vn -0.126165 0.725049 -0.677043
usemtl Material_pistol_Cube-k.tga
s off
f 54/43/34 58/44/34 59/45/34 55/46/34
f 57/47/35 53/48/35 56/49/35 60/50/35
f 60/50/36 56/49/36 63/51/36 61/52/36
f 55/46/37 59/45/37 62/53/37 64/54/37
f 64/55/38 62/56/38 61/57/38 63/58/38
f 58/44/39 54/43/39 67/59/39 65/60/39
f 53/61/40 57/62/40 66/63/40 68/64/40
f 68/65/41 66/66/41 65/67/41 67/68/41
f 66/69/42 57/47/42 76/70/42 69/71/42
f 65/55/43 66/56/43 69/57/43 70/58/43
f 58/44/44 65/60/44 70/72/44 75/73/44
f 62/53/45 59/45/45 74/74/45 71/75/45
f 60/50/46 61/52/46 72/76/46 73/77/46
f 59/45/34 58/44/34 75/73/34 74/74/34
f 57/47/35 60/50/35 73/77/35 76/70/35
f 68/55/47 67/56/47 78/57/47 77/58/47
f 53/48/48 68/78/48 77/79/48 84/80/48
f 67/59/49 54/43/49 83/81/49 78/82/49
f 64/55/50 63/56/50 80/57/50 79/58/50
f 55/46/51 64/54/51 79/83/51 82/84/51
f 63/51/52 56/49/52 81/85/52 80/86/52
f 54/43/53 55/46/53 82/84/53 83/81/53
f 56/49/54 53/48/54 84/80/54 81/85/54
f 84/55/55 83/56/55 82/57/55 81/58/55
f 81/55/56 82/56/56 79/57/56 80/58/56
f 83/55/57 84/56/57 77/57/57 78/58/57
f 76/70/58 73/77/58 88/87/58 85/88/58
f 74/74/34 75/73/34 86/89/34 87/90/34
f 73/77/59 72/76/59 89/91/59 88/87/59
f 71/75/60 74/74/60 87/90/60 90/92/60
f 75/73/61 70/72/61 91/93/61 86/89/61
f 69/71/62 76/70/62 85/88/62 92/94/62
f 85/65/63 88/66/63 87/67/63 86/68/63
f 87/65/64 88/66/64 89/67/64 90/68/64
f 85/65/65 86/66/65 91/67/65 92/68/65
f 92/65/66 91/66/66 94/67/66 93/68/66
f 69/71/35 92/94/35 93/95/35 96/96/35
f 91/93/67 70/72/67 95/97/67 94/98/67
f 70/99/68 69/100/68 96/101/68 95/102/68
f 95/55/69 96/56/69 97/57/69 98/58/69
f 94/98/70 95/97/70 98/103/70 99/104/70
f 96/105/71 93/106/71 100/107/71 97/108/71
f 93/65/72 94/66/72 99/67/72 100/68/72
f 100/65/73 99/66/73 102/67/73 101/68/73
f 97/109/35 100/110/35 101/111/35 104/112/35
f 99/104/70 98/103/70 103/113/70 102/114/70
f 98/55/74 97/56/74 104/57/74 103/58/74
f 103/55/75 104/56/75 101/57/75 102/58/75
f 72/76/76 61/52/76 108/115/76 105/116/76
f 71/55/77 72/56/77 105/57/77 106/58/77
f 62/53/78 71/75/78 106/117/78 107/118/78
f 61/119/79 62/120/79 107/121/79 108/122/79
f 108/123/80 107/124/80 110/125/80 109/126/80
f 107/118/34 106/117/34 111/127/34 110/128/34
f 106/55/81 105/56/81 112/57/81 111/58/81
f 105/116/82 108/115/82 109/129/82 112/130/82
f 112/130/82 109/129/82 116/131/82 113/132/82
f 111/55/83 112/56/83 113/57/83 114/58/83
f 110/128/67 111/127/67 114/133/67 115/134/67
f 109/123/84 110/124/84 115/125/84 116/126/84
f 116/135/85 115/136/85 118/137/85 117/138/85
f 115/131/86 114/132/86 119/139/86 118/140/86
f 113/132/35 116/131/35 117/140/35 120/139/35
f 117/55/87 118/56/87 119/57/87 120/58/87
f 120/55/88 119/56/88 122/57/88 121/58/88
f 113/132/89 120/139/89 121/141/89 124/142/89
f 119/143/90 114/133/90 123/144/90 122/145/90
f 114/146/91 113/147/91 124/148/91 123/149/91
f 123/65/92 124/66/92 121/67/92 122/68/92
f 90/65/93 89/66/93 126/67/93 125/68/93
f 71/75/67 90/92/67 125/150/67 123/144/67
f 89/91/58 72/76/58 124/142/58 126/151/58
f 72/152/94 71/153/94 123/154/94 124/155/94
f 126/151/35 124/142/35 121/141/35 127/156/35
f 123/144/34 125/150/34 128/157/34 122/145/34
f 125/65/95 126/66/95 127/67/95 128/68/95
f 127/156/35 121/141/35 132/158/35 130/159/35
f 122/145/34 128/157/34 129/160/34 131/161/34
f 128/162/96 127/163/96 130/164/96 129/165/96
f 121/99/97 122/100/97 131/101/97 132/102/97
f 132/55/98 131/56/98 129/57/98 130/58/98
f 133/166/99 143/167/99 144/168/99 134/169/99
f 134/166/100 144/167/100 145/168/100 135/169/100
f 135/166/101 145/167/101 146/168/101 136/169/101
f 136/166/102 146/167/102 147/168/102 137/169/102
f 137/166/103 147/167/103 148/168/103 138/169/103
f 138/166/104 148/167/104 149/168/104 139/169/104
f 139/166/105 149/167/105 150/168/105 140/169/105
f 140/166/106 150/167/106 151/168/106 141/169/106
f 141/166/107 151/167/107 152/168/107 142/169/107
f 142/166/108 152/167/108 143/168/108 133/169/108
f 133/166/109 134/167/109 154/168/109 153/169/109
f 134/166/110 135/167/110 155/168/110 154/169/110
f 135/166/111 136/167/111 156/168/111 155/169/111
f 136/166/112 137/167/112 157/168/112 156/169/112
f 137/166/113 138/167/113 158/168/113 157/169/113
f 138/166/114 139/167/114 159/168/114 158/169/114
f 139/166/115 140/167/115 160/168/115 159/169/115
f 140/166/116 141/167/116 161/168/116 160/169/116
f 141/166/117 142/167/117 162/168/117 161/169/117
f 142/166/118 133/167/118 153/168/118 162/169/118
f 153/166/119 154/167/119 163/168/119 164/169/119
f 154/166/105 155/167/105 165/168/105 163/169/105
f 155/166/106 156/167/106 166/168/106 165/169/106
f 156/166/120 157/167/120 167/168/120 166/169/120
f 157/166/121 158/167/121 168/168/121 167/169/121
f 158/166/122 159/167/122 169/168/122 168/169/122
f 159/166/123 160/167/123 170/168/123 169/169/123
f 160/166/124 161/167/124 171/168/124 170/169/124
f 161/166/125 162/167/125 172/168/125 171/169/125
f 162/166/126 153/167/126 164/168/126 172/169/126
f 175/170/127 176/171/127 173/172/127 174/173/127
f 177/170/128 180/171/128 179/172/128 178/173/128
f 173/170/129 177/171/129 178/172/129 174/173/129
f 174/170/130 178/171/130 179/172/130 175/173/130
f 175/174/131 179/175/131 180/176/131 176/177/131
f 176/170/132 180/171/132 177/172/132 173/173/132
