# Blender v2.59 (sub 0) OBJ File: 'pistol.blend'
# www.blender.org
mtllib pistol_000027.mtl
o Cube.003
v -0.134279 0.154358 0.713365
v -0.108841 0.203819 0.769738
v -0.151210 0.219748 0.774880
v -0.176647 0.170288 0.718507
v -0.094654 0.210402 0.646314
v -0.069216 0.259862 0.702687
v -0.158615 0.276088 0.728791
v -0.184053 0.226628 0.672417
v -0.205468 0.146461 0.772544
v -0.189235 0.178025 0.808518
v -0.158601 0.156748 0.813362
v -0.174833 0.125185 0.777388
vn -0.050274 0.761877 -0.645768
vn 0.852222 -0.518434 0.070312
vn 0.321213 0.624566 0.711857
vn -0.941583 0.130292 0.310558
vn -0.321213 -0.624566 -0.711857
vn -0.790710 0.590548 -0.161339
vn -0.379453 -0.740099 -0.555220
vn 0.760049 -0.618440 0.199645
vn 0.249715 0.483254 0.839111
vn -0.483125 -0.538439 0.690416
usemtl Material.001
s off
f 5//1 8//1 7//1 6//1
f 1//2 5//2 6//2 2//2
f 2//3 6//3 7//3 3//3
f 3//4 7//4 8//4 4//4
f 5//5 1//5 4//5 8//5
f 3//6 4//6 9//6 10//6
f 4//7 1//7 12//7 9//7
f 1//8 2//8 11//8 12//8
f 2//9 3//9 10//9 11//9
f 12//10 11//10 10//10 9//10
o Cube.002
v 0.760536 -0.776263 1.391961
v 0.796708 -0.707730 1.454334
v 0.650900 -0.723369 1.556076
v 0.614729 -0.791902 1.493704
v 0.535489 -0.414562 1.125042
v 0.571661 -0.346028 1.187415
v 0.425853 -0.361667 1.289157
v 0.389681 -0.430201 1.226785
vn 0.447666 -0.719499 0.530958
vn -0.447666 0.719499 -0.530958
vn 0.816930 0.087622 -0.570042
vn 0.363621 0.688944 0.627006
vn -0.816930 -0.087622 0.570042
vn -0.363622 -0.688944 -0.627006
usemtl Material.002
s off
f 13//11 14//11 15//11 16//11
f 17//12 20//12 19//12 18//12
f 13//13 17//13 18//13 14//13
f 14//14 18//14 19//14 15//14
f 15//15 19//15 20//15 16//15
f 17//16 13//16 16//16 20//16
o Cube.001
v 0.157299 0.217379 0.500323
v 0.202917 0.298221 0.609683
v -0.716013 0.363749 0.944564
v -0.761631 0.282907 0.835204
v 0.141615 0.308591 0.439438
v 0.187233 0.389434 0.548798
v -0.731697 0.454961 0.883678
v -0.777315 0.374119 0.774319
v -0.678026 0.412738 0.789052
v -0.670904 0.403213 0.793123
v -0.715431 0.405787 0.809794
v -0.704382 0.414618 0.798657
v -0.673480 0.420795 0.799951
v -0.666358 0.411270 0.804021
v -0.710885 0.413843 0.820693
v -0.699836 0.422674 0.809556
v 0.124440 0.381319 0.504013
v 0.136535 0.356421 0.517374
v 0.085981 0.360026 0.535797
v 0.088310 0.383895 0.517180
v 0.127483 0.386711 0.511307
v 0.139577 0.361812 0.524668
v 0.089023 0.365417 0.543091
v 0.091353 0.389287 0.524473
v 0.080411 0.369896 0.498241
v 0.078081 0.346026 0.516859
v 0.128635 0.342421 0.498436
v 0.116540 0.367319 0.485075
v 0.077368 0.364504 0.490948
v 0.075038 0.340634 0.509565
v 0.125592 0.337029 0.491142
v 0.113498 0.361928 0.477781
vt 0.981492 0.700396
vt 0.981492 0.559075
vt 0.015757 0.559075
vt 0.015757 0.700396
vt 0.256982 0.028856
vt 0.256982 0.201167
vt 0.033870 0.201167
vt 0.033870 0.028856
vt 0.970962 0.782064
vt 0.970962 0.890592
vt 0.010662 0.890592
vt 0.010662 0.782064
vt 0.016806 0.783088
vt 0.016806 0.891616
vt 0.029279 0.489607
vt 0.029280 0.383592
vt 0.967338 0.383592
vt 0.967338 0.489607
vt 0.925445 0.487516
vt 0.912457 0.498835
vt 0.885552 0.498835
vt 0.879885 0.488225
vt 0.094387 0.900039
vt 0.066845 0.900039
vt 0.053548 0.888452
vt 0.100189 0.889177
vt 0.884250 0.887914
vt 0.891057 0.916869
vt 0.928814 0.916869
vt 0.937080 0.887914
vt 0.125150 0.242886
vt 0.110271 0.242886
vt 0.110271 0.196916
vt 0.125150 0.196916
vt 0.107333 0.515275
vt 0.070451 0.515275
vt 0.113983 0.486992
vt 0.062377 0.486992
vt 0.178668 0.242886
vt 0.163788 0.242886
vt 0.163788 0.196916
vt 0.178668 0.196916
vn 0.141573 -0.823349 0.549593
vn -0.141573 0.823349 -0.549593
vn 0.937454 -0.066849 -0.341631
vn 0.318021 0.563584 0.762388
vn -0.937454 0.066848 0.341630
vn -0.318021 -0.563584 -0.762388
vn 0.760177 0.328966 -0.560279
vn 0.156131 -0.824290 0.544215
vn -0.722630 0.664641 -0.189890
vn -0.141572 0.823350 -0.549593
vn -0.318021 -0.563585 -0.762388
vn 0.862572 0.161748 -0.479381
vn 0.141573 -0.823349 0.549594
vn -0.944973 0.253515 0.206776
vn -0.141573 0.823349 -0.549594
vn -0.141574 0.823348 -0.549596
vn 0.141574 -0.823348 0.549596
vn 0.862572 0.161748 -0.479383
usemtl _pistol-2_Cube.001-k.t
s off
f 21/1/17 22/2/17 23/3/17 24/4/17
f 25/1/18 28/4/18 27/3/18 26/2/18
f 21/5/19 25/6/19 26/7/19 22/8/19
f 22/9/20 26/10/20 27/11/20 23/12/20
f 23/13/21 27/14/21 28/14/21 24/13/21
f 25/15/22 21/16/22 24/17/22 28/18/22
f 31/19/22 32/20/22 29/21/22 30/22/22
f 33/23/20 36/24/20 35/25/20 34/26/20
f 29/21/23 33/21/23 34/22/23 30/22/23
f 30/22/24 34/22/24 35/19/24 31/19/24
f 31/19/25 35/19/25 36/20/25 32/20/25
f 32/20/26 36/20/26 33/21/26 29/21/26
f 39/27/27 40/28/27 37/29/27 38/30/27
f 41/29/20 44/28/20 43/27/20 42/30/20
f 37/31/28 41/32/28 42/33/28 38/34/28
f 38/30/29 42/30/29 43/27/29 39/27/29
f 39/27/30 43/27/30 44/28/30 40/28/30
f 40/28/31 44/28/31 41/29/31 37/29/31
f 49/35/32 45/35/32 48/36/32 52/36/32
f 50/37/30 46/37/30 45/35/30 49/35/30
f 51/38/33 47/38/33 46/37/33 50/37/33
f 52/39/34 48/40/34 47/41/34 51/42/34
f 48/29/20 45/28/20 46/27/20 47/30/20
f 50/37/22 49/35/22 52/36/22 51/38/22
o Cube
v 0.301136 -0.152720 0.738674
v 0.340146 -0.083581 0.832188
v 0.152512 -0.091500 0.916317
v 0.113502 -0.160639 0.822802
v 0.130217 0.098421 0.624296
v 0.169227 0.167560 0.717810
v -0.000750 0.179185 0.780123
v -0.039761 0.110046 0.686609
v -0.078706 0.112291 0.700830
v -0.039518 0.181744 0.794769
v 0.076698 -0.170847 0.845337
v 0.115885 -0.101394 0.939276
v 0.199958 0.164040 0.703332
v 0.163014 0.098563 0.614771
v 0.370809 -0.067906 0.803546
v 0.333865 -0.133382 0.714985
v 0.119152 0.188496 0.566577
v 0.156096 0.253972 0.655138
v -0.101385 0.272961 0.753138
v -0.140573 0.203507 0.659198
v -0.101628 0.201263 0.644977
v -0.062617 0.270401 0.738491
v 0.107360 0.258777 0.676179
v 0.068350 0.189638 0.582664
v 0.372896 -0.186520 0.755241
v 0.401475 -0.135869 0.823750
v 0.146297 -0.169807 0.958871
v 0.115983 -0.223534 0.886202
v 0.152766 -0.213362 0.863619
v 0.182944 -0.159878 0.935960
v 0.370578 -0.151959 0.851831
v 0.340400 -0.205443 0.779491
v 0.055036 0.257606 0.537967
v 0.094046 0.326745 0.631481
v -0.075931 0.338370 0.693794
v -0.114941 0.269231 0.600280
v -0.153887 0.271476 0.614501
v -0.114699 0.340929 0.708440
v 0.142783 0.321940 0.610441
v 0.105839 0.256464 0.521880
v 0.130291 0.254916 0.512824
v 0.167235 0.320392 0.601385
v 0.180549 0.252424 0.646083
v 0.143605 0.186947 0.557522
v 0.183967 0.202379 0.529275
v 0.220911 0.267855 0.617836
v 0.210726 0.317638 0.585278
v 0.173782 0.252162 0.496717
v 0.192574 0.250992 0.489743
v 0.229518 0.316468 0.578304
v 0.237998 0.276604 0.604240
v 0.201054 0.211128 0.515679
v -0.110272 0.132062 0.745984
v -0.093681 0.161465 0.785753
v -0.071708 0.140044 0.792425
v -0.088298 0.110640 0.752655
v -0.148699 0.095997 0.788678
v -0.132109 0.125400 0.828448
v -0.138823 0.151341 0.812070
v -0.155414 0.121937 0.772301
v -0.307636 0.137389 0.824378
v -0.291046 0.166792 0.864147
v -0.284331 0.140852 0.880525
v -0.300921 0.111448 0.840755
v -0.339122 0.110795 0.857174
v -0.322532 0.140199 0.896944
v -0.329247 0.166139 0.880566
v -0.345837 0.136736 0.840796
v -0.364978 0.219267 0.741159
v -0.325790 0.288720 0.835099
v -0.294971 0.287303 0.823290
v -0.334159 0.217850 0.729351
v -0.308040 0.353171 0.780043
v -0.347227 0.283718 0.686103
v -0.377950 0.285642 0.697497
v -0.338762 0.355095 0.791436
v -0.675646 0.377151 0.915664
v -0.714833 0.307698 0.821724
v -0.662674 0.310776 0.959326
v -0.701862 0.241323 0.865387
v -0.742082 0.391937 0.820254
v -0.741853 0.367706 0.825624
v -0.737213 0.348619 0.842090
v -0.729935 0.341967 0.863362
v -0.722798 0.350290 0.881316
v -0.718529 0.370409 0.889094
v -0.718758 0.394640 0.883724
v -0.723398 0.413726 0.867258
v -0.730676 0.420379 0.845986
v -0.737813 0.412056 0.828032
v -0.443197 0.370623 0.711329
v -0.442968 0.346393 0.716699
v -0.438328 0.327306 0.733165
v -0.431050 0.320654 0.754437
v -0.423913 0.328977 0.772391
v -0.419644 0.349096 0.780169
v -0.419873 0.373326 0.774799
v -0.424513 0.392413 0.758333
v -0.431791 0.399065 0.737061
v -0.438928 0.390742 0.719107
v -0.737817 0.388038 0.832720
v -0.737671 0.372583 0.836145
v -0.734711 0.360409 0.846647
v -0.730069 0.356166 0.860216
v -0.725517 0.361475 0.871668
v -0.722794 0.374307 0.876628
v -0.722940 0.389763 0.873203
v -0.725899 0.401937 0.862701
v -0.730542 0.406180 0.849132
v -0.735094 0.400871 0.837681
v -0.571173 0.360710 0.775467
v -0.571319 0.376166 0.772042
v -0.568214 0.348536 0.785969
v -0.563571 0.344293 0.799538
v -0.559019 0.349602 0.810989
v -0.556296 0.362435 0.815950
v -0.556442 0.377890 0.812525
v -0.559402 0.390064 0.802023
v -0.564044 0.394307 0.788454
v -0.568596 0.388998 0.777003
v 0.770902 -0.278468 0.009500
v 0.822706 -0.449491 0.188481
v 0.015144 -0.216294 0.745836
v -0.169099 0.093924 0.593339
v 0.887080 -0.072563 0.287997
v 0.938884 -0.243587 0.466978
v 0.131322 -0.010390 1.024333
v -0.052921 0.299828 0.871836
vt 0.927200 0.246707
vt 0.827427 0.459240
vt 0.696213 0.458799
vt 0.779567 0.227763
vt 0.193673 0.133961
vt 0.387467 0.042986
vt 0.404740 0.177602
vt 0.194075 0.253606
vt 0.415015 0.204984
vt 0.194375 0.280989
vt 0.666182 0.458471
vt 0.749536 0.216495
vt 0.333858 0.810420
vt 0.482548 0.810420
vt 0.482548 0.959111
vt 0.333858 0.959111
vt 0.954311 0.264288
vt 0.852013 0.459752
vt -0.727496 0.474897
vt -0.701703 0.474897
vt -0.701703 0.500689
vt -0.727496 0.500689
vt -1.408821 0.790398
vt -1.364616 0.790398
vt -1.364616 0.834602
vt -1.408821 0.834602
vt 0.193206 0.111543
vt 0.123273 0.166853
vt 0.122807 0.131768
vt 0.829833 0.536959
vt 0.791355 0.536447
vt 0.660140 0.536006
vt 0.630110 0.535678
vt 0.123975 0.313881
vt 0.123676 0.286498
vt 0.371435 0.018265
vt 0.418527 0.000861
vt 0.434558 0.025582
vt 0.946287 0.195062
vt 0.973398 0.212643
vt 0.768623 0.164850
vt 0.798654 0.176118
vt 0.451832 0.160198
vt 0.462106 0.187580
vt 0.069323 0.287655
vt 0.068921 0.168010
vt 0.790086 0.596056
vt 0.658872 0.595615
vt 0.069622 0.315037
vt 0.628841 0.595287
vt 0.828564 0.596568
vt 0.068454 0.132924
vt 0.068295 0.115698
vt 0.122648 0.114541
vt 0.848726 0.537133
vt 0.847457 0.596742
vt 0.296481 0.778563
vt 0.465802 0.778563
vt 0.465802 0.947884
vt 0.296481 0.947884
vt 0.882328 0.553418
vt 0.881059 0.597051
vt 0.108976 0.116494
vt 0.054623 0.117651
vt 0.054341 0.087011
vt 0.094127 0.085854
vt 0.107799 0.083901
vt 0.068013 0.085058
vt 0.067876 0.071816
vt 0.099715 0.070660
vt 0.896850 0.562283
vt 0.895581 0.597202
vt 0.213162 0.298524
vt 0.197060 0.311551
vt 0.632665 0.455526
vt 0.646952 0.437867
vt 0.000000 0.000000
vt 1.000000 0.000000
vt 1.000000 1.000000
vt 0.000000 1.000000
vt 0.309848 0.788364
vt 0.475308 0.788364
vt 0.475308 0.953824
vt 0.309848 0.953824
vt 0.596042 0.443658
vt 0.597803 0.421011
vt 0.228531 0.343339
vt 0.207881 0.344944
vt 0.224803 0.449870
vt 0.204153 0.451475
vt 0.479211 0.447746
vt 0.480971 0.425100
vt 0.314329 0.792844
vt 0.470828 0.792844
vt 0.470828 0.949343
vt 0.314329 0.949343
vt 0.206892 0.478764
vt 0.227542 0.477159
vt 0.124172 0.471787
vt 0.123539 0.450009
vt 0.449283 0.444743
vt 0.480819 0.536156
vt 0.456935 0.535462
vt 0.306798 0.789219
vt 0.474452 0.789219
vt 0.474452 0.956874
vt 0.306798 0.956874
vt 0.479459 0.593913
vt 0.070875 0.451248
vt 0.302167 0.788495
vt 0.479083 0.788495
vt 0.479083 0.965412
vt 0.302167 0.965412
vt 0.071091 0.472895
vt 0.455719 0.593675
vt 0.125767 0.709036
vt 0.072686 0.710145
vt 0.195528 0.591926
vt 0.196743 0.533713
vt 0.336313 0.795297
vt 0.444937 0.795297
vt 0.444937 0.903921
vt 0.336313 0.903921
vt 0.038819 0.761475
vt 0.258057 0.761475
vt 0.258057 0.980713
vt 0.038819 0.980713
vt 0.543634 0.830499
vt 0.640937 0.830499
vt 0.640937 0.927802
vt 0.543634 0.927802
vt 0.538555 0.806133
vt 0.633320 0.806133
vt 0.633320 0.900898
vt 0.538555 0.900898
vn 0.318022 0.563635 0.762350
vn -0.318022 -0.563635 -0.762350
vn -0.312432 -0.562218 -0.765700
vn 0.323596 0.565027 0.758966
vn -0.840219 -0.204942 0.502027
vn 0.383788 0.587856 0.712132
vn -0.249891 -0.535225 -0.806901
vn 0.764916 0.322540 -0.557558
vn -0.251754 -0.543880 -0.800509
vn 0.861909 0.163078 -0.480123
vn 0.382305 0.579875 0.719436
vn 0.323835 0.565744 0.758330
vn -0.312189 -0.561496 -0.766329
vn -0.318022 -0.563636 -0.762350
vn 0.830232 0.222706 -0.510995
vn -0.145582 -0.667161 -0.730549
vn 0.477275 0.436739 0.762541
vn -0.830233 -0.222706 0.510995
vn 0.400464 0.412784 0.818070
vn -0.225194 -0.696080 -0.681733
vn 0.360391 0.402177 0.841649
vn -0.264792 -0.705844 -0.657015
vn 0.259762 -0.825127 0.501687
vn 0.461905 -0.794321 0.394585
vn 0.628867 -0.727152 0.275275
vn -0.311738 -0.563954 -0.764706
vn 0.324289 0.563291 0.759960
vn 0.374373 0.559581 0.739401
vn -0.260486 -0.565593 -0.782465
vn -0.144752 0.823534 -0.548487
vn -0.151833 0.823995 -0.545874
vn -0.154058 0.824131 -0.545046
vn -0.150217 0.823894 -0.546473
vn 0.150216 -0.823894 0.546474
vn 0.536270 -0.770043 0.345613
vn 0.318021 0.563635 0.762350
vn -0.318021 -0.563635 -0.762350
vn -0.150215 0.823894 -0.546474
vn -0.151345 0.823965 -0.546055
vn -0.318021 -0.563636 -0.762350
vn 0.318022 0.563636 0.762350
vn 0.609317 -0.737552 0.291119
vn 0.931692 -0.036916 -0.361369
vn -0.730989 -0.642585 -0.229653
vn -0.932462 0.040583 0.358981
vn -0.241407 0.225109 0.943954
vn 0.781939 -0.610637 0.125275
vn 0.438050 -0.800475 0.409087
vn -0.423706 0.803822 -0.417545
vn -0.108727 0.820472 -0.561252
vn 0.318021 0.563636 0.762350
vn 0.108727 -0.820472 0.561252
vn 0.234500 -0.825874 0.512778
vn -0.923658 0.002848 0.383207
vn -0.946034 0.135811 0.294237
vn -0.248557 -0.770570 -0.586892
vn 0.362543 0.312494 0.878015
vn 0.939869 -0.081808 -0.331592
vn -0.168772 0.824909 -0.539483
vn 0.138594 -0.823096 0.550731
vn -0.150957 0.823941 -0.546199
vn -0.147900 0.823745 -0.547330
vn 0.147900 -0.823745 0.547330
vn -0.934289 0.049648 0.353042
vn -0.347999 -0.205969 -0.914589
vn -0.297356 -0.664077 -0.685989
vn -0.157581 -0.956574 -0.245224
vn 0.078114 -0.915971 0.393567
vn 0.288952 -0.397913 0.870730
vn 0.347999 0.205967 0.914590
vn 0.297355 0.664078 0.685989
vn 0.157581 0.956574 0.245223
vn -0.078114 0.915971 -0.393568
vn -0.288952 0.397916 -0.870729
vn -0.937452 0.066847 0.341637
vn -0.937452 0.066845 0.341637
vn -0.937450 0.066842 0.341641
vn -0.937449 0.066846 0.341644
vn -0.937449 0.066847 0.341645
vn -0.937447 0.066850 0.341648
vn -0.937448 0.066852 0.341646
vn -0.937449 0.066852 0.341643
vn -0.937450 0.066851 0.341640
vn -0.937451 0.066851 0.341639
vn 0.297356 0.664077 0.685989
vn -0.078113 0.915972 -0.393566
vn -0.288952 0.397914 -0.870730
vn -0.347999 -0.205967 -0.914590
vn -0.157582 -0.956573 -0.245226
vn 0.078113 -0.915972 0.393566
vn 0.288952 -0.397916 0.870730
vn -0.563699 -0.637909 -0.524705
vn 0.563699 0.637909 0.524705
vn 0.938101 -0.070694 -0.339071
vn 0.141599 -0.823314 0.549639
vn -0.823180 -0.234767 0.516971
vn -0.040632 0.811460 -0.582994
usemtl Material_pistol_Cube-k.tga
s off
f 54/43/35 58/44/35 59/45/35 55/46/35
f 57/47/36 53/48/36 56/49/36 60/50/36
f 60/50/37 56/49/37 63/51/37 61/52/37
f 55/46/38 59/45/38 62/53/38 64/54/38
f 64/55/39 62/56/39 61/57/39 63/58/39
f 58/44/40 54/43/40 67/59/40 65/60/40
f 53/61/41 57/62/41 66/63/41 68/64/41
f 68/65/42 66/66/42 65/67/42 67/68/42
f 66/69/43 57/47/43 76/70/43 69/71/43
f 65/55/44 66/56/44 69/57/44 70/58/44
f 58/44/45 65/60/45 70/72/45 75/73/45
f 62/53/46 59/45/46 74/74/46 71/75/46
f 60/50/47 61/52/47 72/76/47 73/77/47
f 59/45/35 58/44/35 75/73/35 74/74/35
f 57/47/48 60/50/48 73/77/48 76/70/48
f 68/55/49 67/56/49 78/57/49 77/58/49
f 53/48/50 68/78/50 77/79/50 84/80/50
f 67/59/51 54/43/51 83/81/51 78/82/51
f 64/55/52 63/56/52 80/57/52 79/58/52
f 55/46/53 64/54/53 79/83/53 82/84/53
f 63/51/54 56/49/54 81/85/54 80/86/54
f 54/43/55 55/46/55 82/84/55 83/81/55
f 56/49/56 53/48/56 84/80/56 81/85/56
f 84/55/57 83/56/57 82/57/57 81/58/57
f 81/55/58 82/56/58 79/57/58 80/58/58
f 83/55/59 84/56/59 77/57/59 78/58/59
f 76/70/36 73/77/36 88/87/36 85/88/36
f 74/74/35 75/73/35 86/89/35 87/90/35
f 73/77/60 72/76/60 89/91/60 88/87/60
f 71/75/61 74/74/61 87/90/61 90/92/61
f 75/73/62 70/72/62 91/93/62 86/89/62
f 69/71/63 76/70/63 85/88/63 92/94/63
f 85/65/64 88/66/64 87/67/64 86/68/64
f 87/65/65 88/66/65 89/67/65 90/68/65
f 85/65/66 86/66/66 91/67/66 92/68/66
f 92/65/67 91/66/67 94/67/67 93/68/67
f 69/71/36 92/94/36 93/95/36 96/96/36
f 91/93/35 70/72/35 95/97/35 94/98/35
f 70/99/68 69/100/68 96/101/68 95/102/68
f 95/55/69 96/56/69 97/57/69 98/58/69
f 94/98/70 95/97/70 98/103/70 99/104/70
f 96/105/71 93/106/71 100/107/71 97/108/71
f 93/65/72 94/66/72 99/67/72 100/68/72
f 100/65/73 99/66/73 102/67/73 101/68/73
f 97/109/74 100/110/74 101/111/74 104/112/74
f 99/104/75 98/103/75 103/113/75 102/114/75
f 98/55/76 97/56/76 104/57/76 103/58/76
f 103/55/77 104/56/77 101/57/77 102/58/77
f 72/76/78 61/52/78 108/115/78 105/116/78
f 71/55/79 72/56/79 105/57/79 106/58/79
f 62/53/80 71/75/80 106/117/80 107/118/80
f 61/119/81 62/120/81 107/121/81 108/122/81
f 108/123/82 107/124/82 110/125/82 109/126/82
f 107/118/75 106/117/75 111/127/75 110/128/75
f 106/55/83 105/56/83 112/57/83 111/58/83
f 105/116/48 108/115/48 109/129/48 112/130/48
f 112/130/48 109/129/48 116/131/48 113/132/48
f 111/55/84 112/56/84 113/57/84 114/58/84
f 110/128/85 111/127/85 114/133/85 115/134/85
f 109/123/86 110/124/86 115/125/86 116/126/86
f 116/135/87 115/136/87 118/137/87 117/138/87
f 115/131/75 114/132/75 119/139/75 118/140/75
f 113/132/36 116/131/36 117/140/36 120/139/36
f 117/55/88 118/56/88 119/57/88 120/58/88
f 120/55/89 119/56/89 122/57/89 121/58/89
f 113/132/90 120/139/90 121/141/90 124/142/90
f 119/143/91 114/133/91 123/144/91 122/145/91
f 114/146/92 113/147/92 124/148/92 123/149/92
f 123/65/93 124/66/93 121/67/93 122/68/93
f 90/65/72 89/66/72 126/67/72 125/68/72
f 71/75/35 90/92/35 125/150/35 123/144/35
f 89/91/36 72/76/36 124/142/36 126/151/36
f 72/152/94 71/153/94 123/154/94 124/155/94
f 126/151/71 124/142/71 121/141/71 127/156/71
f 123/144/70 125/150/70 128/157/70 122/145/70
f 125/65/95 126/66/95 127/67/95 128/68/95
f 127/156/36 121/141/36 132/158/36 130/159/36
f 122/145/35 128/157/35 129/160/35 131/161/35
f 128/162/96 127/163/96 130/164/96 129/165/96
f 121/99/97 122/100/97 131/101/97 132/102/97
f 132/55/98 131/56/98 129/57/98 130/58/98
f 133/166/99 143/167/99 144/168/99 134/169/99
f 134/166/100 144/167/100 145/168/100 135/169/100
f 135/166/101 145/167/101 146/168/101 136/169/101
f 136/166/102 146/167/102 147/168/102 137/169/102
f 137/166/103 147/167/103 148/168/103 138/169/103
f 138/166/104 148/167/104 149/168/104 139/169/104
f 139/166/105 149/167/105 150/168/105 140/169/105
f 140/166/106 150/167/106 151/168/106 141/169/106
f 141/166/107 151/167/107 152/168/107 142/169/107
f 142/166/108 152/167/108 143/168/108 133/169/108
f 133/166/109 134/167/109 154/168/109 153/169/109
f 134/166/110 135/167/110 155/168/110 154/169/110
f 135/166/111 136/167/111 156/168/111 155/169/111
f 136/166/112 137/167/112 157/168/112 156/169/112
f 137/166/113 138/167/113 158/168/113 157/169/113
f 138/166/114 139/167/114 159/168/114 158/169/114
f 139/166/115 140/167/115 160/168/115 159/169/115
f 140/166/116 141/167/116 161/168/116 160/169/116
f 141/166/117 142/167/117 162/168/117 161/169/117
f 142/166/118 133/167/118 153/168/118 162/169/118
f 153/166/104 154/167/104 163/168/104 164/169/104
f 154/166/119 155/167/119 165/168/119 163/169/119
f 155/166/106 156/167/106 166/168/106 165/169/106
f 156/166/120 157/167/120 167/168/120 166/169/120
f 157/166/121 158/167/121 168/168/121 167/169/121
f 158/166/122 159/167/122 169/168/122 168/169/122
f 159/166/100 160/167/100 170/168/100 169/169/100
f 160/166/123 161/167/123 171/168/123 170/169/123
f 161/166/124 162/167/124 172/168/124 171/169/124
f 162/166/125 153/167/125 164/168/125 172/169/125
f 175/170/126 176/171/126 173/172/126 174/173/126
f 177/170/127 180/171/127 179/172/127 178/173/127
f 173/170/128 177/171/128 178/172/128 174/173/128
f 174/170/129 178/171/129 179/172/129 175/173/129
f 175/174/130 179/175/130 180/176/130 176/177/130
f 176/170/131 180/171/131 177/172/131 173/173/131
