# Blender v2.59 (sub 0) OBJ File: 'pistol.blend'
# www.blender.org
mtllib pistol_000008.mtl
o Cube.003
v -0.113142 0.137155 0.588652
v -0.113142 0.137155 0.667844
v -0.157440 0.147781 0.667844
v -0.157440 0.147781 0.588652
v -0.067381 0.221492 0.588652
v -0.067381 0.221492 0.667844
v -0.161914 0.220811 0.667844
v -0.161914 0.220811 0.588652
v -0.195154 0.095909 0.602980
v -0.195154 0.095909 0.653516
v -0.163720 0.075257 0.653516
v -0.163720 0.075257 0.602980
vn -0.007206 0.999974 -0.000000
vn 0.878951 -0.476912 0.000000
vn -0.000000 0.000000 1.000000
vn -0.998129 -0.061139 -0.000000
vn 0.000000 0.000000 -1.000000
vn -0.808823 0.588052 -0.000000
vn -0.077153 -0.186806 -0.979363
vn 0.774358 -0.632747 0.000000
vn -0.077153 -0.186806 0.979363
vn -0.549092 -0.835762 0.000000
usemtl Material.001
s off
f 5//1 8//1 7//1 6//1
f 1//2 5//2 6//2 2//2
f 2//3 6//3 7//3 3//3
f 3//4 7//4 8//4 4//4
f 5//5 1//5 4//5 8//5
f 3//6 4//6 9//6 10//6
f 4//7 1//7 12//7 9//7
f 1//8 2//8 11//8 12//8
f 2//9 3//9 10//9 11//9
f 12//10 11//10 10//10 9//10
o Cube.002
v 0.246725 -0.261607 0.578510
v 0.246725 -0.261607 0.677986
v 0.073910 -0.306231 0.677986
v 0.073910 -0.306231 0.578510
v 0.121037 0.225140 0.578510
v 0.121037 0.225140 0.677986
v -0.051777 0.180516 0.677986
v -0.051777 0.180516 0.578510
vn 0.250018 -0.968241 0.000000
vn -0.250018 0.968241 0.000000
vn 0.968241 0.250018 0.000000
vn -0.968241 -0.250018 -0.000001
usemtl Material.002
s off
f 13//11 14//11 15//11 16//11
f 17//12 20//12 19//12 18//12
f 13//13 17//13 18//13 14//13
f 14//3 18//3 19//3 15//3
f 15//14 19//14 20//14 16//14
f 17//5 13//5 16//5 20//5
o Cube.001
v 0.474620 0.240120 0.556526
v 0.474620 0.240120 0.699970
v -0.498454 0.358429 0.699970
v -0.498454 0.358429 0.556526
v 0.487991 0.350092 0.556526
v 0.487991 0.350092 0.699970
v -0.485084 0.468401 0.699970
v -0.485084 0.468401 0.556526
v -0.399081 0.467659 0.621100
v -0.394540 0.455937 0.621100
v -0.441891 0.460949 0.621100
v -0.426990 0.471052 0.621100
v -0.399081 0.467659 0.635396
v -0.394540 0.455937 0.635396
v -0.441891 0.460949 0.635396
v -0.426990 0.471052 0.635396
v 0.448519 0.381911 0.641284
v 0.453328 0.351553 0.641284
v 0.399796 0.358062 0.641284
v 0.410261 0.386562 0.641284
v 0.448519 0.381911 0.650850
v 0.453328 0.351553 0.650850
v 0.399796 0.358062 0.650850
v 0.410261 0.386562 0.650850
v 0.410261 0.386562 0.616443
v 0.399796 0.358062 0.616443
v 0.453328 0.351553 0.616443
v 0.448519 0.381911 0.616443
v 0.410261 0.386562 0.606876
v 0.399796 0.358062 0.606876
v 0.453328 0.351553 0.606876
v 0.448519 0.381911 0.606876
vt 0.981492 0.700396
vt 0.981492 0.559075
vt 0.015757 0.559075
vt 0.015757 0.700396
vt 0.256982 0.028856
vt 0.256982 0.201167
vt 0.033870 0.201167
vt 0.033870 0.028856
vt 0.970962 0.782064
vt 0.970962 0.890592
vt 0.010662 0.890592
vt 0.010662 0.782064
vt 0.016806 0.783088
vt 0.016806 0.891616
vt 0.029279 0.489607
vt 0.029280 0.383592
vt 0.967338 0.383592
vt 0.967338 0.489607
vt 0.925445 0.487516
vt 0.912457 0.498835
vt 0.885552 0.498835
vt 0.879885 0.488225
vt 0.094387 0.900039
vt 0.066845 0.900039
vt 0.053548 0.888452
vt 0.100189 0.889177
vt 0.884250 0.887914
vt 0.891057 0.916869
vt 0.928814 0.916869
vt 0.937080 0.887914
vt 0.125150 0.242886
vt 0.110271 0.242886
vt 0.110271 0.196916
vt 0.125150 0.196916
vt 0.107333 0.515275
vt 0.070451 0.515275
vt 0.113983 0.486992
vt 0.062377 0.486992
vt 0.178668 0.242886
vt 0.163788 0.242886
vt 0.163788 0.196916
vt 0.178668 0.196916
vn -0.120694 -0.992690 -0.000000
vn 0.120694 0.992690 0.000000
vn 0.992690 -0.120694 0.000001
vn -0.992690 0.120694 -0.000001
vn 0.932468 0.361254 0.000000
vn -0.105245 -0.994446 0.000000
vn -0.561197 0.827682 0.000000
vn 0.987684 0.156460 0.000000
vn -0.938717 0.344689 -0.000001
usemtl _pistol-2_Cube.001-k.t
s off
f 21/1/15 22/2/15 23/3/15 24/4/15
f 25/1/16 28/4/16 27/3/16 26/2/16
f 21/5/17 25/6/17 26/7/17 22/8/17
f 22/9/3 26/10/3 27/11/3 23/12/3
f 23/13/18 27/14/18 28/14/18 24/13/18
f 25/15/5 21/16/5 24/17/5 28/18/5
f 31/19/5 32/20/5 29/21/5 30/22/5
f 33/23/3 36/24/3 35/25/3 34/26/3
f 29/21/19 33/21/19 34/22/19 30/22/19
f 30/22/20 34/22/20 35/19/20 31/19/20
f 31/19/21 35/19/21 36/20/21 32/20/21
f 32/20/16 36/20/16 33/21/16 29/21/16
f 39/27/5 40/28/5 37/29/5 38/30/5
f 41/29/3 44/28/3 43/27/3 42/30/3
f 37/31/22 41/32/22 42/33/22 38/34/22
f 38/30/15 42/30/15 43/27/15 39/27/15
f 39/27/23 43/27/23 44/28/23 40/28/23
f 40/28/16 44/28/16 41/29/16 37/29/16
f 49/35/16 45/35/16 48/36/16 52/36/16
f 50/37/23 46/37/23 45/35/23 49/35/23
f 51/38/15 47/38/15 46/37/15 50/37/15
f 52/39/22 48/40/22 47/41/22 51/42/22
f 48/29/3 45/28/3 46/27/3 47/30/3
f 50/37/5 49/35/5 52/36/5 51/38/5
o Cube
v 0.283834 -0.226398 0.566915
v 0.283834 -0.226398 0.689581
v 0.078055 -0.227763 0.689581
v 0.078055 -0.227763 0.566915
v 0.182367 0.081940 0.566915
v 0.182367 0.081940 0.689581
v 0.002209 0.103229 0.689581
v 0.002209 0.103229 0.566915
v -0.039061 0.107790 0.566636
v -0.039061 0.107790 0.689860
v 0.034961 -0.238216 0.566636
v 0.034961 -0.238216 0.689860
v 0.216194 0.078540 0.686332
v 0.216195 0.078540 0.570164
v 0.323977 -0.206792 0.686332
v 0.323977 -0.206792 0.570164
v 0.198637 0.188203 0.570164
v 0.198637 0.188203 0.686332
v -0.075685 0.219772 0.689860
v -0.075685 0.219772 0.566636
v -0.034416 0.215211 0.566915
v -0.034416 0.215211 0.689581
v 0.145743 0.193921 0.689581
v 0.145743 0.193921 0.566915
v 0.341555 -0.280857 0.583316
v 0.341555 -0.280857 0.673181
v 0.052538 -0.312281 0.675909
v 0.052538 -0.312281 0.580587
v 0.095633 -0.301828 0.580802
v 0.095633 -0.301828 0.675694
v 0.301412 -0.300463 0.675694
v 0.301412 -0.300463 0.580802
v 0.153949 0.275943 0.566915
v 0.153948 0.275943 0.689581
v -0.026210 0.297232 0.689581
v -0.026210 0.297232 0.566915
v -0.067479 0.301793 0.566636
v -0.067479 0.301793 0.689860
v 0.206842 0.270225 0.686332
v 0.206843 0.270225 0.570164
v 0.232801 0.267311 0.570164
v 0.232801 0.267311 0.686332
v 0.224595 0.185289 0.686332
v 0.224595 0.185289 0.570164
v 0.273430 0.202033 0.570164
v 0.273430 0.202033 0.686332
v 0.278969 0.262128 0.686332
v 0.278969 0.262128 0.570164
v 0.298926 0.259912 0.570164
v 0.298926 0.259912 0.686332
v 0.294840 0.211777 0.686332
v 0.294840 0.211777 0.570164
v -0.085553 0.109342 0.602164
v -0.085553 0.109342 0.654332
v -0.068892 0.082721 0.654332
v -0.068892 0.082721 0.602164
v -0.139159 0.067790 0.602164
v -0.139159 0.067790 0.654332
v -0.137795 0.099164 0.654332
v -0.137795 0.099164 0.602164
v -0.297458 0.124271 0.602164
v -0.297458 0.124271 0.654332
v -0.298821 0.092896 0.654332
v -0.298821 0.092896 0.602164
v -0.340397 0.093768 0.602164
v -0.340397 0.093768 0.654332
v -0.339033 0.125143 0.654332
v -0.339033 0.125143 0.602164
v -0.313394 0.248373 0.566636
v -0.313394 0.248373 0.689860
v -0.280499 0.245340 0.689860
v -0.280499 0.245340 0.566636
v -0.272727 0.324834 0.689860
v -0.272727 0.324834 0.566636
v -0.305348 0.328470 0.566636
v -0.305348 0.328470 0.689860
v -0.662738 0.369485 0.689860
v -0.662738 0.369485 0.566636
v -0.670783 0.289388 0.689860
v -0.670783 0.289388 0.566636
v -0.684252 0.446668 0.604330
v -0.687020 0.423902 0.594839
v -0.690088 0.398667 0.598109
v -0.692285 0.380600 0.612892
v -0.692771 0.376603 0.633540
v -0.691361 0.388202 0.652166
v -0.688593 0.410968 0.661657
v -0.685525 0.436203 0.658387
v -0.683328 0.454270 0.643604
v -0.682842 0.458267 0.622957
v -0.367755 0.408187 0.604330
v -0.370523 0.385422 0.594839
v -0.373591 0.360186 0.598109
v -0.375788 0.342119 0.612892
v -0.376274 0.338122 0.633540
v -0.374864 0.349722 0.652166
v -0.372096 0.372487 0.661657
v -0.369027 0.397723 0.658387
v -0.366831 0.415790 0.643604
v -0.366345 0.419787 0.622957
v -0.685540 0.436081 0.612992
v -0.687305 0.421560 0.606938
v -0.689262 0.405464 0.609024
v -0.690663 0.393940 0.618453
v -0.690973 0.391391 0.631623
v -0.690074 0.398789 0.643504
v -0.688308 0.413310 0.649558
v -0.686351 0.429406 0.647472
v -0.684950 0.440930 0.638043
v -0.684640 0.443479 0.624873
v -0.510996 0.400124 0.606938
v -0.509231 0.414645 0.612992
v -0.512953 0.384028 0.609024
v -0.514355 0.372504 0.618453
v -0.514665 0.369955 0.631623
v -0.513765 0.377353 0.643504
v -0.511999 0.391874 0.649558
v -0.510042 0.407970 0.647472
v -0.508641 0.419494 0.638043
v -0.508331 0.422043 0.624873
v 1.004486 -0.081583 0.089550
v 0.973590 -0.326158 0.146076
v 0.017577 -0.209923 0.445591
v -0.078656 0.169781 0.445591
v 1.004486 -0.081583 0.454864
v 0.973590 -0.326158 0.511390
v 0.017577 -0.209923 0.810905
v -0.078656 0.169781 0.810905
vt 0.927200 0.246707
vt 0.827427 0.459240
vt 0.696213 0.458799
vt 0.779567 0.227763
vt 0.193673 0.133961
vt 0.387467 0.042986
vt 0.404740 0.177602
vt 0.194075 0.253606
vt 0.415015 0.204984
vt 0.194375 0.280989
vt 0.666182 0.458471
vt 0.749536 0.216495
vt 0.333858 0.810420
vt 0.482548 0.810420
vt 0.482548 0.959111
vt 0.333858 0.959111
vt 0.954311 0.264288
vt 0.852013 0.459752
vt -0.727496 0.474897
vt -0.701703 0.474897
vt -0.701703 0.500689
vt -0.727496 0.500689
vt -1.408821 0.790398
vt -1.364616 0.790398
vt -1.364616 0.834602
vt -1.408821 0.834602
vt 0.193206 0.111543
vt 0.123273 0.166853
vt 0.122807 0.131768
vt 0.829833 0.536959
vt 0.791355 0.536447
vt 0.660140 0.536006
vt 0.630110 0.535678
vt 0.123975 0.313881
vt 0.123676 0.286498
vt 0.371435 0.018265
vt 0.418527 0.000861
vt 0.434558 0.025582
vt 0.946287 0.195062
vt 0.973398 0.212643
vt 0.768623 0.164850
vt 0.798654 0.176118
vt 0.451832 0.160198
vt 0.462106 0.187580
vt 0.069323 0.287655
vt 0.068921 0.168010
vt 0.790086 0.596056
vt 0.658872 0.595615
vt 0.069622 0.315037
vt 0.628841 0.595287
vt 0.828564 0.596568
vt 0.068454 0.132924
vt 0.068295 0.115698
vt 0.122648 0.114541
vt 0.848726 0.537133
vt 0.847457 0.596742
vt 0.296481 0.778563
vt 0.465802 0.778563
vt 0.465802 0.947884
vt 0.296481 0.947884
vt 0.882328 0.553418
vt 0.881059 0.597051
vt 0.108976 0.116494
vt 0.054623 0.117651
vt 0.054341 0.087011
vt 0.094127 0.085854
vt 0.107799 0.083901
vt 0.068013 0.085058
vt 0.067876 0.071816
vt 0.099715 0.070660
vt 0.896850 0.562283
vt 0.895581 0.597202
vt 0.213162 0.298524
vt 0.197060 0.311551
vt 0.632665 0.455526
vt 0.646952 0.437867
vt 0.000000 0.000000
vt 1.000000 0.000000
vt 1.000000 1.000000
vt 0.000000 1.000000
vt 0.309848 0.788364
vt 0.475308 0.788364
vt 0.475308 0.953824
vt 0.309848 0.953824
vt 0.596042 0.443658
vt 0.597803 0.421011
vt 0.228531 0.343339
vt 0.207881 0.344944
vt 0.224803 0.449870
vt 0.204153 0.451475
vt 0.479211 0.447746
vt 0.480971 0.425100
vt 0.314329 0.792844
vt 0.470828 0.792844
vt 0.470828 0.949343
vt 0.314329 0.949343
vt 0.206892 0.478764
vt 0.227542 0.477159
vt 0.124172 0.471787
vt 0.123539 0.450009
vt 0.449283 0.444743
vt 0.480819 0.536156
vt 0.456935 0.535462
vt 0.306798 0.789219
vt 0.474452 0.789219
vt 0.474452 0.956874
vt 0.306798 0.956874
vt 0.479459 0.593913
vt 0.070875 0.451248
vt 0.302167 0.788495
vt 0.479083 0.788495
vt 0.479083 0.965412
vt 0.302167 0.965412
vt 0.071091 0.472895
vt 0.455719 0.593675
vt 0.125767 0.709036
vt 0.072686 0.710145
vt 0.195528 0.591926
vt 0.196743 0.533713
vt 0.336313 0.795297
vt 0.444937 0.795297
vt 0.444937 0.903921
vt 0.336313 0.903921
vt 0.038819 0.761475
vt 0.258057 0.761475
vt 0.258057 0.980713
vt 0.038819 0.980713
vt 0.543634 0.830499
vt 0.640937 0.830499
vt 0.640937 0.927802
vt 0.543634 0.927802
vt 0.538555 0.806133
vt 0.633320 0.806133
vt 0.633320 0.900898
vt 0.538555 0.900898
vn 0.006511 0.001442 -0.999978
vn 0.006509 0.001441 0.999978
vn -0.977874 -0.209197 -0.000000
vn 0.081240 0.028634 0.996283
vn 0.081240 0.028635 -0.996283
vn 0.935483 0.353372 0.000000
vn 0.076660 0.018740 -0.996881
vn 0.987424 0.158092 0.000001
vn 0.076660 0.018740 0.996881
vn 0.007010 0.002293 0.999973
vn 0.007011 0.002293 -0.999973
vn 0.972974 0.230916 0.000000
vn 0.141214 -0.145236 -0.979268
vn 0.141213 -0.145236 0.979268
vn -0.972974 -0.230916 -0.000000
vn 0.047738 -0.173528 0.983671
vn 0.047739 -0.173528 -0.983671
vn 0.001220 -0.184009 0.982924
vn 0.001221 -0.184009 -0.982924
vn 0.006633 -0.999978 0.000000
vn 0.235736 -0.971817 0.000000
vn 0.438852 -0.898559 0.000000
vn 0.006684 -0.000669 -0.999977
vn 0.006682 -0.000669 0.999977
vn 0.060650 -0.006068 0.998141
vn 0.060650 -0.006068 -0.998141
vn 0.117354 0.993090 -0.000000
vn 0.109841 0.993949 0.000000
vn 0.107477 0.994208 -0.000000
vn 0.111558 0.993758 -0.000000
vn -0.111559 -0.993758 0.000000
vn 0.324328 -0.945945 0.000000
vn -0.000001 0.000000 1.000000
vn 0.000001 -0.000000 -1.000000
vn 0.111559 0.993758 -0.000000
vn 0.110361 0.993892 -0.000000
vn 0.414226 -0.910174 0.000001
vn 0.996417 -0.084577 0.000001
vn -0.595854 -0.229074 -0.769729
vn -0.996031 0.089004 -0.000000
vn -0.595854 -0.229074 0.769730
vn 0.643353 -0.765570 0.000000
vn 0.207861 -0.978158 0.000000
vn -0.191218 0.981548 -0.000000
vn 0.155338 0.987861 -0.000000
vn -0.155338 -0.987861 0.000000
vn -0.020966 -0.999780 0.000000
vn -0.999057 0.043407 -0.000000
vn -0.979033 0.203701 -0.000000
vn -0.014519 -0.276919 -0.960784
vn -0.014519 -0.276919 0.960784
vn 0.990331 -0.138724 0.000000
vn 0.091806 0.995777 0.000000
vn -0.123875 -0.992298 0.000000
vn 0.110771 0.993846 0.000000
vn 0.114016 0.993479 0.000000
vn -0.114016 -0.993479 0.000000
vn -0.994993 0.099944 0.000000
vn 0.046153 0.379599 -0.923999
vn -0.015400 -0.126660 -0.991827
vn -0.076093 -0.625854 -0.776219
vn -0.118463 -0.974338 -0.191395
vn -0.102241 -0.840919 0.531415
vn -0.046153 -0.379600 0.923999
vn 0.015400 0.126660 0.991827
vn 0.076093 0.625855 0.776219
vn 0.118463 0.974338 0.191395
vn 0.102241 0.840920 -0.531414
vn -0.992690 0.120694 -0.000003
vn -0.992690 0.120694 -0.000004
vn -0.992690 0.120692 -0.000003
vn -0.992690 0.120691 -0.000002
vn -0.992690 0.120690 0.000003
vn -0.992690 0.120692 0.000004
vn -0.992690 0.120694 0.000004
vn -0.992689 0.120697 0.000002
vn -0.992689 0.120697 0.000001
vn -0.992689 0.120697 -0.000002
vn -0.046153 -0.379601 0.923999
vn 0.015400 0.126662 0.991826
vn 0.076093 0.625853 0.776221
vn 0.118463 0.974338 0.191397
vn 0.102241 0.840919 -0.531415
vn 0.046153 0.379600 -0.923999
vn -0.015400 -0.126662 -0.991826
vn -0.076093 -0.625851 -0.776222
vn -0.118463 -0.974338 -0.191397
vn -0.323241 -0.118837 -0.938825
vn 0.323241 0.118837 0.938825
vn 0.992115 -0.125330 0.000000
vn -0.969353 -0.245673 0.000000
vn 0.226062 0.974113 -0.000000
usemtl Material_pistol_Cube-k.tga
s off
f 54/43/3 58/44/3 59/45/3 55/46/3
f 57/47/5 53/48/5 56/49/5 60/50/5
f 60/50/24 56/49/24 63/51/24 61/52/24
f 55/46/25 59/45/25 62/53/25 64/54/25
f 64/55/26 62/56/26 61/57/26 63/58/26
f 58/44/27 54/43/27 67/59/27 65/60/27
f 53/61/28 57/62/28 66/63/28 68/64/28
f 68/65/29 66/66/29 65/67/29 67/68/29
f 66/69/30 57/47/30 76/70/30 69/71/30
f 65/55/31 66/56/31 69/57/31 70/58/31
f 58/44/32 65/60/32 70/72/32 75/73/32
f 62/53/33 59/45/33 74/74/33 71/75/33
f 60/50/34 61/52/34 72/76/34 73/77/34
f 59/45/3 58/44/3 75/73/3 74/74/3
f 57/47/5 60/50/5 73/77/5 76/70/5
f 68/55/35 67/56/35 78/57/35 77/58/35
f 53/48/36 68/78/36 77/79/36 84/80/36
f 67/59/37 54/43/37 83/81/37 78/82/37
f 64/55/38 63/56/38 80/57/38 79/58/38
f 55/46/39 64/54/39 79/83/39 82/84/39
f 63/51/40 56/49/40 81/85/40 80/86/40
f 54/43/41 55/46/41 82/84/41 83/81/41
f 56/49/42 53/48/42 84/80/42 81/85/42
f 84/55/43 83/56/43 82/57/43 81/58/43
f 81/55/44 82/56/44 79/57/44 80/58/44
f 83/55/45 84/56/45 77/57/45 78/58/45
f 76/70/5 73/77/5 88/87/5 85/88/5
f 74/74/3 75/73/3 86/89/3 87/90/3
f 73/77/46 72/76/46 89/91/46 88/87/46
f 71/75/47 74/74/47 87/90/47 90/92/47
f 75/73/48 70/72/48 91/93/48 86/89/48
f 69/71/49 76/70/49 85/88/49 92/94/49
f 85/65/50 88/66/50 87/67/50 86/68/50
f 87/65/51 88/66/51 89/67/51 90/68/51
f 85/65/52 86/66/52 91/67/52 92/68/52
f 92/65/53 91/66/53 94/67/53 93/68/53
f 69/71/5 92/94/5 93/95/5 96/96/5
f 91/93/3 70/72/3 95/97/3 94/98/3
f 70/99/54 69/100/54 96/101/54 95/102/54
f 95/55/55 96/56/55 97/57/55 98/58/55
f 94/98/56 95/97/56 98/103/56 99/104/56
f 96/105/57 93/106/57 100/107/57 97/108/57
f 93/65/58 94/66/58 99/67/58 100/68/58
f 100/65/59 99/66/59 102/67/59 101/68/59
f 97/109/5 100/110/5 101/111/5 104/112/5
f 99/104/3 98/103/3 103/113/3 102/114/3
f 98/55/60 97/56/60 104/57/60 103/58/60
f 103/55/61 104/56/61 101/57/61 102/58/61
f 72/76/62 61/52/62 108/115/62 105/116/62
f 71/55/63 72/56/63 105/57/63 106/58/63
f 62/53/64 71/75/64 106/117/64 107/118/64
f 61/119/65 62/120/65 107/121/65 108/122/65
f 108/123/66 107/124/66 110/125/66 109/126/66
f 107/118/3 106/117/3 111/127/3 110/128/3
f 106/55/67 105/56/67 112/57/67 111/58/67
f 105/116/5 108/115/5 109/129/5 112/130/5
f 112/130/5 109/129/5 116/131/5 113/132/5
f 111/55/68 112/56/68 113/57/68 114/58/68
f 110/128/3 111/127/3 114/133/3 115/134/3
f 109/123/69 110/124/69 115/125/69 116/126/69
f 116/135/70 115/136/70 118/137/70 117/138/70
f 115/131/3 114/132/3 119/139/3 118/140/3
f 113/132/5 116/131/5 117/140/5 120/139/5
f 117/55/71 118/56/71 119/57/71 120/58/71
f 120/55/72 119/56/72 122/57/72 121/58/72
f 113/132/73 120/139/73 121/141/73 124/142/73
f 119/143/74 114/133/74 123/144/74 122/145/74
f 114/146/75 113/147/75 124/148/75 123/149/75
f 123/65/76 124/66/76 121/67/76 122/68/76
f 90/65/58 89/66/58 126/67/58 125/68/58
f 71/75/3 90/92/3 125/150/3 123/144/3
f 89/91/5 72/76/5 124/142/5 126/151/5
f 72/152/77 71/153/77 123/154/77 124/155/77
f 126/151/5 124/142/5 121/141/5 127/156/5
f 123/144/3 125/150/3 128/157/3 122/145/3
f 125/65/78 126/66/78 127/67/78 128/68/78
f 127/156/5 121/141/5 132/158/5 130/159/5
f 122/145/3 128/157/3 129/160/3 131/161/3
f 128/162/79 127/163/79 130/164/79 129/165/79
f 121/99/80 122/100/80 131/101/80 132/102/80
f 132/55/81 131/56/81 129/57/81 130/58/81
f 133/166/82 143/167/82 144/168/82 134/169/82
f 134/166/83 144/167/83 145/168/83 135/169/83
f 135/166/84 145/167/84 146/168/84 136/169/84
f 136/166/85 146/167/85 147/168/85 137/169/85
f 137/166/86 147/167/86 148/168/86 138/169/86
f 138/166/87 148/167/87 149/168/87 139/169/87
f 139/166/88 149/167/88 150/168/88 140/169/88
f 140/166/89 150/167/89 151/168/89 141/169/89
f 141/166/90 151/167/90 152/168/90 142/169/90
f 142/166/91 152/167/91 143/168/91 133/169/91
f 133/166/92 134/167/92 154/168/92 153/169/92
f 134/166/93 135/167/93 155/168/93 154/169/93
f 135/166/94 136/167/94 156/168/94 155/169/94
f 136/166/95 137/167/95 157/168/95 156/169/95
f 137/166/96 138/167/96 158/168/96 157/169/96
f 138/166/97 139/167/97 159/168/97 158/169/97
f 139/166/98 140/167/98 160/168/98 159/169/98
f 140/166/99 141/167/99 161/168/99 160/169/99
f 141/166/100 142/167/100 162/168/100 161/169/100
f 142/166/101 133/167/101 153/168/101 162/169/101
f 153/166/102 154/167/102 163/168/102 164/169/102
f 154/166/103 155/167/103 165/168/103 163/169/103
f 155/166/104 156/167/104 166/168/104 165/169/104
f 156/166/105 157/167/105 167/168/105 166/169/105
f 157/166/106 158/167/106 168/168/106 167/169/106
f 158/166/107 159/167/107 169/168/107 168/169/107
f 159/166/108 160/167/108 170/168/108 169/169/108
f 160/166/109 161/167/109 171/168/109 170/169/109
f 161/166/110 162/167/110 172/168/110 171/169/110
f 162/166/86 153/167/86 164/168/86 172/169/86
f 175/170/111 176/171/111 173/172/111 174/173/111
f 177/170/112 180/171/112 179/172/112 178/173/112
f 173/170/113 177/171/113 178/172/113 174/173/113
f 174/170/15 178/171/15 179/172/15 175/173/15
f 175/174/114 179/175/114 180/176/114 176/177/114
f 176/170/115 180/171/115 177/172/115 173/173/115
