# Blender v2.59 (sub 0) OBJ File: 'pistol.blend'
# www.blender.org
mtllib pistol_000032.mtl
o Cube.003
v -0.178198 0.121503 0.649182
v -0.172608 0.159637 0.718362
v -0.212216 0.180547 0.710036
v -0.217806 0.142412 0.640856
v -0.111294 0.179309 0.611911
v -0.105704 0.217444 0.681091
v -0.196595 0.242605 0.674565
v -0.202185 0.204470 0.605385
v -0.267125 0.116362 0.675602
v -0.263557 0.140698 0.719749
v -0.239027 0.114937 0.731967
v -0.242594 0.090602 0.687820
vn 0.265748 0.835030 -0.481770
vn 0.713328 -0.636532 0.293240
vn 0.070586 0.481545 0.873574
vn -0.974391 0.220724 -0.042938
vn -0.070586 -0.481544 -0.873575
vn -0.615735 0.710036 -0.341644
vn -0.194095 -0.606233 -0.771238
vn 0.570478 -0.737891 0.360655
vn -0.055836 0.336980 0.939855
vn -0.754748 -0.546821 0.362412
usemtl Material.001
s off
f 5//1 8//1 7//1 6//1
f 1//2 5//2 6//2 2//2
f 2//3 6//3 7//3 3//3
f 3//4 7//4 8//4 4//4
f 5//5 1//5 4//5 8//5
f 3//6 4//6 9//6 10//6
f 4//7 1//7 12//7 9//7
f 1//8 2//8 11//8 12//8
f 2//9 3//9 10//9 11//9
f 12//10 11//10 10//10 9//10
o Cube.002
v 0.186148 -0.248485 0.669812
v 0.195311 -0.225498 0.766162
v 0.019843 -0.249306 0.788530
v 0.010680 -0.272292 0.692180
v 0.106641 0.236004 0.561787
v 0.115805 0.258991 0.658137
v -0.059663 0.235183 0.680505
v -0.068827 0.212197 0.584155
vn 0.158155 -0.963749 0.214884
vn -0.158155 0.963749 -0.214884
vn 0.983108 0.133388 -0.125324
vn 0.092118 0.231075 0.968565
vn -0.983108 -0.133389 0.125324
vn -0.092118 -0.231075 -0.968565
usemtl Material.002
s off
f 13//11 14//11 15//11 16//11
f 17//12 20//12 19//12 18//12
f 13//13 17//13 18//13 14//13
f 14//14 18//14 19//14 15//14
f 15//15 19//15 20//15 16//15
f 17//16 13//16 16//16 20//16
o Cube.001
v 0.168358 0.244331 0.532789
v 0.187835 0.277019 0.671093
v -0.783312 0.302144 0.801915
v -0.802788 0.269455 0.663610
v 0.167727 0.352160 0.507392
v 0.187203 0.384849 0.645697
v -0.783944 0.409973 0.776518
v -0.803420 0.377285 0.638213
v -0.710036 0.399196 0.686857
v -0.704106 0.388252 0.688609
v -0.751269 0.388752 0.695132
v -0.737890 0.399916 0.690609
v -0.708095 0.402453 0.700640
v -0.702165 0.391510 0.702392
v -0.749328 0.392009 0.708915
v -0.735949 0.403174 0.704393
v 0.136458 0.398685 0.588706
v 0.144986 0.369701 0.594355
v 0.091559 0.371084 0.601552
v 0.098275 0.399673 0.593849
v 0.137757 0.400866 0.597929
v 0.146285 0.371881 0.603579
v 0.092858 0.373264 0.610776
v 0.099574 0.401853 0.603073
v 0.094902 0.394012 0.569898
v 0.088186 0.365423 0.577601
v 0.141613 0.364041 0.570404
v 0.133085 0.393025 0.564755
v 0.093603 0.391832 0.560674
v 0.086887 0.363243 0.568377
v 0.140314 0.361860 0.561180
v 0.131786 0.390844 0.555531
vt 0.981492 0.700396
vt 0.981492 0.559075
vt 0.015757 0.559075
vt 0.015757 0.700396
vt 0.256982 0.028856
vt 0.256982 0.201167
vt 0.033870 0.201167
vt 0.033870 0.028856
vt 0.970962 0.782064
vt 0.970962 0.890592
vt 0.010662 0.890592
vt 0.010662 0.782064
vt 0.016806 0.783088
vt 0.016806 0.891616
vt 0.029279 0.489607
vt 0.029280 0.383592
vt 0.967338 0.383592
vt 0.967338 0.489607
vt 0.925445 0.487516
vt 0.912457 0.498835
vt 0.885552 0.498835
vt 0.879885 0.488225
vt 0.094387 0.900039
vt 0.066845 0.900039
vt 0.053548 0.888452
vt 0.100189 0.889177
vt 0.884250 0.887914
vt 0.891057 0.916869
vt 0.928814 0.916869
vt 0.937080 0.887914
vt 0.125150 0.242886
vt 0.110271 0.242886
vt 0.110271 0.196916
vt 0.125150 0.196916
vt 0.107333 0.515275
vt 0.070451 0.515275
vt 0.113983 0.486992
vt 0.062377 0.486992
vt 0.178668 0.242886
vt 0.163788 0.242886
vt 0.163788 0.196916
vt 0.178668 0.196916
vn 0.005701 -0.973351 0.229251
vn -0.005701 0.973351 -0.229251
vn 0.990723 -0.025631 -0.133458
vn 0.135778 0.227885 0.964175
vn -0.990723 0.025630 0.133458
vn -0.135778 -0.227885 -0.964175
vn -0.135777 -0.227883 -0.964175
vn 0.135778 0.227883 0.964175
vn 0.871181 0.435993 -0.225731
vn 0.021104 -0.973632 0.227148
vn -0.655193 0.750647 -0.085151
vn -0.005700 0.973351 -0.229251
vn -0.135778 -0.227884 -0.964175
vn 0.951095 0.242562 -0.191266
vn -0.965731 0.247722 0.077447
vn -0.005701 0.973350 -0.229254
vn -0.005700 0.973350 -0.229253
vn -0.965731 0.247722 0.077446
vn 0.005701 -0.973351 0.229252
vn 0.951095 0.242562 -0.191267
vn 0.135777 0.227884 0.964175
vn -0.135777 -0.227885 -0.964175
usemtl _pistol-2_Cube.001-k.t
s off
f 21/1/17 22/2/17 23/3/17 24/4/17
f 25/1/18 28/4/18 27/3/18 26/2/18
f 21/5/19 25/6/19 26/7/19 22/8/19
f 22/9/20 26/10/20 27/11/20 23/12/20
f 23/13/21 27/14/21 28/14/21 24/13/21
f 25/15/22 21/16/22 24/17/22 28/18/22
f 31/19/23 32/20/23 29/21/23 30/22/23
f 33/23/24 36/24/24 35/25/24 34/26/24
f 29/21/25 33/21/25 34/22/25 30/22/25
f 30/22/26 34/22/26 35/19/26 31/19/26
f 31/19/27 35/19/27 36/20/27 32/20/27
f 32/20/28 36/20/28 33/21/28 29/21/28
f 39/27/29 40/28/29 37/29/29 38/30/29
f 41/29/20 44/28/20 43/27/20 42/30/20
f 37/31/30 41/32/30 42/33/30 38/34/30
f 38/30/17 42/30/17 43/27/17 39/27/17
f 39/27/31 43/27/31 44/28/31 40/28/31
f 40/28/32 44/28/32 41/29/32 37/29/32
f 49/35/33 45/35/33 48/36/33 52/36/33
f 50/37/34 46/37/34 45/35/34 49/35/34
f 51/38/35 47/38/35 46/37/35 50/37/35
f 52/39/36 48/40/36 47/41/36 51/42/36
f 48/29/37 45/28/37 46/27/37 47/30/37
f 50/37/38 49/35/38 52/36/38 51/38/38
o Cube
v 0.265902 -0.192032 0.629271
v 0.282561 -0.164059 0.747537
v 0.080495 -0.184320 0.780792
v 0.063836 -0.212293 0.662526
v 0.127558 0.097499 0.580275
v 0.144217 0.125472 0.698541
v -0.035506 0.129528 0.722897
v -0.052165 0.101555 0.604631
v -0.093333 0.102114 0.610009
v -0.076599 0.130214 0.728813
v 0.022755 -0.226455 0.671373
v 0.039490 -0.198354 0.790177
v 0.177447 0.124549 0.690709
v 0.161670 0.098057 0.578707
v 0.319115 -0.142102 0.733824
v 0.303338 -0.168594 0.621823
v 0.130678 0.202737 0.558313
v 0.146455 0.229229 0.670314
v -0.126619 0.235386 0.710982
v -0.143354 0.207286 0.592178
v -0.102186 0.206727 0.586801
v -0.085527 0.234700 0.705067
v 0.094196 0.230644 0.680710
v 0.077537 0.202671 0.562444
v 0.331677 -0.235768 0.647361
v 0.343882 -0.215274 0.734002
v 0.064148 -0.271709 0.789585
v 0.051202 -0.293447 0.697681
v 0.092275 -0.279299 0.688773
v 0.105162 -0.257659 0.780261
v 0.307227 -0.237399 0.747005
v 0.294340 -0.259038 0.655517
v 0.075328 0.282928 0.543772
v 0.091987 0.310902 0.662038
v -0.087737 0.314958 0.686395
v -0.104396 0.286984 0.568129
v -0.145564 0.287543 0.573506
v -0.128829 0.315644 0.692310
v 0.144245 0.309486 0.651642
v 0.128469 0.282995 0.539641
v 0.154345 0.282559 0.536099
v 0.170121 0.309051 0.648100
v 0.172331 0.228793 0.666772
v 0.156555 0.202301 0.554771
v 0.202451 0.223025 0.543404
v 0.218228 0.249517 0.655406
v 0.216145 0.308276 0.641801
v 0.200368 0.281784 0.529799
v 0.220258 0.281473 0.527071
v 0.236035 0.307965 0.639073
v 0.238049 0.260932 0.649914
v 0.222272 0.234440 0.537912
v -0.134394 0.107441 0.651382
v -0.127310 0.119338 0.701679
v -0.107601 0.095068 0.704643
v -0.114686 0.083171 0.654347
v -0.181873 0.062231 0.668764
v -0.174788 0.074128 0.719060
v -0.177378 0.104665 0.712202
v -0.184463 0.092768 0.661906
v -0.344522 0.102410 0.682171
v -0.337437 0.114307 0.732467
v -0.334847 0.083770 0.739325
v -0.341931 0.071873 0.689029
v -0.382900 0.068892 0.695505
v -0.375815 0.080789 0.745801
v -0.378406 0.111326 0.738943
v -0.385491 0.099429 0.688647
v -0.380553 0.213132 0.624207
v -0.363819 0.241233 0.743011
v -0.331110 0.241321 0.738383
v -0.347845 0.213220 0.619579
v -0.333429 0.319089 0.720315
v -0.350164 0.290988 0.601512
v -0.382679 0.291510 0.605968
v -0.365945 0.319611 0.724772
v -0.722319 0.326477 0.773347
v -0.739054 0.298376 0.654543
v -0.720193 0.248099 0.791587
v -0.736928 0.219998 0.672783
v -0.764747 0.379804 0.677998
v -0.765905 0.355318 0.674109
v -0.765315 0.331321 0.683094
v -0.763203 0.316978 0.701521
v -0.760376 0.317768 0.722352
v -0.757913 0.333389 0.737630
v -0.756756 0.357874 0.741520
v -0.757346 0.381871 0.732535
v -0.759457 0.396214 0.714107
v -0.762285 0.395425 0.693276
v -0.448879 0.371632 0.635438
v -0.450036 0.347147 0.631549
v -0.449446 0.323149 0.640534
v -0.447334 0.308806 0.658961
v -0.444507 0.309596 0.679792
v -0.442045 0.325217 0.695070
v -0.440887 0.349702 0.698959
v -0.441477 0.373700 0.689974
v -0.443589 0.388043 0.671547
v -0.446416 0.387253 0.650716
v -0.763510 0.371399 0.688797
v -0.764248 0.355781 0.686316
v -0.763872 0.340475 0.692047
v -0.762525 0.331326 0.703800
v -0.760722 0.331830 0.717087
v -0.759151 0.341794 0.726832
v -0.758413 0.357411 0.729313
v -0.758789 0.372718 0.723582
v -0.760136 0.381866 0.711828
v -0.761939 0.381363 0.698541
v -0.588290 0.351229 0.662607
v -0.587551 0.366847 0.665088
v -0.587913 0.335923 0.668338
v -0.586566 0.326774 0.680092
v -0.584763 0.327278 0.693378
v -0.583192 0.337241 0.703123
v -0.582454 0.352859 0.705604
v -0.582830 0.368166 0.699873
v -0.584177 0.377314 0.688119
v -0.585981 0.376810 0.674832
v 0.891177 -0.094205 0.022930
v 0.899126 -0.321223 0.134136
v -0.014312 -0.228235 0.551467
v -0.156451 0.130953 0.486530
v 0.940790 -0.010896 0.375141
v 0.948738 -0.237914 0.486347
v 0.035300 -0.144926 0.903678
v -0.106838 0.214262 0.838741
vt 0.927200 0.246707
vt 0.827427 0.459240
vt 0.696213 0.458799
vt 0.779567 0.227763
vt 0.193673 0.133961
vt 0.387467 0.042986
vt 0.404740 0.177602
vt 0.194075 0.253606
vt 0.415015 0.204984
vt 0.194375 0.280989
vt 0.666182 0.458471
vt 0.749536 0.216495
vt 0.333858 0.810420
vt 0.482548 0.810420
vt 0.482548 0.959111
vt 0.333858 0.959111
vt 0.954311 0.264288
vt 0.852013 0.459752
vt -0.727496 0.474897
vt -0.701703 0.474897
vt -0.701703 0.500689
vt -0.727496 0.500689
vt -1.408821 0.790398
vt -1.364616 0.790398
vt -1.364616 0.834602
vt -1.408821 0.834602
vt 0.193206 0.111543
vt 0.123273 0.166853
vt 0.122807 0.131768
vt 0.829833 0.536959
vt 0.791355 0.536447
vt 0.660140 0.536006
vt 0.630110 0.535678
vt 0.123975 0.313881
vt 0.123676 0.286498
vt 0.371435 0.018265
vt 0.418527 0.000861
vt 0.434558 0.025582
vt 0.946287 0.195062
vt 0.973398 0.212643
vt 0.768623 0.164850
vt 0.798654 0.176118
vt 0.451832 0.160198
vt 0.462106 0.187580
vt 0.069323 0.287655
vt 0.068921 0.168010
vt 0.790086 0.596056
vt 0.658872 0.595615
vt 0.069622 0.315037
vt 0.628841 0.595287
vt 0.828564 0.596568
vt 0.068454 0.132924
vt 0.068295 0.115698
vt 0.122648 0.114541
vt 0.848726 0.537133
vt 0.847457 0.596742
vt 0.296481 0.778563
vt 0.465802 0.778563
vt 0.465802 0.947884
vt 0.296481 0.947884
vt 0.882328 0.553418
vt 0.881059 0.597051
vt 0.108976 0.116494
vt 0.054623 0.117651
vt 0.054341 0.087011
vt 0.094127 0.085854
vt 0.107799 0.083901
vt 0.068013 0.085058
vt 0.067876 0.071816
vt 0.099715 0.070660
vt 0.896850 0.562283
vt 0.895581 0.597202
vt 0.213162 0.298524
vt 0.197060 0.311551
vt 0.632665 0.455526
vt 0.646952 0.437867
vt 0.000000 0.000000
vt 1.000000 0.000000
vt 1.000000 1.000000
vt 0.000000 1.000000
vt 0.309848 0.788364
vt 0.475308 0.788364
vt 0.475308 0.953824
vt 0.309848 0.953824
vt 0.596042 0.443658
vt 0.597803 0.421011
vt 0.228531 0.343339
vt 0.207881 0.344944
vt 0.224803 0.449870
vt 0.204153 0.451475
vt 0.479211 0.447746
vt 0.480971 0.425100
vt 0.314329 0.792844
vt 0.470828 0.792844
vt 0.470828 0.949343
vt 0.314329 0.949343
vt 0.206892 0.478764
vt 0.227542 0.477159
vt 0.124172 0.471787
vt 0.123539 0.450009
vt 0.449283 0.444743
vt 0.480819 0.536156
vt 0.456935 0.535462
vt 0.306798 0.789219
vt 0.474452 0.789219
vt 0.474452 0.956874
vt 0.306798 0.956874
vt 0.479459 0.593913
vt 0.070875 0.451248
vt 0.302167 0.788495
vt 0.479083 0.788495
vt 0.479083 0.965412
vt 0.302167 0.965412
vt 0.071091 0.472895
vt 0.455719 0.593675
vt 0.125767 0.709036
vt 0.072686 0.710145
vt 0.195528 0.591926
vt 0.196743 0.533713
vt 0.336313 0.795297
vt 0.444937 0.795297
vt 0.444937 0.903921
vt 0.336313 0.903921
vt 0.038819 0.761475
vt 0.258057 0.761475
vt 0.258057 0.980713
vt 0.038819 0.980713
vt 0.543634 0.830499
vt 0.640937 0.830499
vt 0.640937 0.927802
vt 0.543634 0.927802
vt 0.538555 0.806133
vt 0.633320 0.806133
vt 0.633320 0.900898
vt 0.538555 0.900898
vn 0.135808 0.228047 0.964132
vn -0.135808 -0.228047 -0.964132
vn -0.129586 -0.226045 -0.965459
vn 0.142023 0.230038 0.962763
vn -0.934835 -0.292766 0.200929
vn 0.211558 0.262430 0.941474
vn -0.059048 -0.191967 -0.979623
vn 0.875114 0.428612 -0.224649
vn -0.062391 -0.202116 -0.977372
vn 0.950622 0.244110 -0.191644
vn 0.208378 0.252555 0.944878
vn 0.142407 0.230908 0.962498
vn -0.129201 -0.225173 -0.965715
vn 0.927298 0.313367 -0.204741
vn 0.023982 -0.351099 -0.936031
vn 0.289967 0.095538 0.952256
vn -0.927299 -0.313367 0.204740
vn 0.202244 0.060517 0.977464
vn -0.064938 -0.388129 -0.919315
vn 0.157738 0.045907 0.986413
vn -0.109240 -0.402398 -0.908924
vn 0.131778 -0.968659 0.210555
vn 0.353409 -0.920279 0.167893
vn 0.543853 -0.830578 0.119850
vn -0.129152 -0.228075 -0.965040
vn 0.142458 0.228009 0.963181
vn 0.195921 0.227323 0.953907
vn -0.075190 -0.227922 -0.970772
vn -0.009063 0.973393 -0.228961
vn -0.016554 0.973535 -0.227939
vn -0.018910 0.973568 -0.227615
vn -0.014843 0.973507 -0.228174
vn -0.135807 -0.228046 -0.964132
vn 0.135807 0.228047 0.964132
vn 0.014842 -0.973507 0.228174
vn 0.437236 -0.887048 0.148225
vn -0.135808 -0.228046 -0.964132
vn -0.014842 0.973507 -0.228174
vn -0.016036 0.973527 -0.228010
vn 0.521106 -0.844103 0.126253
vn 0.989858 0.009720 -0.141730
vn -0.661437 -0.452410 -0.598186
vn -0.990033 -0.005393 0.140732
vn -0.452365 -0.101342 0.886056
vn 0.728175 -0.682852 0.058945
vn 0.326809 -0.928991 0.173701
vn 0.135809 0.228046 0.964132
vn -0.310877 0.933808 -0.177084
vn -0.135808 -0.228048 -0.964132
vn 0.028922 0.971821 -0.233940
vn -0.028921 -0.971821 0.233940
vn 0.104629 -0.971007 0.214935
vn -0.135809 -0.228046 -0.964132
vn -0.987295 -0.049869 0.150867
vn -0.987695 0.107346 0.113737
vn -0.110064 -0.488855 -0.865394
vn 0.150901 -0.050647 0.987251
vn 0.990659 -0.043325 -0.129298
vn -0.034508 0.973647 -0.225437
vn 0.002555 -0.973226 0.229838
vn 0.135809 0.228047 0.964132
vn -0.015627 0.973520 -0.228066
vn -0.012392 0.973463 -0.228508
vn 0.012392 -0.973463 0.228508
vn -0.990383 0.005308 0.138251
vn -0.127678 0.161475 -0.978583
vn -0.133967 -0.350370 -0.926981
vn -0.101804 -0.790652 -0.603743
vn -0.020368 -0.998966 0.040640
vn 0.077025 -0.703317 0.706691
vn 0.127678 -0.161475 0.978583
vn 0.133967 0.350371 0.926981
vn 0.101804 0.790652 0.603742
vn 0.020368 0.998966 -0.040640
vn -0.077025 0.703317 -0.706691
vn -0.990719 0.025632 0.133486
vn -0.990719 0.025630 0.133487
vn -0.990719 0.025629 0.133489
vn -0.990719 0.025628 0.133491
vn -0.990718 0.025629 0.133494
vn -0.990718 0.025628 0.133495
vn -0.990718 0.025634 0.133494
vn -0.990718 0.025634 0.133495
vn -0.990719 0.025635 0.133489
vn -0.990719 0.025633 0.133488
vn 0.133967 0.350369 0.926981
vn 0.101804 0.790653 0.603742
vn 0.020369 0.998966 -0.040636
vn -0.101804 -0.790651 -0.603744
vn -0.020369 -0.998966 0.040637
vn 0.077025 -0.703317 0.706692
vn -0.430290 -0.359031 -0.828219
vn 0.430290 0.359031 0.828219
vn 0.990735 -0.030178 -0.132418
vn 0.005730 -0.973313 0.229411
vn -0.921891 -0.327338 0.207284
vn 0.100150 0.965003 -0.242360
usemtl Material_pistol_Cube-k.tga
s off
f 54/43/39 58/44/39 59/45/39 55/46/39
f 57/47/40 53/48/40 56/49/40 60/50/40
f 60/50/41 56/49/41 63/51/41 61/52/41
f 55/46/42 59/45/42 62/53/42 64/54/42
f 64/55/43 62/56/43 61/57/43 63/58/43
f 58/44/44 54/43/44 67/59/44 65/60/44
f 53/61/45 57/62/45 66/63/45 68/64/45
f 68/65/46 66/66/46 65/67/46 67/68/46
f 66/69/47 57/47/47 76/70/47 69/71/47
f 65/55/48 66/56/48 69/57/48 70/58/48
f 58/44/49 65/60/49 70/72/49 75/73/49
f 62/53/50 59/45/50 74/74/50 71/75/50
f 60/50/51 61/52/51 72/76/51 73/77/51
f 59/45/39 58/44/39 75/73/39 74/74/39
f 57/47/40 60/50/40 73/77/40 76/70/40
f 68/55/52 67/56/52 78/57/52 77/58/52
f 53/48/53 68/78/53 77/79/53 84/80/53
f 67/59/54 54/43/54 83/81/54 78/82/54
f 64/55/55 63/56/55 80/57/55 79/58/55
f 55/46/56 64/54/56 79/83/56 82/84/56
f 63/51/57 56/49/57 81/85/57 80/86/57
f 54/43/58 55/46/58 82/84/58 83/81/58
f 56/49/59 53/48/59 84/80/59 81/85/59
f 84/55/60 83/56/60 82/57/60 81/58/60
f 81/55/61 82/56/61 79/57/61 80/58/61
f 83/55/62 84/56/62 77/57/62 78/58/62
f 76/70/40 73/77/40 88/87/40 85/88/40
f 74/74/39 75/73/39 86/89/39 87/90/39
f 73/77/63 72/76/63 89/91/63 88/87/63
f 71/75/64 74/74/64 87/90/64 90/92/64
f 75/73/65 70/72/65 91/93/65 86/89/65
f 69/71/66 76/70/66 85/88/66 92/94/66
f 85/65/67 88/66/67 87/67/67 86/68/67
f 87/65/68 88/66/68 89/67/68 90/68/68
f 85/65/69 86/66/69 91/67/69 92/68/69
f 92/65/70 91/66/70 94/67/70 93/68/70
f 69/71/71 92/94/71 93/95/71 96/96/71
f 91/93/72 70/72/72 95/97/72 94/98/72
f 70/99/73 69/100/73 96/101/73 95/102/73
f 95/55/74 96/56/74 97/57/74 98/58/74
f 94/98/39 95/97/39 98/103/39 99/104/39
f 96/105/75 93/106/75 100/107/75 97/108/75
f 93/65/76 94/66/76 99/67/76 100/68/76
f 100/65/77 99/66/77 102/67/77 101/68/77
f 97/109/40 100/110/40 101/111/40 104/112/40
f 99/104/39 98/103/39 103/113/39 102/114/39
f 98/55/78 97/56/78 104/57/78 103/58/78
f 103/55/79 104/56/79 101/57/79 102/58/79
f 72/76/80 61/52/80 108/115/80 105/116/80
f 71/55/81 72/56/81 105/57/81 106/58/81
f 62/53/82 71/75/82 106/117/82 107/118/82
f 61/119/83 62/120/83 107/121/83 108/122/83
f 108/123/84 107/124/84 110/125/84 109/126/84
f 107/118/85 106/117/85 111/127/85 110/128/85
f 106/55/86 105/56/86 112/57/86 111/58/86
f 105/116/87 108/115/87 109/129/87 112/130/87
f 112/130/40 109/129/40 116/131/40 113/132/40
f 111/55/88 112/56/88 113/57/88 114/58/88
f 110/128/39 111/127/39 114/133/39 115/134/39
f 109/123/89 110/124/89 115/125/89 116/126/89
f 116/135/90 115/136/90 118/137/90 117/138/90
f 115/131/39 114/132/39 119/139/39 118/140/39
f 113/132/91 116/131/91 117/140/91 120/139/91
f 117/55/92 118/56/92 119/57/92 120/58/92
f 120/55/93 119/56/93 122/57/93 121/58/93
f 113/132/94 120/139/94 121/141/94 124/142/94
f 119/143/95 114/133/95 123/144/95 122/145/95
f 114/146/96 113/147/96 124/148/96 123/149/96
f 123/65/97 124/66/97 121/67/97 122/68/97
f 90/65/76 89/66/76 126/67/76 125/68/76
f 71/75/39 90/92/39 125/150/39 123/144/39
f 89/91/40 72/76/40 124/142/40 126/151/40
f 72/152/98 71/153/98 123/154/98 124/155/98
f 126/151/40 124/142/40 121/141/40 127/156/40
f 123/144/99 125/150/99 128/157/99 122/145/99
f 125/65/100 126/66/100 127/67/100 128/68/100
f 127/156/40 121/141/40 132/158/40 130/159/40
f 122/145/39 128/157/39 129/160/39 131/161/39
f 128/162/101 127/163/101 130/164/101 129/165/101
f 121/99/102 122/100/102 131/101/102 132/102/102
f 132/55/103 131/56/103 129/57/103 130/58/103
f 133/166/104 143/167/104 144/168/104 134/169/104
f 134/166/105 144/167/105 145/168/105 135/169/105
f 135/166/106 145/167/106 146/168/106 136/169/106
f 136/166/107 146/167/107 147/168/107 137/169/107
f 137/166/108 147/167/108 148/168/108 138/169/108
f 138/166/109 148/167/109 149/168/109 139/169/109
f 139/166/110 149/167/110 150/168/110 140/169/110
f 140/166/111 150/167/111 151/168/111 141/169/111
f 141/166/112 151/167/112 152/168/112 142/169/112
f 142/166/113 152/167/113 143/168/113 133/169/113
f 133/166/114 134/167/114 154/168/114 153/169/114
f 134/166/115 135/167/115 155/168/115 154/169/115
f 135/166/116 136/167/116 156/168/116 155/169/116
f 136/166/117 137/167/117 157/168/117 156/169/117
f 137/166/118 138/167/118 158/168/118 157/169/118
f 138/166/119 139/167/119 159/168/119 158/169/119
f 139/166/120 140/167/120 160/168/120 159/169/120
f 140/166/121 141/167/121 161/168/121 160/169/121
f 141/166/122 142/167/122 162/168/122 161/169/122
f 142/166/123 133/167/123 153/168/123 162/169/123
f 153/166/109 154/167/109 163/168/109 164/169/109
f 154/166/124 155/167/124 165/168/124 163/169/124
f 155/166/125 156/167/125 166/168/125 165/169/125
f 156/166/126 157/167/126 167/168/126 166/169/126
f 157/166/113 158/167/113 168/168/113 167/169/113
f 158/166/104 159/167/104 169/168/104 168/169/104
f 159/166/105 160/167/105 170/168/105 169/169/105
f 160/166/127 161/167/127 171/168/127 170/169/127
f 161/166/128 162/167/128 172/168/128 171/169/128
f 162/166/129 153/167/129 164/168/129 172/169/129
f 175/170/130 176/171/130 173/172/130 174/173/130
f 177/170/131 180/171/131 179/172/131 178/173/131
f 173/170/132 177/171/132 178/172/132 174/173/132
f 174/170/133 178/171/133 179/172/133 175/173/133
f 175/174/134 179/175/134 180/176/134 176/177/134
f 176/170/135 180/171/135 177/172/135 173/173/135
