# Blender v2.59 (sub 0) OBJ File: 'pistol.blend'
# www.blender.org
mtllib pistol_000021.mtl
o Cube.003
v -0.115099 0.166472 0.725641
v -0.088032 0.217182 0.780114
v -0.130828 0.228684 0.790671
v -0.157895 0.177974 0.736198
v -0.089434 0.227438 0.656134
v -0.062368 0.278148 0.710606
v -0.149150 0.284841 0.747496
v -0.176216 0.234131 0.693024
v -0.177580 0.150381 0.792496
v -0.160307 0.182741 0.827257
v -0.127388 0.164559 0.827827
v -0.144661 0.132199 0.793066
vn -0.201183 0.764820 -0.612026
vn 0.900913 -0.431567 -0.045891
vn 0.341783 0.640342 0.687856
vn -0.905803 0.029434 0.422676
vn -0.341783 -0.640342 -0.687856
vn -0.858060 0.511159 -0.049496
vn -0.369320 -0.764014 -0.529042
vn 0.835068 -0.542690 0.090272
vn 0.300139 0.490241 0.818279
vn -0.342236 -0.596867 0.725689
usemtl Material.001
s off
f 5//1 8//1 7//1 6//1
f 1//2 5//2 6//2 2//2
f 2//3 6//3 7//3 3//3
f 3//4 7//4 8//4 4//4
f 5//5 1//5 4//5 8//5
f 3//6 4//6 9//6 10//6
f 4//7 1//7 12//7 9//7
f 1//8 2//8 11//8 12//8
f 2//9 3//9 10//9 11//9
f 12//10 11//10 10//10 9//10
o Cube.002
v 0.260601 -0.172929 0.763254
v 0.295368 -0.109506 0.831550
v 0.144448 -0.127529 0.925115
v 0.109681 -0.190952 0.856819
v 0.057726 0.211014 0.509977
v 0.092493 0.274438 0.578272
v -0.058427 0.256415 0.671838
v -0.093194 0.192991 0.603542
vn 0.403560 -0.763743 0.503821
vn -0.403560 0.763743 -0.503821
vn 0.845571 0.100980 -0.524227
vn 0.349499 0.637573 0.686550
vn -0.845571 -0.100980 0.524226
vn -0.349499 -0.637573 -0.686550
usemtl Material.002
s off
f 13//11 14//11 15//11 16//11
f 17//12 20//12 19//12 18//12
f 13//13 17//13 18//13 14//13
f 14//14 18//14 19//14 15//14
f 15//15 19//15 20//15 16//15
f 17//16 13//16 16//16 20//16
o Cube.001
v 0.161429 0.213545 0.491730
v 0.211348 0.305189 0.590145
v -0.686934 0.381082 0.975113
v -0.736853 0.289438 0.876698
v 0.139518 0.298337 0.423886
v 0.189437 0.389981 0.522301
v -0.708845 0.465874 0.907269
v -0.758765 0.374230 0.808854
v -0.659882 0.416249 0.813688
v -0.652261 0.407304 0.818152
v -0.695744 0.410424 0.837303
v -0.685646 0.418426 0.824729
v -0.654907 0.425382 0.823496
v -0.647286 0.416437 0.827960
v -0.690769 0.419557 0.847111
v -0.680671 0.427559 0.834537
v 0.124283 0.376348 0.482507
v 0.137861 0.353073 0.497293
v 0.088443 0.357248 0.518472
v 0.088965 0.379332 0.497643
v 0.127612 0.382460 0.489071
v 0.141190 0.359185 0.503857
v 0.091772 0.363360 0.525036
v 0.092294 0.385444 0.504207
v 0.080320 0.363461 0.480600
v 0.079798 0.341378 0.501429
v 0.129216 0.337202 0.480250
v 0.115638 0.360477 0.465464
v 0.076991 0.357349 0.474036
v 0.076469 0.335266 0.494866
v 0.125887 0.331091 0.473687
v 0.112309 0.354365 0.458901
vt 0.981492 0.700396
vt 0.981492 0.559075
vt 0.015757 0.559075
vt 0.015757 0.700396
vt 0.256982 0.028856
vt 0.256982 0.201167
vt 0.033870 0.201167
vt 0.033870 0.028856
vt 0.970962 0.782064
vt 0.970962 0.890592
vt 0.010662 0.890592
vt 0.010662 0.782064
vt 0.016806 0.783088
vt 0.016806 0.891616
vt 0.029279 0.489607
vt 0.029280 0.383592
vt 0.967338 0.383592
vt 0.967338 0.489607
vt 0.925445 0.487516
vt 0.912457 0.498835
vt 0.885552 0.498835
vt 0.879885 0.488225
vt 0.094387 0.900039
vt 0.066845 0.900039
vt 0.053548 0.888452
vt 0.100189 0.889177
vt 0.884250 0.887914
vt 0.891057 0.916869
vt 0.928814 0.916869
vt 0.937080 0.887914
vt 0.125150 0.242886
vt 0.110271 0.242886
vt 0.110271 0.196916
vt 0.125150 0.196916
vt 0.107333 0.515275
vt 0.070451 0.515275
vt 0.113983 0.486992
vt 0.062377 0.486992
vt 0.178668 0.242886
vt 0.163788 0.242886
vt 0.163788 0.196916
vt 0.178668 0.196916
vn 0.197789 -0.765397 0.612411
vn -0.197789 0.765397 -0.612411
vn 0.916390 -0.077422 -0.392728
vn 0.348007 0.638884 0.686089
vn -0.916390 0.077422 0.392728
vn -0.348007 -0.638884 -0.686089
vn -0.348008 -0.638884 -0.686088
vn 0.348007 0.638886 0.686087
vn 0.715112 0.292332 -0.634946
vn 0.212013 -0.766508 0.606231
vn -0.751171 0.627898 -0.203680
vn -0.197790 0.765396 -0.612411
vn 0.826885 0.135672 -0.545761
vn 0.197788 -0.765398 0.612410
vn -0.937335 0.250544 0.242140
vn -0.197789 0.765396 -0.612412
vn -0.937334 0.250545 0.242140
vn 0.826885 0.135671 -0.545761
usemtl _pistol-2_Cube.001-k.t
s off
f 21/1/17 22/2/17 23/3/17 24/4/17
f 25/1/18 28/4/18 27/3/18 26/2/18
f 21/5/19 25/6/19 26/7/19 22/8/19
f 22/9/20 26/10/20 27/11/20 23/12/20
f 23/13/21 27/14/21 28/14/21 24/13/21
f 25/15/22 21/16/22 24/17/22 28/18/22
f 31/19/23 32/20/23 29/21/23 30/22/23
f 33/23/24 36/24/24 35/25/24 34/26/24
f 29/21/25 33/21/25 34/22/25 30/22/25
f 30/22/26 34/22/26 35/19/26 31/19/26
f 31/19/27 35/19/27 36/20/27 32/20/27
f 32/20/28 36/20/28 33/21/28 29/21/28
f 39/27/22 40/28/22 37/29/22 38/30/22
f 41/29/20 44/28/20 43/27/20 42/30/20
f 37/31/29 41/32/29 42/33/29 38/34/29
f 38/30/30 42/30/30 43/27/30 39/27/30
f 39/27/31 43/27/31 44/28/31 40/28/31
f 40/28/18 44/28/18 41/29/18 37/29/18
f 49/35/32 45/35/32 48/36/32 52/36/32
f 50/37/33 46/37/33 45/35/33 49/35/33
f 51/38/17 47/38/17 46/37/17 50/37/17
f 52/39/34 48/40/34 47/41/34 51/42/34
f 48/29/20 45/28/20 46/27/20 47/30/20
f 50/37/22 49/35/22 52/36/22 51/38/22
o Cube
v 0.310763 -0.141541 0.768190
v 0.353452 -0.063172 0.852350
v 0.171588 -0.067416 0.948549
v 0.128899 -0.145785 0.864390
v 0.126239 0.094041 0.642414
v 0.168927 0.172410 0.726574
v 0.002805 0.185988 0.798192
v -0.039884 0.107619 0.714033
v -0.077938 0.110308 0.730425
v -0.035055 0.189034 0.814967
v 0.093837 -0.154672 0.890044
v 0.136719 -0.075947 0.974586
v 0.198805 0.168245 0.710562
v 0.158378 0.094026 0.630861
v 0.381862 -0.049545 0.820515
v 0.341435 -0.123763 0.740813
v 0.109164 0.178101 0.577533
v 0.149592 0.252319 0.657235
v -0.101870 0.274595 0.769183
v -0.144752 0.195870 0.684640
v -0.106698 0.193181 0.668249
v -0.064010 0.271550 0.752408
v 0.102113 0.257972 0.680790
v 0.059424 0.179602 0.596630
v 0.384317 -0.172054 0.783200
v 0.415590 -0.114641 0.844855
v 0.170169 -0.141553 0.998379
v 0.136996 -0.202454 0.932979
v 0.172037 -0.193607 0.907281
v 0.205060 -0.132982 0.972385
v 0.386924 -0.128738 0.876186
v 0.353901 -0.189363 0.811082
v 0.041517 0.242816 0.546849
v 0.084205 0.321185 0.631008
v -0.081917 0.334764 0.702627
v -0.124606 0.256394 0.618467
v -0.162660 0.259083 0.634859
v -0.119777 0.337809 0.719401
v 0.131684 0.315533 0.607454
v 0.091257 0.241315 0.527752
v 0.115146 0.239476 0.517347
v 0.155573 0.313694 0.597049
v 0.173480 0.250481 0.646830
v 0.133053 0.176263 0.567128
v 0.171172 0.189899 0.535095
v 0.211600 0.264117 0.614796
v 0.198061 0.310425 0.578542
v 0.157634 0.236207 0.498840
v 0.175992 0.234812 0.490827
v 0.216419 0.309030 0.570529
v 0.227574 0.271944 0.599405
v 0.187147 0.197726 0.519703
v -0.107234 0.133478 0.775492
v -0.089079 0.166807 0.811283
v -0.066149 0.146591 0.818478
v -0.084304 0.113262 0.782687
v -0.141964 0.100686 0.823644
v -0.123810 0.134015 0.859436
v -0.132233 0.158168 0.841217
v -0.150387 0.124839 0.805425
v -0.299526 0.141672 0.865399
v -0.281371 0.175001 0.901191
v -0.272948 0.150848 0.919410
v -0.291103 0.117519 0.883618
v -0.328199 0.117544 0.902411
v -0.310044 0.150873 0.938202
v -0.318467 0.175026 0.919984
v -0.336622 0.141697 0.884192
v -0.364098 0.214178 0.778851
v -0.321216 0.292904 0.863393
v -0.291146 0.291082 0.849838
v -0.334028 0.212356 0.765295
v -0.308662 0.352345 0.801674
v -0.351544 0.273620 0.717132
v -0.381557 0.275910 0.730223
v -0.338674 0.354635 0.814765
v -0.667846 0.380635 0.957521
v -0.710729 0.301909 0.872979
v -0.650388 0.318904 1.006150
v -0.693270 0.240178 0.921607
v -0.740360 0.385022 0.865555
v -0.739127 0.361405 0.873088
v -0.732961 0.344037 0.890900
v -0.724217 0.339551 0.912187
v -0.716235 0.349661 0.928819
v -0.712064 0.370505 0.934443
v -0.713297 0.394121 0.926910
v -0.719463 0.411490 0.909098
v -0.728207 0.415975 0.887810
v -0.736189 0.405866 0.871178
v -0.448189 0.360337 0.740342
v -0.446956 0.336721 0.747875
v -0.440790 0.319353 0.765687
v -0.432046 0.314867 0.786975
v -0.424064 0.324977 0.803607
v -0.419893 0.345821 0.809230
v -0.421126 0.369437 0.801697
v -0.427292 0.386805 0.783885
v -0.436036 0.391291 0.762598
v -0.444018 0.381181 0.745966
v -0.735236 0.382393 0.878029
v -0.734450 0.367330 0.882834
v -0.730517 0.356251 0.894195
v -0.724939 0.353390 0.907773
v -0.719848 0.359839 0.918382
v -0.717188 0.373134 0.921969
v -0.717974 0.388197 0.917164
v -0.721907 0.399275 0.905803
v -0.727485 0.402137 0.892225
v -0.732576 0.395688 0.881616
v -0.571693 0.353579 0.813083
v -0.572479 0.368642 0.808278
v -0.567760 0.342501 0.824444
v -0.562182 0.339639 0.838022
v -0.557091 0.346088 0.848631
v -0.554430 0.359383 0.852218
v -0.555217 0.374446 0.847413
v -0.559150 0.385525 0.836052
v -0.564727 0.388386 0.822473
v -0.569819 0.381937 0.811865
v 0.738553 -0.323953 0.025284
v 0.805928 -0.476433 0.215487
v 0.027629 -0.210515 0.799199
v -0.174164 0.080040 0.630992
v 0.865686 -0.090559 0.275922
v 0.933060 -0.243039 0.466125
v 0.154761 0.022879 1.049837
v -0.047032 0.313433 0.881630
vt 0.927200 0.246707
vt 0.827427 0.459240
vt 0.696213 0.458799
vt 0.779567 0.227763
vt 0.193673 0.133961
vt 0.387467 0.042986
vt 0.404740 0.177602
vt 0.194075 0.253606
vt 0.415015 0.204984
vt 0.194375 0.280989
vt 0.666182 0.458471
vt 0.749536 0.216495
vt 0.333858 0.810420
vt 0.482548 0.810420
vt 0.482548 0.959111
vt 0.333858 0.959111
vt 0.954311 0.264288
vt 0.852013 0.459752
vt -0.727496 0.474897
vt -0.701703 0.474897
vt -0.701703 0.500689
vt -0.727496 0.500689
vt -1.408821 0.790398
vt -1.364616 0.790398
vt -1.364616 0.834602
vt -1.408821 0.834602
vt 0.193206 0.111543
vt 0.123273 0.166853
vt 0.122807 0.131768
vt 0.829833 0.536959
vt 0.791355 0.536447
vt 0.660140 0.536006
vt 0.630110 0.535678
vt 0.123975 0.313881
vt 0.123676 0.286498
vt 0.371435 0.018265
vt 0.418527 0.000861
vt 0.434558 0.025582
vt 0.946287 0.195062
vt 0.973398 0.212643
vt 0.768623 0.164850
vt 0.798654 0.176118
vt 0.451832 0.160198
vt 0.462106 0.187580
vt 0.069323 0.287655
vt 0.068921 0.168010
vt 0.790086 0.596056
vt 0.658872 0.595615
vt 0.069622 0.315037
vt 0.628841 0.595287
vt 0.828564 0.596568
vt 0.068454 0.132924
vt 0.068295 0.115698
vt 0.122648 0.114541
vt 0.848726 0.537133
vt 0.847457 0.596742
vt 0.296481 0.778563
vt 0.465802 0.778563
vt 0.465802 0.947884
vt 0.296481 0.947884
vt 0.882328 0.553418
vt 0.881059 0.597051
vt 0.108976 0.116494
vt 0.054623 0.117651
vt 0.054341 0.087011
vt 0.094127 0.085854
vt 0.107799 0.083901
vt 0.068013 0.085058
vt 0.067876 0.071816
vt 0.099715 0.070660
vt 0.896850 0.562283
vt 0.895581 0.597202
vt 0.213162 0.298524
vt 0.197060 0.311551
vt 0.632665 0.455526
vt 0.646952 0.437867
vt 0.000000 0.000000
vt 1.000000 0.000000
vt 1.000000 1.000000
vt 0.000000 1.000000
vt 0.309848 0.788364
vt 0.475308 0.788364
vt 0.475308 0.953824
vt 0.309848 0.953824
vt 0.596042 0.443658
vt 0.597803 0.421011
vt 0.228531 0.343339
vt 0.207881 0.344944
vt 0.224803 0.449870
vt 0.204153 0.451475
vt 0.479211 0.447746
vt 0.480971 0.425100
vt 0.314329 0.792844
vt 0.470828 0.792844
vt 0.470828 0.949343
vt 0.314329 0.949343
vt 0.206892 0.478764
vt 0.227542 0.477159
vt 0.124172 0.471787
vt 0.123539 0.450009
vt 0.449283 0.444743
vt 0.480819 0.536156
vt 0.456935 0.535462
vt 0.306798 0.789219
vt 0.474452 0.789219
vt 0.474452 0.956874
vt 0.306798 0.956874
vt 0.479459 0.593913
vt 0.070875 0.451248
vt 0.302167 0.788495
vt 0.479083 0.788495
vt 0.479083 0.965412
vt 0.302167 0.965412
vt 0.071091 0.472895
vt 0.455719 0.593675
vt 0.125767 0.709036
vt 0.072686 0.710145
vt 0.195528 0.591926
vt 0.196743 0.533713
vt 0.336313 0.795297
vt 0.444937 0.795297
vt 0.444937 0.903921
vt 0.336313 0.903921
vt 0.038819 0.761475
vt 0.258057 0.761475
vt 0.258057 0.980713
vt 0.038819 0.980713
vt 0.543634 0.830499
vt 0.640937 0.830499
vt 0.640937 0.927802
vt 0.543634 0.927802
vt 0.538555 0.806133
vt 0.633320 0.806133
vt 0.633320 0.900898
vt 0.538555 0.900898
vn -0.342674 -0.637660 -0.689901
vn 0.353324 0.640080 0.682246
vn -0.802007 -0.176082 0.570772
vn 0.409888 0.659795 0.629811
vn -0.283539 -0.613225 -0.737266
vn 0.720203 0.286315 -0.631927
vn -0.284767 -0.621288 -0.730006
vn 0.826154 0.136924 -0.546555
vn 0.409077 0.652495 0.637892
vn 0.353504 0.640739 0.681534
vn -0.342491 -0.636994 -0.690607
vn 0.791000 0.192710 -0.580673
vn -0.171124 -0.735154 -0.655946
vn 0.510461 0.516123 0.687784
vn -0.791000 -0.192710 0.580673
vn 0.437875 0.495725 0.750015
vn -0.246773 -0.761180 -0.599757
vn 0.399626 0.486464 0.776950
vn -0.284503 -0.769485 -0.571796
vn 0.312814 -0.769026 0.557446
vn 0.507114 -0.743810 0.435410
vn 0.664553 -0.684312 0.300146
vn -0.348007 -0.638885 -0.686089
vn -0.341873 -0.639281 -0.688798
vn 0.354125 0.638460 0.683348
vn 0.402947 0.633971 0.660087
vn -0.291773 -0.641422 -0.709540
vn -0.200870 0.765653 -0.611086
vn -0.207789 0.766197 -0.608084
vn -0.209962 0.766359 -0.607132
vn -0.206210 0.766077 -0.608772
vn 0.206209 -0.766077 0.608773
vn 0.577649 -0.722535 0.379821
vn -0.206208 0.766077 -0.608773
vn -0.207312 0.766161 -0.608292
vn -0.348008 -0.638884 -0.686089
vn 0.348006 0.638884 0.686089
vn 0.646303 -0.693627 0.318078
vn 0.908606 -0.049585 -0.414700
vn -0.725377 -0.677208 -0.123359
vn -0.909623 0.052996 0.412041
vn -0.189634 0.306328 0.932846
vn 0.804883 -0.578849 0.130759
vn 0.484369 -0.749120 0.451892
vn -0.470666 0.751985 -0.461510
vn -0.165619 0.762221 -0.625772
vn 0.165619 -0.762221 0.625771
vn 0.288306 -0.769302 0.570135
vn 0.348007 0.638885 0.686089
vn -0.898308 0.017879 0.439003
vn -0.929771 0.141480 0.339866
vn -0.262222 -0.827046 -0.497227
vn 0.406496 0.400613 0.821139
vn 0.919835 -0.091327 -0.381527
vn -0.224325 0.767323 -0.600744
vn -0.206209 0.766077 -0.608773
vn 0.194851 -0.765145 0.613666
vn -0.348006 -0.638884 -0.686089
vn -0.206934 0.766132 -0.608457
vn -0.203946 0.765900 -0.609756
vn 0.203946 -0.765900 0.609756
vn -0.912061 0.061428 0.405426
vn -0.397192 -0.297644 -0.868128
vn -0.319926 -0.731322 -0.602342
vn -0.145432 -0.978469 -0.146453
vn 0.127526 -0.873526 0.469776
vn 0.352486 -0.308865 0.883378
vn 0.397192 0.297645 0.868128
vn 0.319926 0.731322 0.602341
vn 0.145431 0.978469 0.146453
vn -0.127525 0.873527 -0.469775
vn -0.352486 0.308862 -0.883379
vn -0.916391 0.077422 0.392725
vn -0.916391 0.077420 0.392727
vn -0.916391 0.077419 0.392726
vn -0.916389 0.077420 0.392731
vn -0.916388 0.077422 0.392732
vn -0.916388 0.077424 0.392731
vn -0.916388 0.077427 0.392732
vn -0.916389 0.077429 0.392729
vn -0.916390 0.077428 0.392726
vn -0.916392 0.077423 0.392723
vn 0.397192 0.297644 0.868128
vn -0.127525 0.873527 -0.469774
vn -0.352485 0.308866 -0.883378
vn -0.319926 -0.731322 -0.602341
vn -0.145432 -0.978469 -0.146454
vn 0.127524 -0.873528 0.469773
vn 0.352485 -0.308865 0.883378
vn -0.576574 -0.696221 -0.427596
vn 0.576574 0.696221 0.427596
vn 0.917304 -0.080997 -0.389863
vn -0.783263 -0.204005 0.587266
vn -0.098750 0.752744 -0.650865
usemtl Material_pistol_Cube-k.tga
s off
f 54/43/20 58/44/20 59/45/20 55/46/20
f 57/47/22 53/48/22 56/49/22 60/50/22
f 60/50/35 56/49/35 63/51/35 61/52/35
f 55/46/36 59/45/36 62/53/36 64/54/36
f 64/55/37 62/56/37 61/57/37 63/58/37
f 58/44/38 54/43/38 67/59/38 65/60/38
f 53/61/39 57/62/39 66/63/39 68/64/39
f 68/65/40 66/66/40 65/67/40 67/68/40
f 66/69/41 57/47/41 76/70/41 69/71/41
f 65/55/42 66/56/42 69/57/42 70/58/42
f 58/44/43 65/60/43 70/72/43 75/73/43
f 62/53/44 59/45/44 74/74/44 71/75/44
f 60/50/45 61/52/45 72/76/45 73/77/45
f 59/45/20 58/44/20 75/73/20 74/74/20
f 57/47/22 60/50/22 73/77/22 76/70/22
f 68/55/46 67/56/46 78/57/46 77/58/46
f 53/48/47 68/78/47 77/79/47 84/80/47
f 67/59/48 54/43/48 83/81/48 78/82/48
f 64/55/49 63/56/49 80/57/49 79/58/49
f 55/46/50 64/54/50 79/83/50 82/84/50
f 63/51/51 56/49/51 81/85/51 80/86/51
f 54/43/52 55/46/52 82/84/52 83/81/52
f 56/49/53 53/48/53 84/80/53 81/85/53
f 84/55/54 83/56/54 82/57/54 81/58/54
f 81/55/55 82/56/55 79/57/55 80/58/55
f 83/55/56 84/56/56 77/57/56 78/58/56
f 76/70/57 73/77/57 88/87/57 85/88/57
f 74/74/20 75/73/20 86/89/20 87/90/20
f 73/77/58 72/76/58 89/91/58 88/87/58
f 71/75/59 74/74/59 87/90/59 90/92/59
f 75/73/60 70/72/60 91/93/60 86/89/60
f 69/71/61 76/70/61 85/88/61 92/94/61
f 85/65/62 88/66/62 87/67/62 86/68/62
f 87/65/63 88/66/63 89/67/63 90/68/63
f 85/65/64 86/66/64 91/67/64 92/68/64
f 92/65/65 91/66/65 94/67/65 93/68/65
f 69/71/57 92/94/57 93/95/57 96/96/57
f 91/93/20 70/72/20 95/97/20 94/98/20
f 70/99/66 69/100/66 96/101/66 95/102/66
f 95/55/67 96/56/67 97/57/67 98/58/67
f 94/98/20 95/97/20 98/103/20 99/104/20
f 96/105/57 93/106/57 100/107/57 97/108/57
f 93/65/68 94/66/68 99/67/68 100/68/68
f 100/65/69 99/66/69 102/67/69 101/68/69
f 97/109/70 100/110/70 101/111/70 104/112/70
f 99/104/71 98/103/71 103/113/71 102/114/71
f 98/55/72 97/56/72 104/57/72 103/58/72
f 103/55/73 104/56/73 101/57/73 102/58/73
f 72/76/74 61/52/74 108/115/74 105/116/74
f 71/55/75 72/56/75 105/57/75 106/58/75
f 62/53/76 71/75/76 106/117/76 107/118/76
f 61/119/77 62/120/77 107/121/77 108/122/77
f 108/123/78 107/124/78 110/125/78 109/126/78
f 107/118/20 106/117/20 111/127/20 110/128/20
f 106/55/79 105/56/79 112/57/79 111/58/79
f 105/116/22 108/115/22 109/129/22 112/130/22
f 112/130/22 109/129/22 116/131/22 113/132/22
f 111/55/80 112/56/80 113/57/80 114/58/80
f 110/128/20 111/127/20 114/133/20 115/134/20
f 109/123/81 110/124/81 115/125/81 116/126/81
f 116/135/82 115/136/82 118/137/82 117/138/82
f 115/131/83 114/132/83 119/139/83 118/140/83
f 113/132/70 116/131/70 117/140/70 120/139/70
f 117/55/84 118/56/84 119/57/84 120/58/84
f 120/55/85 119/56/85 122/57/85 121/58/85
f 113/132/86 120/139/86 121/141/86 124/142/86
f 119/143/87 114/133/87 123/144/87 122/145/87
f 114/146/88 113/147/88 124/148/88 123/149/88
f 123/65/89 124/66/89 121/67/89 122/68/89
f 90/65/90 89/66/90 126/67/90 125/68/90
f 71/75/83 90/92/83 125/150/83 123/144/83
f 89/91/22 72/76/22 124/142/22 126/151/22
f 72/152/91 71/153/91 123/154/91 124/155/91
f 126/151/92 124/142/92 121/141/92 127/156/92
f 123/144/20 125/150/20 128/157/20 122/145/20
f 125/65/93 126/66/93 127/67/93 128/68/93
f 127/156/22 121/141/22 132/158/22 130/159/22
f 122/145/20 128/157/20 129/160/20 131/161/20
f 128/162/94 127/163/94 130/164/94 129/165/94
f 121/99/95 122/100/95 131/101/95 132/102/95
f 132/55/96 131/56/96 129/57/96 130/58/96
f 133/166/97 143/167/97 144/168/97 134/169/97
f 134/166/98 144/167/98 145/168/98 135/169/98
f 135/166/99 145/167/99 146/168/99 136/169/99
f 136/166/100 146/167/100 147/168/100 137/169/100
f 137/166/101 147/167/101 148/168/101 138/169/101
f 138/166/102 148/167/102 149/168/102 139/169/102
f 139/166/103 149/167/103 150/168/103 140/169/103
f 140/166/104 150/167/104 151/168/104 141/169/104
f 141/166/105 151/167/105 152/168/105 142/169/105
f 142/166/106 152/167/106 143/168/106 133/169/106
f 133/166/107 134/167/107 154/168/107 153/169/107
f 134/166/108 135/167/108 155/168/108 154/169/108
f 135/166/109 136/167/109 156/168/109 155/169/109
f 136/166/110 137/167/110 157/168/110 156/169/110
f 137/166/111 138/167/111 158/168/111 157/169/111
f 138/166/112 139/167/112 159/168/112 158/169/112
f 139/166/113 140/167/113 160/168/113 159/169/113
f 140/166/114 141/167/114 161/168/114 160/169/114
f 141/166/115 142/167/115 162/168/115 161/169/115
f 142/166/116 133/167/116 153/168/116 162/169/116
f 153/166/117 154/167/117 163/168/117 164/169/117
f 154/166/103 155/167/103 165/168/103 163/169/103
f 155/166/104 156/167/104 166/168/104 165/169/104
f 156/166/118 157/167/118 167/168/118 166/169/118
f 157/166/119 158/167/119 168/168/119 167/169/119
f 158/166/97 159/167/97 169/168/97 168/169/97
f 159/166/120 160/167/120 170/168/120 169/169/120
f 160/166/121 161/167/121 171/168/121 170/169/121
f 161/166/122 162/167/122 172/168/122 171/169/122
f 162/166/123 153/167/123 164/168/123 172/169/123
f 175/170/124 176/171/124 173/172/124 174/173/124
f 177/170/125 180/171/125 179/172/125 178/173/125
f 173/170/126 177/171/126 178/172/126 174/173/126
f 174/170/17 178/171/17 179/172/17 175/173/17
f 175/174/127 179/175/127 180/176/127 176/177/127
f 176/170/128 180/171/128 177/172/128 173/173/128
